<svg width="30" height="30" viewBox="0 0 30 30" fill="none" xmlns="http://www.w3.org/2000/svg">
<circle cx="15" cy="15" r="14.5" fill="white" stroke="#3A81CF"/>
<path d="M21.1247 17.9458V19.8652C21.1255 20.0434 21.089 20.2198 21.0176 20.383C20.9462 20.5463 20.8415 20.6929 20.7102 20.8133C20.5789 20.9338 20.4239 21.0255 20.2551 21.0826C20.0863 21.1397 19.9074 21.1609 19.73 21.1448C17.7612 20.9309 15.8701 20.2582 14.2085 19.1806C12.6627 18.1983 11.3521 16.8877 10.3698 15.3419C9.28849 13.6728 8.61559 11.7724 8.40558 9.79483C8.3896 9.6179 8.41062 9.43959 8.46732 9.27123C8.52403 9.10288 8.61516 8.94818 8.73493 8.81698C8.8547 8.68577 9.00047 8.58095 9.16297 8.50917C9.32547 8.43739 9.50113 8.40024 9.67878 8.40007H11.5982C11.9087 8.39702 12.2097 8.50697 12.4451 8.70943C12.6805 8.9119 12.8343 9.19306 12.8778 9.50052C12.9588 10.1148 13.109 10.7179 13.3256 11.2983C13.4117 11.5273 13.4303 11.7762 13.3793 12.0155C13.3283 12.2547 13.2097 12.4744 13.0377 12.6483L12.2252 13.4609C13.136 15.0626 14.4622 16.3889 16.0639 17.2996L16.8765 16.4871C17.0504 16.3151 17.2701 16.1965 17.5093 16.1455C17.7486 16.0945 17.9975 16.1131 18.2265 16.1992C18.8069 16.4158 19.41 16.566 20.0243 16.647C20.3351 16.6909 20.6189 16.8474 20.8218 17.0869C21.0247 17.3264 21.1325 17.6321 21.1247 17.9458Z" fill="#3A81CF"/>
</svg>
