<svg width="90" height="40" viewBox="0 0 90 40" fill="none" xmlns="http://www.w3.org/2000/svg">
<rect x="0.5" y="0.5" width="89" height="39" rx="8.5" fill="white"/>
<path d="M40.533 20.2563C40.533 23.0324 38.3293 25.078 35.6249 25.078C32.9205 25.078 30.7168 23.0324 30.7168 20.2563C30.7168 17.4607 32.9205 15.4346 35.6249 15.4346C38.3293 15.4346 40.533 17.4607 40.533 20.2563ZM38.3844 20.2563C38.3844 18.5215 37.1072 17.3346 35.6249 17.3346C34.1425 17.3346 32.8653 18.5215 32.8653 20.2563C32.8653 21.9737 34.1425 23.178 35.6249 23.178C37.1072 23.178 38.3844 21.9715 38.3844 20.2563Z" fill="#EA4335"/>
<path d="M51.1215 20.2563C51.1215 23.0324 48.9178 25.078 46.2134 25.078C43.509 25.078 41.3053 23.0324 41.3053 20.2563C41.3053 17.4628 43.509 15.4346 46.2134 15.4346C48.9178 15.4346 51.1215 17.4607 51.1215 20.2563ZM48.973 20.2563C48.973 18.5215 47.6958 17.3346 46.2134 17.3346C44.7311 17.3346 43.4539 18.5215 43.4539 20.2563C43.4539 21.9737 44.7311 23.178 46.2134 23.178C47.6958 23.178 48.973 21.9715 48.973 20.2563Z" fill="#FBBC05"/>
<path d="M61.2683 15.7259V24.3824C61.2683 27.9433 59.1374 29.3976 56.6183 29.3976C54.2469 29.3976 52.8197 27.8346 52.2815 26.5563L54.1521 25.7889C54.4852 26.5737 55.3014 27.4998 56.6161 27.4998C58.2286 27.4998 59.2278 26.5194 59.2278 24.6737V23.9802H59.1528C58.6719 24.565 57.7455 25.0759 56.5764 25.0759C54.13 25.0759 51.8889 22.9759 51.8889 20.2737C51.8889 17.552 54.13 15.4346 56.5764 15.4346C57.7433 15.4346 58.6697 15.9454 59.1528 16.5128H59.2278V15.728H61.2683V15.7259ZM59.38 20.2737C59.38 18.5759 58.2308 17.3346 56.7683 17.3346C55.2859 17.3346 54.044 18.5759 54.044 20.2737C54.044 21.9541 55.2859 23.178 56.7683 23.178C58.2308 23.178 59.38 21.9541 59.38 20.2737Z" fill="#4285F4"/>
<path d="M64.632 10.6523V24.7828H62.5364V10.6523H64.632Z" fill="#34A853"/>
<path d="M72.7986 21.8435L74.4663 22.9391C73.928 23.7239 72.631 25.0761 70.3898 25.0761C67.6104 25.0761 65.5347 22.9587 65.5347 20.2544C65.5347 17.387 67.628 15.4326 70.1494 15.4326C72.6883 15.4326 73.9303 17.4239 74.3361 18.5L74.5589 19.0478L68.0185 21.7174C68.5192 22.6848 69.2979 23.1783 70.3898 23.1783C71.4839 23.1783 72.2428 22.6478 72.7986 21.8435ZM67.6656 20.1087L72.0376 18.3196C71.7972 17.7174 71.0736 17.2978 70.2222 17.2978C69.1303 17.2978 67.6104 18.2478 67.6656 20.1087Z" fill="#EA4335"/>
<path d="M22.7842 19.0025V16.9569H29.7791C29.8475 17.3134 29.8827 17.7351 29.8827 18.1917C29.8827 19.7265 29.457 21.6243 28.085 22.9765C26.7504 24.346 25.0452 25.0765 22.7864 25.0765C18.5997 25.0765 15.0791 21.7156 15.0791 17.5895C15.0791 13.4634 18.5997 10.1025 22.7864 10.1025C25.1026 10.1025 26.7526 10.9982 27.9923 12.1656L26.5276 13.6091C25.6386 12.7873 24.4342 12.1482 22.7842 12.1482C19.7269 12.1482 17.3357 14.5765 17.3357 17.5895C17.3357 20.6025 19.7269 23.0308 22.7842 23.0308C24.7673 23.0308 25.8967 22.246 26.6202 21.533C27.207 20.9547 27.593 20.1286 27.7452 19.0004L22.7842 19.0025Z" fill="#4285F4"/>
<rect x="0.5" y="0.5" width="89" height="39" rx="8.5" stroke="#EFEEEA"/>
</svg>
