<svg width="100" height="40" viewBox="0 0 100 40" fill="none" xmlns="http://www.w3.org/2000/svg">
<rect x="0.5" y="0.5" width="99" height="39" rx="8.5" fill="white"/>
<path d="M81.7386 27.4145C83.1119 27.4145 84.0847 27.1692 84.8095 26.6409V24.2446C84.0656 24.7541 83.1691 25.0748 81.9103 25.0748C79.7931 25.0748 78.9157 23.4522 78.9157 20.8861C78.9157 18.188 79.9839 16.8107 81.9294 16.8107C83.0738 16.8107 84.1991 17.2069 84.7904 17.5843V15.0937C84.161 14.7541 83.0738 14.5088 81.586 14.5088C77.7904 14.5088 75.8258 17.2069 75.8258 20.9805C75.8449 25.1126 77.7713 27.4145 81.7386 27.4145ZM63.18 26.3201V23.9239C62.2645 24.5465 60.7005 25.0937 59.27 25.0937C57.0956 25.0937 56.2754 24.0748 56.1419 21.9994H63.3136V20.4522C63.3136 16.1314 61.3871 14.5088 58.4307 14.5088C54.8068 14.5088 53.0901 17.2446 53.0901 20.9994C53.0901 25.3201 55.2454 27.4145 59.022 27.4145C60.9103 27.4145 62.3027 26.905 63.18 26.3201ZM35.9621 14.7352V19.6409H31.9948V14.7352H29.0193V27.1692H31.9948V21.9805H35.9621V27.1692H38.9375V14.7352H35.9621ZM52.3463 24.8295H51.0302V14.7352H42.3708V15.7918C42.3708 18.8295 42.18 22.7541 41.131 24.8295H40.1773V29.9994H42.9239V27.1692H49.5806V29.9994H52.3272V24.8295H52.3463ZM72.6596 27.1692H76.0356L71.2672 20.4711L75.4634 14.7352H72.4689L68.2727 20.4711V14.7352H65.2972V27.1692H68.2727V21.056L72.6596 27.1692ZM58.3544 16.8107C59.8231 16.8107 60.2809 18.0182 60.2809 19.5843V19.8295H56.1419C56.2182 17.8484 56.943 16.8107 58.3544 16.8107ZM48.0547 24.8295H43.8585C44.6787 22.9616 44.9076 19.5654 44.9076 17.4145V17.0371H48.0547V24.8295Z" fill="black"/>
<path d="M26.5395 27.1698H23.5068V12.3208H22.1526C19.673 12.3208 18.376 13.5472 18.376 15.3774C18.376 17.4528 19.2725 18.4151 21.1226 19.6415L22.6485 20.6604L18.2616 27.1698H15L18.9482 21.3585C16.6785 19.7547 15.4005 18.1887 15.4005 15.5472C15.4005 12.2453 17.7275 10 22.1335 10H26.5204V27.1698H26.5395Z" fill="#FC3F1D"/>
<rect x="0.5" y="0.5" width="99" height="39" rx="8.5" stroke="#EFEEEA"/>
</svg>
