<svg width="23" height="23" viewBox="0 0 23 23" fill="none" xmlns="http://www.w3.org/2000/svg">
<path d="M21.0833 16.2149V19.0899C21.0844 19.3568 21.0297 19.621 20.9228 19.8656C20.8159 20.1101 20.6591 20.3296 20.4624 20.5101C20.2657 20.6905 20.0335 20.8279 19.7807 20.9134C19.5279 20.9989 19.26 21.0306 18.9941 21.0066C16.0452 20.6862 13.2125 19.6785 10.7237 18.0645C8.40823 16.5932 6.44509 14.63 4.97373 12.3145C3.35412 9.81442 2.34621 6.96797 2.03164 4.00576C2.00769 3.74075 2.03919 3.47366 2.12412 3.22149C2.20906 2.96932 2.34557 2.73759 2.52496 2.54107C2.70436 2.34454 2.92271 2.18753 3.16611 2.08001C3.40951 1.9725 3.67264 1.91685 3.93873 1.9166H6.81373C7.27881 1.91202 7.72969 2.07671 8.08233 2.37998C8.43497 2.68325 8.6653 3.1044 8.73039 3.56493C8.85174 4.48499 9.07678 5.38838 9.40123 6.25785C9.53016 6.60086 9.55807 6.97364 9.48164 7.33202C9.4052 7.69041 9.22764 8.01937 8.96998 8.27993L7.75289 9.49701C9.11713 11.8962 11.1037 13.8828 13.5029 15.247L14.72 14.0299C14.9805 13.7723 15.3095 13.5947 15.6679 13.5183C16.0263 13.4418 16.399 13.4697 16.7421 13.5987C17.6115 13.9231 18.5149 14.1482 19.435 14.2695C19.9005 14.3352 20.3257 14.5697 20.6296 14.9284C20.9335 15.2871 21.095 15.7449 21.0833 16.2149Z" stroke="#3A81CF" stroke-width="2" stroke-linecap="round" stroke-linejoin="round"/>
</svg>
