<svg width="25" height="25" viewBox="0 0 25 25" fill="none" xmlns="http://www.w3.org/2000/svg">
<path fill-rule="evenodd" clip-rule="evenodd" d="M12.8294 3.19834C12.7262 3.15027 12.6136 3.12537 12.4997 3.12537C12.3858 3.12537 12.2733 3.15027 12.1701 3.19834L0.451305 8.66709C0.313308 8.7315 0.197146 8.83484 0.117103 8.9644C0.0370607 9.09395 -0.00337172 9.24408 0.000778551 9.39631C0.00492882 9.54854 0.0534808 9.69624 0.140463 9.82125C0.227446 9.94625 0.349066 10.0431 0.490367 10.0999L12.2091 14.7874C12.3957 14.8622 12.6038 14.8622 12.7904 14.7874L21.8747 11.1562V20.3124C21.4603 20.3124 21.0629 20.477 20.7699 20.77C20.4769 21.0631 20.3122 21.4605 20.3122 21.8749V24.9999H24.9997V21.8749C24.9997 21.4605 24.8351 21.0631 24.5421 20.77C24.2491 20.477 23.8516 20.3124 23.4372 20.3124V10.5296L24.5091 10.0999C24.6504 10.0431 24.772 9.94625 24.859 9.82125C24.946 9.69624 24.9946 9.54854 24.9987 9.39631C25.0029 9.24408 24.9624 9.09395 24.8824 8.9644C24.8023 8.83484 24.6862 8.7315 24.5482 8.66709L12.8294 3.19834ZM12.4997 13.2187L2.74662 9.32021L12.4997 4.76865L22.2529 9.32021L12.4997 13.2187ZM6.52474 14.1093C6.42404 14.0714 6.3166 14.0547 6.20916 14.0603C6.10172 14.0659 5.99659 14.0936 5.90036 14.1418C5.80413 14.1899 5.71887 14.2573 5.64994 14.3399C5.581 14.4225 5.52987 14.5185 5.49974 14.6218L4.71849 17.278C4.66377 17.4645 4.68051 17.6647 4.76545 17.8395C4.8504 18.0143 4.99744 18.1511 5.17787 18.2233L12.2091 21.0358C12.3957 21.1106 12.6038 21.1106 12.7904 21.0358L19.8216 18.2233C20.002 18.1511 20.1491 18.0143 20.234 17.8395C20.319 17.6647 20.3357 17.4645 20.281 17.278L19.4997 14.6218C19.4694 14.5186 19.4182 14.4228 19.3492 14.3404C19.2802 14.258 19.1949 14.1907 19.0987 14.1427C19.0025 14.0948 18.8974 14.0672 18.79 14.0617C18.6827 14.0562 18.5753 14.0729 18.4747 14.1108L12.4997 16.353L6.52474 14.1124V14.1093ZM6.41849 17.0374L6.76224 15.8687L12.2247 17.9171C12.402 17.9838 12.5975 17.9838 12.7747 17.9171L18.2372 15.8687L18.581 17.0374L12.4997 19.4687L6.41849 17.0374Z" fill="#3A81CF"/>
</svg>
