<svg width="25" height="25" viewBox="0 0 25 25" fill="none" xmlns="http://www.w3.org/2000/svg">
<path d="M8.59375 10.9375C8.38655 10.9375 8.18784 11.0198 8.04132 11.1663C7.89481 11.3128 7.8125 11.5115 7.8125 11.7188C7.8125 11.926 7.89481 12.1247 8.04132 12.2712C8.18784 12.4177 8.38655 12.5 8.59375 12.5H16.4062C16.6135 12.5 16.8122 12.4177 16.9587 12.2712C17.1052 12.1247 17.1875 11.926 17.1875 11.7188C17.1875 11.5115 17.1052 11.3128 16.9587 11.1663C16.8122 11.0198 16.6135 10.9375 16.4062 10.9375H8.59375ZM7.8125 14.8438C7.8125 14.6365 7.89481 14.4378 8.04132 14.2913C8.18784 14.1448 8.38655 14.0625 8.59375 14.0625H16.4062C16.6135 14.0625 16.8122 14.1448 16.9587 14.2913C17.1052 14.4378 17.1875 14.6365 17.1875 14.8438C17.1875 15.051 17.1052 15.2497 16.9587 15.3962C16.8122 15.5427 16.6135 15.625 16.4062 15.625H8.59375C8.38655 15.625 8.18784 15.5427 8.04132 15.3962C7.89481 15.2497 7.8125 15.051 7.8125 14.8438ZM7.8125 17.9688C7.8125 17.7615 7.89481 17.5628 8.04132 17.4163C8.18784 17.2698 8.38655 17.1875 8.59375 17.1875H11.7188C11.926 17.1875 12.1247 17.2698 12.2712 17.4163C12.4177 17.5628 12.5 17.7615 12.5 17.9688C12.5 18.176 12.4177 18.3747 12.2712 18.5212C12.1247 18.6677 11.926 18.75 11.7188 18.75H8.59375C8.38655 18.75 8.18784 18.6677 8.04132 18.5212C7.89481 18.3747 7.8125 18.176 7.8125 17.9688Z" fill="#3A81CF"/>
<path d="M14.8438 0H6.25C5.4212 0 4.62634 0.32924 4.04029 0.915291C3.45424 1.50134 3.125 2.2962 3.125 3.125V21.875C3.125 22.7038 3.45424 23.4987 4.04029 24.0847C4.62634 24.6708 5.4212 25 6.25 25H18.75C19.5788 25 20.3737 24.6708 20.9597 24.0847C21.5458 23.4987 21.875 22.7038 21.875 21.875V7.03125L14.8438 0ZM14.8438 1.5625V4.6875C14.8438 5.3091 15.0907 5.90524 15.5302 6.34478C15.9698 6.78432 16.5659 7.03125 17.1875 7.03125H20.3125V21.875C20.3125 22.2894 20.1479 22.6868 19.8549 22.9799C19.5618 23.2729 19.1644 23.4375 18.75 23.4375H6.25C5.8356 23.4375 5.43817 23.2729 5.14515 22.9799C4.85212 22.6868 4.6875 22.2894 4.6875 21.875V3.125C4.6875 2.7106 4.85212 2.31317 5.14515 2.02015C5.43817 1.72712 5.8356 1.5625 6.25 1.5625H14.8438Z" fill="#3A81CF"/>
</svg>
