<svg width="244" height="561" viewBox="0 0 244 561" fill="none" xmlns="http://www.w3.org/2000/svg">
<path d="M111.851 0.974243C105.937 2.72455 101.229 6.55701 98.9296 11.4877C96.8475 15.5374 96.6302 17.8369 96.8475 25.616C97.288 34.0474 97.0649 34.8138 95.4233 34.2646C93.7816 33.8242 93.4499 34.3734 93.4499 37.8798C93.4499 44.2289 95.3146 49.1596 99.0326 53.1006C101.99 56.1666 102.539 57.6995 103.414 65.1469C105.387 83.3251 101.115 88.4731 75.5977 97.9969C55.3375 105.444 52.1629 111.794 54.4623 140.05C55.0115 147.715 54.9028 155.163 54.0219 162.501C52.815 172.683 51.282 178.38 43.8403 198.64C42.09 203.457 40.6657 210.795 39.8992 218.351C38.6923 230.615 34.7512 247.26 30.8101 256.241C28.5107 261.606 29.1685 261.28 16.6817 264.455C14.2736 265.112 -0.838619 279.784 0.0365412 280.659C1.5695 282.192 6.82618 281.209 10.6586 278.577C12.8493 277.044 14.9314 275.837 15.3661 275.837C17.0078 275.837 13.9419 285.144 9.01694 294.891C6.0597 300.805 3.65158 306.388 3.65158 307.486C3.65158 308.47 4.96718 310.443 6.50014 311.868L9.24001 314.493L11.8655 311.976L14.6054 309.345L13.9476 312.743C13.5071 314.825 13.7302 316.358 14.6054 316.907C16.4644 318.108 19.9707 314.39 24.0205 306.502L27.7442 299.387L26.9777 304.861C25.3361 317.233 28.0702 319.315 31.6853 308.367C32.6691 305.301 35.7351 297.745 38.3663 291.722C41.1061 285.699 43.949 278.034 44.8241 274.745C45.6993 271.462 48.4392 264.998 50.8473 260.508C61.3606 241.123 71.7653 212.323 73.733 196.993C75.4833 184.071 76.5816 182.865 77.4567 193.269C78.4406 204.766 75.8151 229.734 71.6509 248.462C63.4485 285.476 62.5733 291.939 62.4589 309.786C62.4589 326.54 63.3341 338.145 66.7317 372.751C68.4821 390.054 68.4821 390.489 66.0739 405.058C62.8993 424.22 63.4484 442.513 68.2647 474.596C72.0971 500.004 72.5375 510.077 70.4555 525.515C69.2485 534.931 68.7051 536.578 64.3236 543.144C55.8923 555.849 58.6322 560.556 74.1792 560.556C84.6925 560.556 87.9758 559.572 89.2914 556.283C90.1666 553.875 90.607 545.661 91.4822 516.203C91.4822 513.137 91.2648 506.022 90.7157 500.325C89.9492 490.469 90.1666 488.827 94.9885 467.143C99.8048 445.35 100.028 443.599 100.028 427.063C100.028 412.717 100.354 408.667 102.219 403.519C105.285 394.539 107.367 383.373 108.682 369.462C109.231 362.781 110.764 353.258 111.965 348.218C113.172 343.07 115.031 330.258 116.015 319.635L117.874 300.25H121.924H125.974L127.833 319.521C128.817 330.143 130.573 342.847 131.774 347.778C132.866 352.594 134.405 362.232 135.057 369.131C136.481 383.585 138.672 394.648 141.629 403.514C143.488 408.77 143.82 412.711 143.82 427.274C143.82 444.028 144.038 445.67 148.859 467.354C153.676 488.816 153.899 490.458 153.127 500.319C152.577 506.016 152.36 513.132 152.36 516.198C153.235 547.406 153.676 555.185 154.66 557.044C155.975 559.561 160.134 560.55 169.663 560.55C184.884 560.55 188.276 555.185 179.959 544.014C175.143 537.659 175.143 537.773 173.278 524.961C171.305 511.49 171.854 499.667 175.578 474.585C180.394 442.387 180.943 424.1 177.768 405.047C175.36 390.592 175.36 390.152 177.111 372.74C180.617 337.699 181.383 326.419 181.383 309.774C181.275 291.922 180.291 285.356 172.186 248.45C168.021 229.723 165.396 204.755 166.38 193.258C167.255 182.853 168.353 184.06 170.104 196.982C172.077 212.202 182.367 240.894 192.446 259.513C195.186 264.552 198.137 271.45 199.018 274.733C199.893 278.017 202.742 285.687 205.476 291.71C208.107 297.734 211.173 305.29 212.157 308.356C215.772 319.309 218.506 317.227 216.865 304.849L216.098 299.375L219.822 306.491C223.872 314.373 227.378 318.097 229.237 316.896C230.112 316.346 230.329 314.814 229.895 312.731L229.237 309.334L231.977 311.965L234.608 314.482L237.348 311.856C238.881 310.432 240.196 308.464 240.196 307.366C240.196 306.382 237.788 300.794 234.722 294.771C229.574 284.698 227.166 277.576 228.482 276.261C228.699 275.935 230.89 276.919 233.081 278.56C237.022 281.186 242.279 282.175 243.811 280.642C244.687 279.767 229.466 265.095 227.058 264.437C226.182 264.22 223.117 263.454 220.268 262.687C215.669 261.48 215.011 260.822 212.929 256.006C208.988 247.026 205.264 230.93 203.949 218.334C203.182 210.778 201.758 203.439 200.008 198.623C192.56 178.363 191.027 172.672 189.826 162.484C188.951 155.477 188.842 147.263 189.386 139.49C189.826 132.918 190.152 124.927 189.935 121.969C189.277 109.923 183.145 102.916 169.24 98.3173C157.851 94.5935 145.479 87.9126 142.739 84.1888C139.673 79.916 139.015 75.2085 139.999 65.0269C140.657 58.0199 141.206 56.2638 143.506 54.2961C147.555 50.7897 149.311 46.5226 149.637 40.0591C149.855 35.2428 149.529 34.3619 147.887 34.4764C146.137 34.6937 146.022 33.8185 146.68 26.2624C147.338 19.1467 147.006 16.956 145.147 12.7918C142.63 7.1004 137.591 2.82758 131.242 1.07727C126.197 -0.341309 116.227 -0.34137 111.851 0.974243Z" fill="#C1B7A2"/>
</svg>
