<svg width="80" height="80" viewBox="0 0 80 80" fill="none" xmlns="http://www.w3.org/2000/svg">
<rect width="80" height="80" rx="40" fill="#3A81CF"/>
<path d="M28.2266 22.6095C26.7344 22.9767 25.4688 24.2423 25.1172 25.7111C25.0156 26.1486 25 27.9767 25 40.0001C25 52.0236 25.0156 53.8517 25.1172 54.2892C25.4844 55.8439 26.875 57.1564 28.4375 57.422C28.7969 57.4767 31.8438 57.5001 38.6328 57.4845L48.3203 57.4611L48.8203 57.2814C50.0312 56.8439 50.9766 55.9142 51.4297 54.7111C51.6016 54.2658 51.6016 54.1798 51.625 49.9454C51.6484 45.1954 51.6562 45.2814 51.1797 45.0783C50.8594 44.9454 50.4609 45.0314 50.2266 45.2814L50.0391 45.4845L50 49.7111L49.9609 53.9454L49.7734 54.3595C49.5312 54.8908 48.8906 55.4845 48.3438 55.6798C47.9531 55.8126 47.4375 55.8204 38.2812 55.8204H28.6328L28.1953 55.6173C27.5781 55.3283 27.1719 54.9298 26.9062 54.3595L26.6797 53.8673V40.0001V26.1329L26.8984 25.6642C27.1797 25.0548 27.5625 24.672 28.1562 24.3986L28.6328 24.1798H38.3594H48.0859L48.4922 24.3673C49.0781 24.6329 49.6094 25.2267 49.875 25.9142C50.1094 26.5314 50.1797 26.6095 50.5469 26.7189C50.8672 26.8126 51.2656 26.6564 51.4531 26.3751C51.7266 25.9533 51.4141 24.922 50.7656 24.0783C50.3594 23.5626 49.6016 23.0079 48.9141 22.7423L48.3984 22.5392L38.5156 22.5236C30.7188 22.5158 28.5469 22.5314 28.2266 22.6095Z" fill="white"/>
<path d="M52.8984 28.1251C52.4375 28.2267 51.9453 28.5314 51.6016 28.9298C51.3047 29.2657 42.0313 45.2423 41.4844 46.3517C41.1328 47.0626 41.0391 47.5548 40.9453 49.1954C40.8594 50.6642 40.9062 50.9064 41.3984 51.4142C41.6875 51.711 41.8359 51.797 42.1875 51.8751C42.8125 52.0157 43.1094 51.9064 44.3516 51.0782C45.7656 50.1485 46.0156 49.9298 46.4375 49.3126C46.9766 48.5079 56.4063 32.1251 56.5313 31.7735C56.6797 31.3517 56.6719 30.586 56.5078 30.1173C56.3047 29.547 55.6016 28.8751 54.7656 28.4532C54.0391 28.0939 53.5078 28.0001 52.8984 28.1251ZM54.1875 30.0392C54.7656 30.3595 55 30.6329 55 30.961C55 31.1798 54.2266 32.672 54.0625 32.7735C53.9766 32.8282 51.9531 31.6485 51.9531 31.547C51.9531 31.3907 52.8125 30.0079 52.9844 29.8907C53.2656 29.6876 53.6484 29.7423 54.1875 30.0392ZM52.1719 33.672C52.7344 33.9923 53.2031 34.2735 53.2031 34.297C53.2031 34.4298 45.1172 48.3048 44.8828 48.5782C44.6094 48.8907 44.125 49.2501 43.0156 49.9532L42.5625 50.2423L42.6172 49.1642C42.6406 48.5704 42.7188 47.8829 42.7813 47.6407C42.8594 47.297 43.8828 45.461 46.9688 40.1173C49.2188 36.2267 51.0703 33.0548 51.1016 33.0626C51.125 33.0782 51.6094 33.3517 52.1719 33.672Z" fill="white"/>
<path d="M32.9922 29.2583C32.7344 29.3677 32.5 29.7192 32.5 30.0005C32.5 30.2895 32.7344 30.6333 33.0078 30.7505C33.4062 30.9146 46.5938 30.9146 46.9922 30.7505C47.2656 30.6333 47.5 30.2895 47.5 30.0005C47.5 29.7114 47.2656 29.3677 46.9922 29.2505C46.6016 29.0864 33.3672 29.0942 32.9922 29.2583Z" fill="white"/>
<path d="M30.4922 34.2583C30.2344 34.3677 30 34.7192 30 35.0005C30 35.2895 30.2344 35.6333 30.5078 35.7505C30.9062 35.9146 45.0312 35.9146 45.4297 35.7505C45.7031 35.6333 45.9375 35.2895 45.9375 35.0005C45.9375 34.7114 45.7031 34.3677 45.4297 34.2505C45.0391 34.0864 30.8672 34.0942 30.4922 34.2583Z" fill="white"/>
<path d="M30.4922 39.2583C30.2344 39.3677 30 39.7192 30 40.0005C30 40.2895 30.2344 40.6333 30.5078 40.7505C30.8984 40.9146 42.1406 40.9146 42.5312 40.7505C42.8672 40.6099 43.0469 40.352 43.0469 40.0005C43.0469 39.6489 42.8672 39.3911 42.5312 39.2505C42.1484 39.0864 30.8672 39.0942 30.4922 39.2583Z" fill="white"/>
<path d="M30.4922 44.2583C30.2344 44.3677 30 44.7192 30 45.0005C30 45.2896 30.2344 45.6333 30.5078 45.7505C30.8984 45.9146 39.25 45.9146 39.6406 45.7505C39.9766 45.6099 40.1562 45.3521 40.1562 45.0005C40.1562 44.6489 39.9766 44.3911 39.6406 44.2505C39.2578 44.0864 30.8594 44.0942 30.4922 44.2583Z" fill="white"/>
<path d="M30.4922 49.2583C30.2344 49.3677 30 49.7192 30 50.0005C30 50.2895 30.2344 50.6333 30.5078 50.7505C30.8984 50.9146 38.3125 50.9146 38.7031 50.7505C39.0391 50.6099 39.2188 50.352 39.2188 50.0005C39.2188 49.6489 39.0391 49.3911 38.7031 49.2505C38.3203 49.0942 30.8594 49.0942 30.4922 49.2583Z" fill="white"/>
</svg>
