<svg width="80" height="80" viewBox="0 0 80 80" fill="none" xmlns="http://www.w3.org/2000/svg">
<rect width="80" height="80" rx="40" fill="#3A81CF"/>
<g clip-path="url(#clip0_778_98)">
<path d="M27.5234 23.5391L23.9844 27.0703L24 40.8203L24.0234 54.5703L24.1953 54.8906C24.4375 55.3516 24.9219 55.75 25.3984 55.8906C25.6875 55.9766 26.1406 56.0156 26.8906 56.0156H27.9688V57.0938C27.9688 57.8438 28.0078 58.2969 28.0938 58.5859C28.2344 59.0625 28.6328 59.5469 29.0938 59.7891L29.4141 59.9609H42H54.5859L54.9609 59.7266C55.4688 59.4141 55.8281 58.9297 55.9297 58.4219C55.9922 58.125 56.0156 53.2578 56 41.7578L55.9766 25.5078L55.7656 25.1094C55.2969 24.2188 54.7344 23.9844 53.0703 23.9844H51.9531V22.75C51.9531 21.5781 51.9453 21.4922 51.75 21.1094C51.6406 20.8828 51.4219 20.6016 51.2656 20.4688C50.6641 19.9766 51.2344 20 40.6719 20H31.0547L27.5234 23.5391ZM50.4766 21.5547C50.625 21.7344 50.625 22.1016 50.625 38C50.625 54.2344 50.625 54.2656 50.4688 54.4375C50.3828 54.5312 50.2266 54.625 50.1328 54.6484C50.0391 54.6719 44.5 54.6797 37.8281 54.6719L25.6875 54.6484L25.5 54.4297L25.3125 54.2109V41.0859V27.9688H27.8203C29.5234 27.9688 30.4297 27.9375 30.6406 27.875C31.0391 27.7578 31.5859 27.2734 31.7891 26.8516C31.9453 26.5312 31.9531 26.3906 31.9531 23.9219V21.3281L41.1406 21.3438L50.3281 21.3672L50.4766 21.5547ZM30.625 24.2969V26.2578L30.4297 26.4453L30.2422 26.6406H28.2656H26.2891L28.4375 24.4922C29.6172 23.3125 30.5938 22.3438 30.6016 22.3438C30.6172 22.3438 30.625 23.2266 30.625 24.2969ZM54.2891 25.4297C54.4141 25.4922 54.5547 25.6484 54.6016 25.7891C54.6641 25.9688 54.6875 30.5234 54.6875 42.0078C54.6875 59.1484 54.7031 58.375 54.3125 58.5859C54.1953 58.6484 50.5469 58.6719 41.9609 58.6719H29.7734L29.5547 58.4844C29.3359 58.2969 29.3359 58.2969 29.3125 57.1562L29.2891 56.0156H39.7422C46.6172 56.0156 50.2969 55.9844 50.4844 55.9375C50.9922 55.7969 51.5 55.3906 51.7344 54.9297L51.9531 54.5156V39.9688C51.9531 31.9609 51.9766 25.3906 52.0078 25.3672C52.0312 25.3359 52.5078 25.3125 53.0625 25.3125C53.7969 25.3125 54.1328 25.3438 54.2891 25.4297Z" fill="white"/>
<path d="M28.25 31.5C28.1328 31.6016 28.0234 31.7891 28 31.9297C27.9609 32.1406 27.9922 32.2188 28.1875 32.4219L28.4219 32.6562H38.0078H47.5859L47.7734 32.4609C48.1015 32.1406 48.0156 31.6406 47.6015 31.4219C47.4765 31.3516 45.0078 31.3281 37.9375 31.3281H28.4453L28.25 31.5Z" fill="white"/>
<path d="M28.1641 34.9374C27.9219 35.2187 27.9375 35.5546 28.2109 35.8202C28.3594 35.9765 28.4766 35.9765 34.5547 35.9921C39.4062 36.0077 40.7812 35.9921 40.9375 35.914C41.3594 35.7031 41.4297 35.1796 41.0937 34.8437C40.9375 34.6874 40.8047 34.6874 34.6562 34.6874H28.375L28.1641 34.9374Z" fill="white"/>
<path d="M43.5625 34.8516C43.4141 34.9688 43.3594 35.0859 43.3594 35.2734C43.3594 35.9766 43.4922 36.0156 45.6953 36.0156H47.4844L47.7266 35.8125C48.0391 35.5547 48.0625 35.1641 47.7734 34.8828L47.5859 34.6875H45.6797C43.8672 34.6875 43.7578 34.6953 43.5625 34.8516Z" fill="white"/>
<path d="M28.3906 38.0781C28.0625 38.2266 27.9141 38.5859 28.0469 38.9063C28.1016 39.0391 28.2109 39.1797 28.2891 39.2188C28.3672 39.2656 29.2656 39.2969 30.3516 39.2969H32.2734L32.4609 39.1016C32.7109 38.8594 32.7109 38.5156 32.4687 38.2266L32.2812 38.0078L30.4531 37.9922C29.0469 37.9766 28.5781 37.9922 28.3906 38.0781Z" fill="white"/>
<path d="M35.1563 38.0234C34.6875 38.1953 34.5234 38.8047 34.8672 39.125L35.0469 39.2969H41.3438H47.6484L47.8047 39.0937C48.0234 38.8203 48.0078 38.4922 47.7813 38.2266L47.5938 38.0078L41.4297 37.9922C38.0469 37.9844 35.2188 38 35.1563 38.0234Z" fill="white"/>
<path d="M28.25 41.5C28.1328 41.6016 28.0234 41.7891 28 41.9297C27.9609 42.1406 27.9922 42.2188 28.1875 42.4219L28.4219 42.6562H29.6719H30.9219L31.125 42.4141C31.3906 42.1016 31.3828 41.8359 31.1016 41.5547L30.875 41.3281H29.6562C28.5156 41.3281 28.4375 41.3359 28.25 41.5Z" fill="white"/>
<path d="M33.5547 41.5234C33.2734 41.7969 33.2812 42.2734 33.5625 42.4922C33.7656 42.6562 33.8359 42.6562 38 42.6562C42.4609 42.6484 42.3672 42.6562 42.5625 42.2891C42.7109 42.0156 42.6719 41.7969 42.4297 41.5547L42.2031 41.3281H37.9687H33.7422L33.5547 41.5234Z" fill="white"/>
<path d="M45.0234 41.4062C44.6484 41.5547 44.5703 42.1484 44.8828 42.4609C45.0703 42.6484 45.0937 42.6562 46.3281 42.6562C47.5625 42.6562 47.5859 42.6484 47.7734 42.4609C48.1016 42.1406 48.0156 41.6406 47.6016 41.4219C47.3984 41.3125 45.2891 41.3047 45.0234 41.4062Z" fill="white"/>
<path d="M28.1641 44.9375C27.9219 45.2188 27.9375 45.5547 28.2109 45.8203C28.3594 45.9766 28.4766 45.9766 37.9219 46L47.4844 46.0156L47.7266 45.8125C48.0391 45.5547 48.0625 45.1641 47.7734 44.8828L47.5859 44.6875H37.9766H28.375L28.1641 44.9375Z" fill="white"/>
<path d="M28.3906 48.0781C28.0625 48.2188 27.9141 48.5859 28.0469 48.9062C28.1016 49.0391 28.2109 49.1797 28.2891 49.2188C28.3672 49.2656 29.3906 49.2969 30.6875 49.2969H32.9453L33.1094 49.1172C33.3047 48.9141 33.3359 48.4766 33.1719 48.2656C32.9766 48.0078 32.6719 47.9688 30.6406 47.9688C29.1406 47.9766 28.5703 48 28.3906 48.0781Z" fill="white"/>
<path d="M35.7266 48.0859C35.4141 48.2187 35.2813 48.4609 35.3438 48.7969C35.4219 49.1797 35.6406 49.2969 36.3125 49.2969C36.9766 49.2969 37.1328 49.2344 37.2656 48.9062C37.3984 48.5781 37.25 48.2187 36.9063 48.0781C36.5781 47.9375 36.0469 47.9453 35.7266 48.0859Z" fill="white"/>
</g>
<defs>
<clipPath id="clip0_778_98">
<rect width="40" height="40" fill="white" transform="translate(20 20)"/>
</clipPath>
</defs>
</svg>
