<svg width="80" height="80" viewBox="0 0 80 80" fill="none" xmlns="http://www.w3.org/2000/svg">
<rect width="80" height="80" rx="40" fill="#3A81CF"/>
<path d="M21.2109 20.3985C20.5859 20.5782 20 21.4142 20 22.1095C20 22.547 20.1641 22.8985 20.8672 24.0392C21.5156 25.086 22.0391 25.7579 23.0469 26.836C24.5547 28.4532 24.9062 28.9376 28.0859 33.8673C31.2812 38.8204 33.2422 41.7657 33.3906 41.8204C33.8125 41.9845 34.2188 41.7423 34.2188 41.336C34.2188 41.172 33.7734 40.4298 32.6328 38.7032C30.6406 35.672 27.1953 30.3439 27.1406 30.2032C27.1094 30.1173 28.0547 29.3439 28.5703 29.0392C28.6641 28.9767 30.0312 30.1173 30.7422 30.8517C31.0625 31.1876 31.1719 31.2501 31.4141 31.2501C31.7656 31.2501 31.9531 31.0548 31.9531 30.6954C31.9531 30.3439 31.4922 29.8595 29.6875 28.3282C28.9375 27.6876 28.25 27.1017 28.1719 27.0235C28.0234 26.8829 28.0234 26.8751 28.3438 26.5314C28.9062 25.922 29.0234 25.6173 29.0234 24.7657C29.0234 24.0939 29 23.9845 28.7969 23.6095C28.5312 23.1407 28.125 22.7345 27.6641 22.5079C27.4922 22.4142 26.9219 22.2735 26.3906 22.1876C24.7812 21.9298 24.3438 21.7657 23.4141 21.0392C23.1016 20.797 22.7109 20.5392 22.5391 20.461C22.2109 20.3048 21.6094 20.2814 21.2109 20.3985ZM22.7812 22.0392C23.8516 22.8517 24.2109 22.9845 26.7109 23.4376C27.4375 23.5704 27.8906 24.0704 27.8906 24.7501C27.8906 25.1642 27.7969 25.3907 27.4922 25.7345L27.2422 26.0235L26.9766 25.5704C26.4766 24.7423 25.9141 24.2657 25.0703 23.9845C24.4062 23.7579 23.5703 23.797 22.9219 24.0939C22.6797 24.2032 22.4531 24.2814 22.4219 24.2579C22.25 24.1485 21.1719 22.2657 21.1719 22.0782C21.1719 21.7814 21.4922 21.4845 21.8047 21.4845C22 21.4845 22.2344 21.6173 22.7812 22.0392ZM24.9766 25.1798C25.4219 25.4142 25.7109 25.7189 26.0781 26.3595C26.3203 26.7814 26.6484 27.1954 27.0625 27.6017C27.3984 27.9298 27.6641 28.2189 27.6484 28.2345C27.6328 28.2501 27.3516 28.461 27.0312 28.7032L26.4453 29.1329L26.2891 28.9298C25.3594 27.711 24.7891 27.0079 24.1016 26.2501C23.6484 25.7579 23.2812 25.3126 23.2812 25.2735C23.2891 25.0079 24.5078 24.9376 24.9766 25.1798Z" fill="white"/>
<path d="M32.4453 32.625C32.2031 32.8672 32.2031 32.8984 32.7578 34.4531C33.3047 36.0078 33.3984 36.1172 34.6328 36.7188C35.1563 36.9688 35.8672 37.3594 36.2109 37.5938C36.9063 38.0625 38.1406 39.2031 38.5547 39.7656C38.7031 39.9688 38.8828 40.1641 38.9531 40.1875C39.0234 40.2109 39.3984 40.2734 39.7891 40.3125C40.7109 40.4219 41.2813 40.6719 41.7813 41.2031C42.2813 41.7344 42.5 42.3125 42.4922 43.0703C42.4844 44.0078 42.4453 44.0703 40.9141 45.6641C40.1484 46.4609 39.4688 47.1094 39.4141 47.1094C39.25 47.1094 37.1406 44.9766 36.2969 43.9688C35.5078 43.0156 35.3125 42.875 34.9531 43.0391C34.7266 43.1406 34.5859 43.4688 34.6563 43.7031C34.6875 43.7891 35.0156 44.2266 35.3828 44.6719C35.75 45.1172 36.1172 45.5625 36.1953 45.6562C36.3359 45.8281 36.3359 45.875 36.2109 46.6875C36.0156 48.0156 36.0547 49.4531 36.3594 52.2266C36.5078 53.5547 36.6172 54.6562 36.6094 54.6719C36.5938 54.6797 36.2188 54.6562 35.7656 54.6094C34.5625 54.4922 33.7266 54.6016 31.4844 55.1953C30.4297 55.4688 29.4766 55.7188 29.3672 55.7422C29.1797 55.7891 29.1484 55.7578 28.8672 55.0703C28.5313 54.2578 28.1641 53.8281 27.5938 53.5781C27.1484 53.375 26.4063 53.3594 25.9766 53.5469C25.2031 53.875 20.7266 56.3906 20.5 56.625C19.6641 57.4844 19.9531 58.9922 21.0469 59.5L21.4453 59.6875H30.2813C38.8672 59.6875 39.1406 59.6797 39.6172 59.5312C40.5703 59.2344 41.3828 58.4922 41.7266 57.5859C41.9297 57.0469 41.9219 56.7109 41.6953 56.5C41.3516 56.1719 40.8516 56.3594 40.7344 56.8516C40.5781 57.4922 40.1172 58.0391 39.4922 58.3281L39.1016 58.5156H35.2578H31.4063V57.4609C31.4063 56.8828 31.4219 56.4062 31.4297 56.4062C31.4453 56.4062 32.0234 56.2656 32.7031 56.0859C34.2813 55.6797 35.3359 55.6406 36.6172 55.9375C37.3672 56.1094 37.4219 56.1094 37.6094 55.9844C37.7188 55.9141 37.8281 55.7734 37.8594 55.6641C37.8828 55.5625 37.7578 54.1641 37.5781 52.5625C37.2578 49.6719 37.1719 47.8047 37.3281 47.1406L37.3828 46.8984L38.5547 47.9453C39.4297 48.7266 41.4141 50.3281 41.5313 50.3516C41.5391 50.3516 41.4453 51.1562 41.3203 52.1484C41.1953 53.1328 41.0938 54.0547 41.0938 54.1875C41.0938 54.6875 41.7031 54.9453 42.0547 54.5938C42.2109 54.4375 42.2578 54.2266 42.4219 52.8359C42.5234 51.9609 42.6328 51.2188 42.6563 51.1719C42.6797 51.125 43.1094 51.3047 43.6797 51.5938C44.7578 52.1562 45.6172 52.5078 46.2344 52.6562C46.4531 52.7031 46.6406 52.7578 46.6484 52.7578C46.6484 52.7656 46.6953 53.9531 46.75 55.3906C46.8438 57.7969 46.8672 58.0469 47.0234 58.3984C47.2344 58.8672 47.5 59.1641 47.9688 59.4375L48.3203 59.6484L52.0703 59.6719C54.7969 59.6875 55.9141 59.6719 56.1563 59.6016C56.5938 59.4844 57.2109 58.9297 57.3828 58.5C57.6016 57.9688 57.5703 57.2891 57.2969 56.7969C57.0703 56.3828 56.8203 56.1484 56.3281 55.8906C56.0859 55.7734 55.7266 55.7422 53.4844 55.6875C52.0703 55.6562 50.9063 55.6172 50.8984 55.6094C50.8828 55.5938 50.9453 54.7266 51.0234 53.6797C51.1641 51.8672 51.1797 51.7656 51.3516 51.6562C51.6641 51.4453 52.4219 50.6172 52.6328 50.25C52.7422 50.0469 52.8516 49.8672 52.8594 49.8516C52.875 49.8438 53.1016 50.0625 53.375 50.3516C54.2656 51.3125 55.0938 51.7578 55.9453 51.75C56.8125 51.75 57.6094 51.2422 58.7109 50C60.0234 48.5156 60.3359 46.8047 59.5859 45.2891C59.0547 44.2109 58.5313 43.8828 58.0859 44.3359C57.8438 44.5781 57.8438 44.75 58.0859 45.0859C58.3359 45.4297 58.6953 46.1016 58.6484 46.1406C58.6328 46.1562 58.375 46.0625 58.0781 45.9219C57.625 45.7109 57.4297 45.6641 56.8359 45.6406C56.1797 45.6094 56.0859 45.625 55.4141 45.8906C54.8438 46.1094 54.5781 46.1719 54.1797 46.1719C53.8984 46.1719 53.6719 46.1484 53.6719 46.1094C53.6719 45.9453 54.1719 45.2266 54.4844 44.9375C54.8672 44.5859 55.5469 44.2188 55.8281 44.2188C56.1016 44.2188 56.4844 44.0547 56.5625 43.9062C56.7969 43.4609 56.4922 43.0469 55.9297 43.0469C55.5156 43.0469 54.6719 43.3359 54.2578 43.6172C53.5469 44.1016 52.7891 45.0234 52.5781 45.6719C52.4922 45.9219 52.4766 45.9375 52.3516 45.8281C52.0859 45.5859 51.1797 45.2344 50.3906 45.0703C49.7109 44.9219 49.2734 44.8906 47.8516 44.875C46.9063 44.8672 45.9141 44.8203 45.6563 44.7734C45.2578 44.6953 44.2266 44.3828 43.7422 44.1875C43.6406 44.1406 43.625 44 43.6563 43.2578C43.6953 42.2969 43.5625 41.75 43.1406 41.0234C42.5156 39.9609 41.0703 39.1406 39.8047 39.1406C39.6016 39.1406 39.4922 39.0547 39.1016 38.5938C38.1719 37.5 36.875 36.5234 35.375 35.7812C34.8672 35.5391 34.4063 35.2891 34.3438 35.2422C34.2813 35.1875 34.0938 34.75 33.9375 34.2734C33.4141 32.6953 33.25 32.4219 32.8125 32.4219C32.7266 32.4219 32.5625 32.5156 32.4453 32.625ZM45.3203 45.9062C45.7266 45.9922 46.4297 46.0312 47.6953 46.0469C50.1328 46.0781 50.9844 46.25 51.6406 46.8438C52.0313 47.1953 52.2266 47.6875 52.1641 48.1875C52.1016 48.6953 51.8438 49.3672 51.5391 49.7734L51.2891 50.1172L51.2422 49.7266C51.1484 48.9453 50.7031 48.3281 49.9844 47.9766C49.1328 47.5469 48.0938 47.6719 47.3906 48.2891C47.1953 48.4609 46.9453 48.7969 46.8203 49.0469C46.6094 49.4688 46.6016 49.5469 46.6094 50.5312C46.6094 51.7266 46.7422 51.6406 45.5859 51.1953C44.6563 50.8438 43.4453 50.1953 42.3828 49.4922C41.5078 48.9062 40.4531 48.0938 40.4063 47.9688C40.3906 47.9297 40.9688 47.2891 41.6953 46.5391L43 45.1797L43.875 45.4766C44.3516 45.6406 45.0078 45.8359 45.3203 45.9062ZM57.5 46.9453C57.9688 47.125 58.6719 47.625 58.6719 47.7812C58.6719 48.3359 57.2266 50.0469 56.4453 50.4375C55.9766 50.6641 55.75 50.6484 55.1953 50.3672C54.7578 50.1484 53.8203 49.1797 53.6094 48.7188C53.5078 48.5 53.4063 48.1172 53.3828 47.8203L53.3438 47.3047L54.2266 47.2969C55.0391 47.2969 55.1641 47.2734 55.7031 47.0469C56.3984 46.7578 56.9297 46.7266 57.5 46.9453ZM49.5625 49.0547C50.1563 49.4531 50.1641 49.5625 49.8828 53.2422C49.7734 54.6172 49.6875 55.9062 49.6875 56.1016C49.6875 56.6641 49.8359 56.75 50.8828 56.7969L51.7578 56.8359L51.7813 57.6719L51.8047 58.5156H50.2734C48.6016 58.5156 48.4297 58.4766 48.1641 58.0703C48.0313 57.875 48 57.4531 47.875 53.8359C47.7344 49.9219 47.7344 49.8125 47.875 49.5391C48.0938 49.125 48.4531 48.9062 48.9375 48.9062C49.1953 48.9062 49.4141 48.9609 49.5625 49.0547ZM27.2656 54.7578C27.375 54.8359 27.5391 55.0391 27.6328 55.2109L27.8125 55.5234L27.3438 55.5703C27.0859 55.5938 26.7109 55.6875 26.5078 55.7891C25.7266 56.1641 24.9766 57.2422 24.8672 58.125L24.8203 58.5156H23.2344C22.3672 58.5156 21.5937 58.4922 21.5234 58.4688C21.375 58.4062 21.1719 58.0391 21.1719 57.8203C21.1719 57.7344 21.25 57.5781 21.3437 57.4688C21.5156 57.2812 26.0859 54.7266 26.4844 54.6016C26.7344 54.5234 27.0156 54.5781 27.2656 54.7578ZM28 56.8438C28.4688 56.9688 29.3203 56.9609 29.9844 56.8281L30.2344 56.7812V57.6484V58.5156H28.125H26.0156V58.3359C26.0156 58.0625 26.3672 57.4062 26.6484 57.1406C27.1484 56.6797 27.2656 56.6562 28 56.8438ZM55.6953 56.9219C56.2031 57.0234 56.4844 57.5469 56.2891 58.0156C56.0938 58.4844 55.9766 58.5156 54.3984 58.5156H52.9688V57.6953V56.875H54.2109C54.8906 56.875 55.5547 56.8984 55.6953 56.9219Z" fill="white"/>
</svg>
