<svg width="80" height="80" viewBox="0 0 80 80" fill="none" xmlns="http://www.w3.org/2000/svg">
<rect width="80" height="80" rx="40" fill="#3A81CF"/>
<path d="M50.4297 23.4375C49.2578 23.6875 48.1953 24.3906 47.5312 25.3515L47.2422 25.7812L47.0391 25.6484C46.9297 25.5703 46.5625 25.3437 46.2266 25.1484C44.375 24.0234 42.0625 23.7266 39.9766 24.3359C38.3984 24.7969 37.5312 25.3594 35.75 27.0937C35.0156 27.8125 31.1875 31.539 27.25 35.375C23.3047 39.2109 20.0625 42.4297 20.0391 42.5234C20.0156 42.6172 20 44.2734 20.0156 46.2109C20.0391 49.6406 20.0469 49.7344 20.2109 50.0391C20.3047 50.2109 20.4922 50.4609 20.6406 50.5937C20.8984 50.8359 29.1328 56.2031 29.7266 56.5156C30.1641 56.7422 31.0078 56.7422 31.4453 56.5078C31.6172 56.4219 33.8984 54.5625 36.5234 52.3828C39.7969 49.6641 41.4922 48.3047 41.9531 48.0391C44.2891 46.6797 47.3594 46.1953 50.5859 46.6875C52.7344 47.0078 54.6406 46.6172 56.3672 45.5078C57.1719 44.9844 57.6562 44.5547 58.2109 43.8516C59.6406 42.0547 60.2656 39.625 59.8828 37.375C59.4453 34.8515 58.0703 32.8672 55.8984 31.6406C54.8125 31.0156 54.8672 31.1172 55.2578 30.539C56.9062 28.0703 55.7266 24.6172 52.8906 23.6172C52.25 23.3984 51.0312 23.3047 50.4297 23.4375ZM52.1484 24.8047C52.7891 24.9765 53.2969 25.2734 53.7422 25.7422C54.6172 26.664 54.8906 27.8984 54.4922 29.1015C54.3594 29.5078 53.9141 30.2344 53.8047 30.2344C53.7578 30.2344 53.0469 29.7812 52.75 29.5703C52.7422 29.5625 52.8516 29.3515 53 29.1094C53.5234 28.2344 53.4297 27.3281 52.7344 26.6406C52.0703 25.9765 51.2109 25.8515 50.3672 26.3047C50.0234 26.5 49.6016 26.9375 49.5078 27.2109C49.4922 27.2656 49.2656 27.164 48.9141 26.9297L48.3594 26.5625L48.4844 26.3125C48.6797 25.9375 49.3828 25.2812 49.8125 25.0703C50.5937 24.6953 51.375 24.6094 52.1484 24.8047ZM43.5937 25.5078C44.9609 25.8281 44.9141 25.8047 49.9531 29.2578L51.8828 30.5859L51.3281 30.6406C50 30.7812 48.6484 31.2656 47.4922 32.0234C47.1406 32.2578 44.5469 34.8125 38.7891 40.5937L30.5859 48.8281L26.1875 45.75C23.7656 44.0625 21.7734 42.6562 21.7578 42.6406C21.7109 42.5937 37.5078 27.2265 38.0703 26.7734C38.7969 26.1875 39.9453 25.6562 40.8672 25.4765C41.4531 25.3594 43.0391 25.3828 43.5937 25.5078ZM51.8047 27.5469C52.1172 27.8281 52.0625 28.3125 51.6797 28.5625C51.4922 28.6797 51.4687 28.6797 51.0937 28.4375C50.6094 28.125 50.5625 27.8672 50.9531 27.539C51.2266 27.3125 51.5469 27.3125 51.8047 27.5469ZM53.75 32.1875C56.0781 32.8359 57.8203 34.6015 58.4531 36.9531C58.7031 37.8984 58.7031 39.5156 58.4531 40.4687C57.75 43.0859 55.6797 44.9609 53.0156 45.3906C52.3594 45.5 51.5469 45.4687 49.9609 45.2734C48.6953 45.1172 46.8281 45.1484 45.6641 45.3437C44.0469 45.625 42.4219 46.2109 41.125 46.9844C40.7344 47.2187 38.7187 48.8281 35.9297 51.1484L31.3672 54.9297L31.3437 52.4531L31.3281 49.9844L39.4687 41.7812C43.9531 37.2656 47.8281 33.4219 48.0859 33.2422C48.9375 32.6328 49.8125 32.2656 50.8828 32.0625C51.6484 31.914 52.9922 31.9765 53.75 32.1875ZM26.2266 47.4062L30 50.0391V52.5937V55.1484L25.8437 52.4531C23.5547 50.9687 21.6016 49.6719 21.5078 49.5625C21.3281 49.3672 21.3281 49.3594 21.3281 46.6719V43.9766L21.8984 44.3828C22.2031 44.6016 24.1562 45.9609 26.2266 47.4062Z" fill="white"/>
<path d="M36.6328 30.0703C36.4453 30.1953 35.789 30.7969 35.1796 31.4141C34 32.6172 33.8281 32.8985 33.9375 33.4766C34.0468 34.0391 34.2421 34.1953 36.7343 35.6875C39.289 37.2188 39.5078 37.3125 40.0937 37.1172C40.2734 37.0547 40.7812 36.6094 41.6562 35.7188C42.7422 34.6328 42.9687 34.3594 43.039 34.0782C43.1484 33.6953 43.0547 33.2578 42.8125 32.9453C42.6953 32.7969 38.75 30.3672 37.914 29.9297C37.5859 29.7657 37.0156 29.8203 36.6328 30.0703ZM39.5468 32.4375C40.7187 33.1328 41.6953 33.711 41.7187 33.7266C41.7343 33.7422 41.2812 34.2266 40.7031 34.8047L39.6484 35.8594L37.539 34.6016C36.375 33.9141 35.3984 33.3125 35.3515 33.2735C35.3046 33.2266 35.6406 32.836 36.289 32.1875C36.8437 31.625 37.3281 31.1719 37.3593 31.1719C37.3906 31.1719 38.375 31.7422 39.5468 32.4375Z" fill="white"/>
<path d="M50.8906 33.3985C49.6562 33.6641 48.0469 34.711 48.0469 35.2422C48.0469 35.461 48.25 35.8282 48.3984 35.8907C48.7031 36.0078 48.9765 35.9297 49.3437 35.625C51.0156 34.25 53.2422 34.2813 54.7344 35.7188C55.6094 36.5547 55.9765 37.3985 55.9765 38.5938C55.9765 39.7032 55.664 40.4844 54.9297 41.2813C54.4609 41.7813 54.0312 42.0703 53.3828 42.3203C52.9297 42.5 52.7187 42.5313 51.9531 42.5391C50.9844 42.5547 50.7344 42.625 50.6562 42.9219C50.5 43.5625 50.8125 43.8438 51.7422 43.8907C53.4531 43.9766 55.2187 43.1797 56.2187 41.8516C57.7031 39.8907 57.7031 37.2969 56.2187 35.336C55.2656 34.0782 53.5937 33.2735 51.9765 33.2891C51.6406 33.2891 51.1562 33.3438 50.8906 33.3985Z" fill="white"/>
<path d="M46.5938 36.6171C46.5078 36.6328 46.211 36.875 45.9375 37.1484C45.5078 37.5859 45.4375 37.6953 45.4375 37.9375C45.4375 38.1562 45.4922 38.2656 45.6563 38.4062C46.0156 38.7265 46.2735 38.664 46.836 38.1171C47.375 37.6015 47.5 37.3203 47.3281 36.9843C47.2188 36.75 46.8594 36.5781 46.5938 36.6171Z" fill="white"/>
<path d="M47.4687 42.3359C47.1016 42.375 46.9766 42.4297 46.8203 42.6094C46.5781 42.8906 46.6172 43.2344 46.9219 43.4922C47.0859 43.6406 47.2109 43.6719 47.6406 43.6719C48.7109 43.6641 49.1406 43.4609 49.1406 42.9609C49.1406 42.8438 49.0625 42.6484 48.9609 42.5313C48.8047 42.3594 48.7031 42.3125 48.3515 42.2969C48.1172 42.2891 47.7265 42.3047 47.4687 42.3359Z" fill="white"/>
<path d="M22.8593 47.8984C22.625 48.1719 22.6015 48.4063 22.7734 48.6563C22.9765 48.9375 27.7578 51.875 28.0156 51.875C28.2734 51.8672 28.4531 51.7578 28.5781 51.5078C28.7187 51.25 28.6953 51.0469 28.5 50.8203C28.3984 50.7109 27.25 49.9531 25.9375 49.1406C23.3125 47.5078 23.2187 47.4688 22.8593 47.8984Z" fill="white"/>
</svg>
