<svg width="80" height="80" viewBox="0 0 80 80" fill="none" xmlns="http://www.w3.org/2000/svg">
<rect width="80" height="80" rx="40" fill="#3A81CF"/>
<path d="M23.2423 28.8591C22.7188 29.0857 22.422 29.6872 22.5313 30.2732C22.6016 30.6404 22.9923 31.07 23.3438 31.1716C23.5391 31.2341 26.4766 31.2497 32.672 31.2341C41.6563 31.2107 41.711 31.2107 41.922 31.0466C42.336 30.7419 42.461 30.4919 42.461 29.9997C42.461 29.5075 42.336 29.2575 41.922 28.9529C41.711 28.7888 41.6641 28.7888 32.5938 28.7732C25.1329 28.7575 23.4298 28.7732 23.2423 28.8591Z" fill="white"/>
<path d="M55.7268 35.0702C55.594 35.1562 53.1331 38.0937 50.2659 41.5937C47.3987 45.1015 45.0315 47.9687 45.0003 47.9687C44.969 47.9687 43.7581 46.5468 42.3128 44.8046C40.8674 43.0702 39.5862 41.5781 39.4768 41.4921C38.6018 40.7968 37.2503 41.7421 37.5706 42.8202C37.7034 43.2577 44.094 50.9374 44.4846 51.1249C44.8284 51.289 45.1799 51.2812 45.5237 51.1171C45.7268 51.0234 47.2346 49.2343 51.5628 43.9452C54.7346 40.0702 57.3831 36.789 57.4612 36.6406C57.9768 35.6406 56.6956 34.4843 55.7268 35.0702Z" fill="white"/>
<path d="M23.2423 35.1091C22.7188 35.3357 22.422 35.9372 22.5313 36.5232C22.6016 36.8904 22.9923 37.32 23.3438 37.4216C23.5391 37.4841 26.4766 37.4997 32.672 37.4841C41.6563 37.4607 41.711 37.4607 41.922 37.2966C42.336 36.9919 42.461 36.7419 42.461 36.2497C42.461 35.7575 42.336 35.5075 41.922 35.2029C41.711 35.0388 41.6641 35.0388 32.5938 35.0232C25.1329 35.0075 23.4298 35.0232 23.2423 35.1091Z" fill="white"/>
<path d="M23.2423 41.3591C22.7188 41.5857 22.422 42.1872 22.5313 42.7732C22.6016 43.1404 22.9923 43.57 23.3438 43.6716C23.5391 43.7341 25.1641 43.7497 28.297 43.7341C32.8673 43.7107 32.961 43.7107 33.172 43.5466C33.586 43.2419 33.711 42.9919 33.711 42.4997C33.711 42.0076 33.586 41.7576 33.172 41.4529C32.961 41.2888 32.8673 41.2888 28.2188 41.2732C24.3985 41.2576 23.4298 41.2732 23.2423 41.3591Z" fill="white"/>
</svg>
