<svg width="80" height="80" viewBox="0 0 80 80" fill="none" xmlns="http://www.w3.org/2000/svg">
<rect width="80" height="80" rx="40" fill="#3A81CF"/>
<path d="M37.0702 20.2423C36.5468 20.5626 34.4374 22.7111 33.4999 23.8751C31.9374 25.8204 31.0312 27.3517 30.9609 28.1954C30.914 28.7423 31.1327 29.7111 31.5234 30.6329C32.0234 31.8361 33.3593 33.8986 34.5624 35.3439L35.1405 36.0392L35.1796 40.9689C35.2109 45.2814 35.2343 46.0782 35.3749 47.3048C36.2421 54.8829 37.8124 60.4532 38.9374 59.9376C39.3671 59.7423 39.4218 58.2032 39.1405 54.3361C38.9374 51.6095 38.9609 49.5314 39.2109 47.422C39.3749 46.0626 39.5937 44.6017 39.6484 44.547C39.6952 44.5001 40.1718 44.6642 41.4452 45.1798C43.3905 45.9532 44.3749 46.4923 44.3749 46.7814C44.3749 47.0157 43.6562 47.5392 41.9843 48.5392C40.5312 49.4064 40.1327 49.6876 39.953 49.9611C39.828 50.1564 39.828 50.172 39.9843 50.3282C40.7655 51.1095 45.5077 49.6564 48.203 47.8048C48.9843 47.2736 49.1015 47.1329 49.0312 46.7657C48.8749 45.9376 46.8905 43.8986 44.1327 41.7423L43.6171 41.3361L43.5702 38.672L43.5233 36.0079L44.0077 35.4454C45.914 33.2423 47.3905 30.8829 47.8202 29.3361C48.203 27.9376 47.7655 26.3829 46.4608 24.5157C45.1171 22.6095 42.8437 20.5782 41.6015 20.1876C41.1952 20.0548 41.164 20.0548 41.0312 20.1798C40.9062 20.3048 40.914 20.3361 41.078 20.6486C41.1718 20.8282 41.7265 21.5861 42.3046 22.3361C44.5858 25.2579 45.289 26.6017 45.2187 27.922C45.1952 28.3751 45.1405 28.5939 44.8749 29.1407C44.2968 30.3361 42.9921 31.9767 42.3984 32.2501C41.7421 32.5626 37.328 32.5392 36.7265 32.2267C36.6093 32.172 36.2499 31.8126 35.9296 31.4454C34.5312 29.8048 33.9609 28.8361 33.9687 28.0782C33.9765 27.1954 34.5937 25.8126 36.1718 23.1251C36.6093 22.3751 37.1093 21.4923 37.2812 21.172C37.5859 20.5939 37.6952 20.0861 37.539 20.0236C37.4921 20.0079 37.2812 20.1095 37.0702 20.2423Z" fill="white"/>
<path d="M38.8514 24.8752C37.6483 25.2658 36.8748 26.2893 36.8514 27.5002C36.8436 28.1564 36.9764 28.6096 37.328 29.1408C37.8826 29.9611 38.953 30.4611 39.9217 30.3518C40.8748 30.2424 41.7811 29.5939 42.1795 28.7502C42.3514 28.383 42.3827 28.2111 42.3827 27.5783C42.3827 26.9377 42.3514 26.7736 42.1717 26.3908C41.9061 25.8205 41.3592 25.2736 40.7967 25.0158C40.2655 24.7736 39.3592 24.7033 38.8514 24.8752Z" fill="white"/>
</svg>
