<svg width="80" height="80" viewBox="0 0 80 80" fill="none" xmlns="http://www.w3.org/2000/svg">
<rect width="80" height="80" rx="40" fill="#3A81CF"/>
<path d="M38.5157 24.0629C34.7344 24.4535 31.3516 26.0551 28.7032 28.7035C24.8751 32.5316 23.2579 37.9223 24.336 43.2426C24.6876 44.9769 25.5313 47.0707 26.4532 48.5082L26.8204 49.0785L25.3985 51.9457C24.6173 53.516 23.9766 54.891 23.9844 55.0004C23.9923 55.5473 24.5626 56.0551 25.0782 55.9848C25.2266 55.9691 26.5938 55.3207 28.1173 54.5473L30.8751 53.141L31.4766 53.5316C32.8985 54.4613 35.1329 55.3598 36.8985 55.6957C42.1719 56.7191 47.5079 55.0863 51.2969 51.2973C56.0626 46.5316 57.3282 39.4223 54.5079 33.2582C53.7813 31.6801 52.6094 30.016 51.2969 28.7035C48.8516 26.266 45.7657 24.6957 42.3594 24.1801C41.4141 24.0316 39.3907 23.9691 38.5157 24.0629ZM41.8048 26.1332C44.5391 26.4926 47.0001 27.5863 49.1251 29.3988C51.5157 31.4301 53.211 34.4066 53.7969 37.6176C54.0001 38.7191 54.0001 41.2816 53.7969 42.3832C52.8438 47.6332 49.086 51.8676 44.0313 53.391C42.5391 53.8441 41.8126 53.9457 39.9219 53.9379C38.4063 53.9379 38.1485 53.9144 37.2579 53.7269C35.4219 53.3363 33.7423 52.641 32.2891 51.6644C31.3751 51.0473 31.086 50.9223 30.7969 50.9848C30.6798 51.0082 29.8438 51.4144 28.9298 51.8832L27.2735 52.7348L27.8048 51.6254C28.1016 51.0082 28.4844 50.2191 28.6641 49.8676C28.8438 49.5004 28.9844 49.1098 28.9844 48.9691C28.9844 48.7738 28.8282 48.4691 28.3907 47.8129C26.6954 45.2426 25.9298 42.5473 26.0391 39.5316C26.086 38.1332 26.2423 37.1879 26.6094 35.9691C28.2188 30.6332 32.7579 26.8285 38.3594 26.1019C39.1798 25.9926 40.9141 26.0082 41.8048 26.1332Z" fill="white"/>
<path d="M37.6643 33.5005C37.1643 33.7661 37.1096 33.9927 37.1096 35.6411V37.1099H35.6408C33.9924 37.1099 33.7658 37.1646 33.5002 37.6646C33.3752 37.8989 33.3596 38.1411 33.3596 39.9849C33.3596 42.9771 33.258 42.8442 35.5158 42.8755L37.1096 42.8989V44.3599C37.1096 46.0083 37.1643 46.2349 37.6643 46.5005C37.8986 46.6255 38.1408 46.6411 40.0002 46.6411C41.8596 46.6411 42.1018 46.6255 42.3362 46.5005C42.8362 46.2349 42.8908 46.0083 42.8908 44.3599V42.8989L44.4846 42.8755C46.7424 42.8442 46.6408 42.9771 46.6408 39.9849C46.6408 38.1411 46.6252 37.8989 46.5002 37.6646C46.2346 37.1646 46.008 37.1099 44.3596 37.1099H42.8908V35.6411C42.8908 33.9927 42.8362 33.7661 42.3362 33.5005C42.1018 33.3755 41.8596 33.3599 40.0002 33.3599C38.1408 33.3599 37.8986 33.3755 37.6643 33.5005ZM40.8596 36.8599C40.8596 39.1099 40.8908 39.1411 43.1408 39.1411H44.6096V40.0396V40.938H43.1096C40.8752 40.938 40.8596 40.9536 40.8596 43.2036V44.6099H40.0002H39.1408V43.1411C39.1408 41.4927 39.0861 41.2739 38.5861 40.9927C38.344 40.8599 38.1877 40.8521 36.8596 40.8833L35.3908 40.9146V40.0317V39.1411H36.844C39.1018 39.1411 39.094 39.1489 39.1252 36.9302L39.1486 35.3911H40.008H40.8596V36.8599Z" fill="white"/>
</svg>
