<svg width="80" height="80" viewBox="0 0 80 80" fill="none" xmlns="http://www.w3.org/2000/svg">
<rect width="80" height="80" rx="40" fill="#3A81CF"/>
<path d="M54.7891 21.7109C54.1328 21.8828 53.4532 22.3359 53.0313 22.8984C52.9141 23.0469 51.5547 25.3281 50 27.9688C48.4453 30.6094 47.1407 32.8047 47.1016 32.8438C47.0625 32.8906 47.0313 32.3047 47.0313 31.3594V29.8047L43.0078 25.7812L38.9844 21.7578H36.836C34.7344 21.7578 34.6875 21.7578 34.5235 21.9297C34.2891 22.1641 34.2891 22.5547 34.5235 22.75C34.6875 22.875 34.8672 22.8906 36.4141 22.8906H38.1172L38.1407 26.1875C38.1641 29.9062 38.1563 29.8516 38.7735 30.3438L39.0782 30.5859L42.4688 30.6094L45.8594 30.6328V33.7812V36.9297L43.461 41.0078L41.0625 45.0781L33.3907 45.0938C25.9688 45.1172 25.711 45.125 25.5547 45.2656C25.3438 45.4609 25.336 45.8828 25.5469 46.0938C25.7032 46.25 25.8047 46.25 33.0078 46.25C37.0235 46.25 40.3125 46.2734 40.3125 46.3047C40.3125 46.3438 40.0313 46.8359 39.6875 47.4141C39.0078 48.5625 38.9297 48.875 39.1875 49.4219L39.3125 49.6797L38.75 50.6328C38.4375 51.1562 38.1407 51.6953 38.0782 51.8438C37.7578 52.6094 38.1563 53.4688 39.0235 53.875C39.5078 54.1016 40 54.1172 40.4375 53.8984C40.836 53.7109 40.9766 53.5234 41.6797 52.3281C42.211 51.4297 42.2266 51.4062 42.5 51.4062C42.6485 51.4062 42.9141 51.3281 43.0782 51.2266C43.3438 51.0781 43.5469 50.7734 44.6016 48.9922L45.8203 46.9297L45.8438 51.9609C45.8516 54.7266 45.8438 57.0391 45.8203 57.0859C45.7735 57.2266 21.4063 57.2344 21.2657 57.0938C21.1953 57.0234 21.1719 53.1797 21.1719 40.2812C21.1719 23.8516 21.1719 23.5469 21.3282 23.3047C21.4297 23.1406 21.5703 23.0312 21.7735 22.9766C21.9688 22.9219 23.8516 22.8906 27.25 22.8906C32.3203 22.8906 32.4219 22.8906 32.5782 22.7344C32.7735 22.5391 32.7813 22.1797 32.586 21.9453L32.4375 21.7578H26.9766C20.9063 21.7578 21.2735 21.7266 20.6407 22.3047C20.4297 22.4844 20.2657 22.7422 20.1563 23.0156C20 23.4453 20 23.4766 20.0157 40.4219L20.0391 57.3984L20.2657 57.7188C20.3907 57.8984 20.625 58.1094 20.8125 58.2031C21.1407 58.3594 21.2344 58.3594 33.5469 58.3594C45.7735 58.3594 45.9453 58.3594 46.25 58.2031C46.4141 58.1172 46.6485 57.9219 46.7735 57.7578L46.9922 57.4766L47.0313 51.1406L47.0703 44.8047L47.7188 43.7031C48.0703 43.1016 48.3594 42.5156 48.3594 42.4062C48.3594 41.8906 47.75 41.6641 47.3907 42.0391C47.2891 42.1406 46.1641 44.0078 44.8828 46.1953C43.6016 48.375 42.5157 50.1562 42.4688 50.1562C42.2813 50.1562 40.2735 48.9141 40.2813 48.8047C40.2891 48.7109 47.5547 36.2969 47.75 36.0391C47.8516 35.9062 50.1016 37.2422 50.0391 37.4062C50.0157 37.4688 49.6953 38.0312 49.3282 38.6562C48.5469 39.9844 48.5 40.1406 48.7735 40.4219C49 40.6484 49.2578 40.6797 49.5078 40.5078C49.5938 40.4453 50 39.8281 50.3985 39.1406C51.0938 37.9531 51.1485 37.8828 51.336 37.9219C51.6407 37.9766 52.1172 37.8281 52.3594 37.6016C52.4766 37.4922 53.8438 35.2266 55.4063 32.5703C56.9688 29.9141 58.2657 27.7422 58.2969 27.7344C58.3203 27.7344 58.4375 27.9219 58.5547 28.1562C58.8282 28.7109 58.8907 29.3281 58.7188 29.8359C58.6485 30.0547 57.711 31.7344 56.625 33.5625C55.5469 35.3984 54.625 36.9922 54.5782 37.125C54.4141 37.5703 54.9063 38.0312 55.336 37.8359C55.4688 37.7734 56.1407 36.7031 57.5782 34.2656C58.7032 32.3516 59.6953 30.6016 59.7735 30.3906C60.1953 29.2734 59.961 27.8828 59.1797 26.9766L58.9063 26.6484L59.0625 26.2578C59.4844 25.1719 59.25 23.8672 58.4688 23.0234C58.125 22.6484 57.4141 22.1641 56.8282 21.9062C56.3282 21.6797 55.2813 21.5859 54.7891 21.7109ZM56.6172 23.125C56.9532 23.2969 57.3438 23.5547 57.4844 23.6953C58 24.1875 58.2266 24.9453 58.0547 25.5938C57.9844 25.8516 51.7578 36.5625 51.5782 36.7344C51.5313 36.7734 47.8047 34.6328 47.6328 34.4609C47.6016 34.4297 48.9766 32.0156 50.6875 29.0938C53.9375 23.5547 54.2422 23.1016 54.8438 22.9141C54.9922 22.8672 55.3203 22.8281 55.5625 22.8203C55.9375 22.8125 56.1016 22.8594 56.6172 23.125ZM42.2266 26.6406L45.0391 29.4531H42.25C39.5703 29.4531 39.4532 29.4453 39.375 29.3047C39.2813 29.125 39.2657 23.8281 39.3594 23.8281C39.3907 23.8281 40.6797 25.0938 42.2266 26.6406ZM41.125 50.7891C41.1563 50.8203 40.9844 51.1875 40.7422 51.6172C40.125 52.6641 39.9532 52.8906 39.7344 52.8906C39.5078 52.8906 39.1407 52.6094 39.1407 52.4375C39.1407 52.3203 39.6953 51.2969 40.1328 50.6016L40.3203 50.3047L40.6875 50.5156C40.8907 50.6328 41.086 50.7578 41.125 50.7891Z" fill="white"/>
<path d="M25.5469 33.75C25.336 33.9609 25.3438 34.3828 25.5547 34.5781C25.711 34.7188 25.961 34.7266 33.5313 34.7266H41.3438L41.5313 34.5078C41.7578 34.2422 41.7656 34.0703 41.5547 33.7969L41.3985 33.5938H33.5469C25.8047 33.5938 25.7031 33.5938 25.5469 33.75Z" fill="white"/>
<path d="M25.5625 37.5781C25.336 37.789 25.336 38.2031 25.5547 38.4062C25.711 38.5468 25.9766 38.5546 33.4297 38.5781C38.9063 38.5937 41.1953 38.5703 41.3438 38.5078C41.75 38.3437 41.7969 37.7109 41.4141 37.5078C41.3125 37.4453 38.8203 37.4218 33.5 37.4218C25.7891 37.4218 25.7344 37.4218 25.5625 37.5781Z" fill="white"/>
<path d="M25.5938 41.4141C25.3282 41.625 25.3125 42.0156 25.5704 42.25L25.75 42.4219H33.5313C41.0157 42.4219 41.3204 42.4141 41.4922 42.2734C41.7422 42.0703 41.7422 41.6016 41.4922 41.3984C41.3204 41.2578 41.0157 41.25 33.5547 41.25C25.8282 41.25 25.8047 41.25 25.5938 41.4141Z" fill="white"/>
<path d="M30.461 49.2813C30.0547 49.5547 27.75 51.5625 27.7032 51.6875C27.5547 52.0703 27.8282 52.5 28.2188 52.5C28.4532 52.5 28.5391 52.4375 29.8907 51.2734C30.461 50.7891 30.9454 50.3906 30.9766 50.3906C31.0079 50.3906 31.461 50.7891 31.9844 51.2813C33.0469 52.2734 33.1485 52.3438 33.5704 52.3438C33.8829 52.3438 34.0469 52.2578 34.6329 51.7656L35 51.4609L35.6797 51.9844C36.3438 52.5 36.5782 52.5781 36.875 52.4219C37.086 52.3125 37.1954 51.9375 37.0782 51.7109C36.9532 51.4609 35.4922 50.3203 35.1954 50.25C34.8282 50.1484 34.6563 50.2188 34.1094 50.6719C33.8282 50.9063 33.5782 51.0938 33.5469 51.0938C33.5157 51.0938 33.0704 50.6953 32.5469 50.2109C32.0313 49.7188 31.5235 49.2813 31.4297 49.2344C31.1797 49.1016 30.6954 49.125 30.461 49.2813Z" fill="white"/>
</svg>
