<svg width="80" height="80" viewBox="0 0 80 80" fill="none" xmlns="http://www.w3.org/2000/svg">
<rect width="80" height="80" rx="40" fill="#3A81CF"/>
<g clip-path="url(#clip0_615_1681)">
<path d="M34.3428 47.9351V44.4941H35.2598C35.7225 44.4941 36.086 44.119 36.086 43.6608C36.086 43.2025 35.7225 42.8276 35.2598 42.8276H26.0149C25.5605 42.8276 25.1887 43.2025 25.1887 43.6608C25.1887 44.119 25.5605 44.4941 26.0149 44.4941H26.9402V47.9351C23.3629 49.3682 21 52.7595 21 56.5423V59.1668C21 59.6251 21.3635 60 21.8262 60H39.4569C39.9112 60 40.283 59.6251 40.283 59.1668V56.5423C40.283 52.7595 37.9202 49.3766 34.3428 47.9351Z" fill="white"/>
<path d="M57.1563 20.4827C55.6895 19.5836 53.6821 19.9451 51.3512 21.5291V21.5293C50.2814 22.2561 49.1922 23.2106 48.1151 24.366C48.1143 24.3668 48.1135 24.3676 48.1127 24.3685C46.7145 25.8683 45.4187 27.6027 44.2618 29.5232C40.3406 36.0294 39.3054 42.2695 41.5996 44.6919L39.9397 47.4462C39.7025 47.8394 39.8267 48.3518 40.2164 48.5908C40.3503 48.673 40.4988 48.7123 40.6448 48.7123C40.924 48.7123 41.1959 48.5697 41.3516 48.3115L43.008 45.5631C43.3239 45.6548 43.6568 45.7041 44.0076 45.7041C46.8065 45.7039 50.6138 42.8303 53.9653 37.9887C53.9726 37.9779 53.9799 37.9672 53.9871 37.956C53.9871 37.9558 53.9871 37.9556 53.9879 37.9554V37.9552C54.0089 37.9212 54.0283 37.886 54.0444 37.85C54.1114 37.7001 54.1348 37.5292 54.1033 37.3571C54.0968 37.3187 54.0864 37.2804 54.0742 37.243C54.0234 37.0888 53.9306 36.9586 53.8128 36.8618V36.8616L53.812 36.8612C53.7677 36.8249 53.7209 36.7936 53.6708 36.7676C53.5006 36.6787 53.2973 36.649 53.098 36.6974C53.098 36.6974 53.098 36.6974 53.0972 36.6976C53.0972 36.6976 53.0972 36.6976 53.0964 36.6978C53.0964 36.6978 53.0956 36.698 53.0948 36.6982L47.5245 38.0687L48.9911 35.6351L56.0558 33.8971C56.4334 33.8043 56.6859 33.4636 56.6859 33.0885C56.6859 33.023 56.6786 32.9565 56.6625 32.8902C56.5544 32.4426 56.1066 32.1699 55.6637 32.2783L50.2048 33.6213L51.6714 31.1877L57.7001 29.7046C57.7001 29.7046 57.7009 29.7044 57.7017 29.7042C57.7025 29.704 57.7025 29.704 57.7033 29.7038C57.9026 29.6539 58.0664 29.5352 58.1769 29.3789C58.2027 29.3423 58.2253 29.3035 58.2455 29.2626C58.2689 29.2148 58.2874 29.1647 58.302 29.1131C59.5364 24.8319 59.1193 21.6864 57.1563 20.4827ZM55.4654 21.6841L53.3733 25.1557L52.7551 22.6013C53.8016 21.9652 54.7337 21.6569 55.4654 21.6841ZM51.3045 23.6349L52.1595 27.1696L50.6991 29.5927L49.6255 25.1848C50.187 24.6046 50.7486 24.0865 51.3045 23.6349ZM45.6737 30.3885C46.4805 29.0494 47.3567 27.8077 48.2886 26.6816L49.4879 31.6027L42.5148 43.1731C41.391 41.2056 42.2615 36.0501 45.6737 30.3885ZM51.2351 38.871C48.4166 42.3415 45.6119 44.0724 43.9357 44.0238L46.3108 40.0825L51.2351 38.871ZM56.8384 28.2013L52.885 29.1739L56.8728 22.557C57.4913 23.6504 57.4976 25.6972 56.8384 28.2013Z" fill="white"/>
</g>
<defs>
<clipPath id="clip0_615_1681">
<rect width="40" height="40" fill="white" transform="translate(20 20)"/>
</clipPath>
</defs>
</svg>
