<svg width="80" height="80" viewBox="0 0 80 80" fill="none" xmlns="http://www.w3.org/2000/svg">
<rect width="80" height="80" rx="40" fill="#3A81CF"/>
<path d="M51.068 43.106C45.1747 42.7607 42.3733 43.7251 39.8449 44.5616C37.3169 45.3985 36.0249 46.2713 32.0053 46.3256C24.2564 46.3438 20 42.5967 20 42.5967C23.1107 46.5265 25.4382 47.7811 28.1311 48.654C30.8231 49.5273 34.2609 49.5638 36.9351 48.8722C39.6089 48.1811 42.5742 46.5078 48.1947 45.8527C53.8151 45.1976 60 46.3256 60 46.3256C60 46.3256 56.9618 43.4518 51.068 43.106Z" fill="white"/>
<path d="M51.1771 39.7413C53.6484 39.7413 55.6517 37.738 55.6517 35.2667C55.6517 32.7954 53.6484 30.792 51.1771 30.792C48.7058 30.792 46.7024 32.7954 46.7024 35.2667C46.7024 37.738 48.7058 39.7413 51.1771 39.7413Z" fill="white"/>
<path d="M28.7618 37.5076L28.7644 37.512L28.8178 37.4844C28.8204 37.4831 28.8231 37.4827 28.8258 37.4809C28.8275 37.48 28.8293 37.4782 28.8315 37.4778L35.8275 33.8978L38.1724 37.8853L28.9031 43.916C29.8382 44.0547 30.8489 44.1427 31.9502 44.1427H32.0004C34.7604 44.1053 35.9502 43.6618 37.5964 43.048C38.0809 42.8671 38.5822 42.6804 39.1595 42.4889L39.2782 42.4498C41.0155 41.8747 42.9346 41.2413 45.8173 40.9778L39.6275 32.5196L38.5098 30.9124L38.5093 30.912L38.4991 30.8973L38.4982 30.8978C38.1244 30.356 37.5013 30 36.7938 30C36.4698 30 36.1675 30.0813 35.8946 30.2138L35.8889 30.208L27.276 34.7204L27.2871 34.7413C26.5738 35.1676 26.3058 36.0791 26.6982 36.8231C27.0924 37.5716 28.0035 37.8653 28.7618 37.5076Z" fill="white"/>
</svg>
