<svg width="80" height="80" viewBox="0 0 80 80" fill="none" xmlns="http://www.w3.org/2000/svg">
<rect width="80" height="80" rx="40" fill="#3A81CF"/>
<path d="M53.3334 55V51.6667C53.3334 49.8986 52.631 48.2029 51.3808 46.9526C50.1305 45.7024 48.4349 45 46.6667 45H33.3334C31.5653 45 29.8696 45.7024 28.6194 46.9526C27.3691 48.2029 26.6667 49.8986 26.6667 51.6667V55" stroke="white" stroke-width="3" stroke-linecap="round" stroke-linejoin="round"/>
<path d="M39.9999 38.3333C43.6818 38.3333 46.6666 35.3486 46.6666 31.6667C46.6666 27.9848 43.6818 25 39.9999 25C36.318 25 33.3333 27.9848 33.3333 31.6667C33.3333 35.3486 36.318 38.3333 39.9999 38.3333Z" stroke="white" stroke-width="3" stroke-linecap="round" stroke-linejoin="round"/>
</svg>
