<svg width="80" height="80" viewBox="0 0 80 80" fill="none" xmlns="http://www.w3.org/2000/svg">
<rect width="80" height="80" rx="40" fill="#3A81CF"/>
<path d="M37.7734 21.2266C36.1406 21.4141 35.0234 22.0703 34.4688 23.1719C34.2578 23.5938 34.1719 23.8516 34.0312 24.4609C34 24.6016 33.9141 24.6875 33.7812 24.7188C33.6719 24.75 33.4922 24.8594 33.3906 24.9609L33.2031 25.1484V27.4453V29.75L32.9844 30.1641C32.6875 30.7344 32.2891 31 31.5781 31.1094C31.2656 31.1641 30.9922 31.1719 30.9609 31.1484C30.9297 31.1172 30.9922 30.9219 31.1016 30.7188C31.2891 30.3516 31.2891 30.3281 31.3281 27.5312L31.3672 24.7109L31.5938 24.3828C31.8516 24.0078 32.3203 23.7109 32.7578 23.6328L33.0469 23.5781V22.9531V22.3281L32.6797 22.3828C31.6484 22.5391 30.8203 23.1328 30.375 24.0469L30.1172 24.5625L30.0781 27.3047C30.0391 29.8125 30.0234 30.0625 29.8906 30.3125C29.8047 30.4609 29.625 30.8438 29.4844 31.1641C29.1875 31.8594 29.2266 32.1328 29.6562 32.3125C30.2344 32.5547 32.0703 32.4062 32.7812 32.0547C33.3125 31.7969 33.9297 31.1484 34.2031 30.5703C34.4062 30.1328 34.4141 30.0547 34.4375 28.6172L34.4688 27.1172L34.7031 27.5625C34.8281 27.8047 35.0547 28.1641 35.2031 28.3516C35.3516 28.5391 35.4688 28.7422 35.4688 28.8047C35.4688 28.8594 35.375 29.2891 35.2656 29.75C35.0938 30.4453 35.0156 30.6172 34.8281 30.7734C34.7031 30.875 33.6094 32.125 32.3906 33.5547C31.1719 34.9922 29.3047 37.0781 28.2344 38.1875L26.2891 40.2109L25.8984 39.875C25.3984 39.4375 25.1016 39.2969 24.6562 39.2969C23.7266 39.2969 23.0469 39.9609 23.0469 40.875C23.0469 41.1016 23.1406 41.5625 23.2578 41.9375L23.4766 42.5938L23.2188 43.0469C23.0859 43.2969 22.9688 43.6016 22.9688 43.7266C22.9688 44.0625 23.8047 46.5078 23.9609 46.625C24.2891 46.8672 24.5469 46.7578 26.4609 45.5391C27.4844 44.8906 28.3984 44.2891 28.4844 44.2031C28.6328 44.0703 28.6562 44.0703 28.7031 44.1797C28.8125 44.4688 28.7344 44.7656 28.3984 45.3125C28.2109 45.6328 28.0469 45.9531 28.0469 46.0156C28.0469 46.0781 28.3672 46.8438 28.7578 47.7188C29.1484 48.5938 29.4531 49.3203 29.4375 49.3281C29.2812 49.4453 27.2344 50.0781 27.1875 50.0312C27.1562 49.9922 26.9609 49.4375 26.7656 48.8047C26.5625 48.1641 26.3672 47.5625 26.3281 47.4609L26.2578 47.2734L25.6875 47.4531C25.2344 47.5938 25.125 47.6562 25.1406 47.7656C25.1562 47.8438 25.7578 49.7422 26.4766 51.9922C27.8594 56.3203 27.9844 56.6094 28.6875 57.3516C30.3359 59.0781 33.1016 59.1953 34.8984 57.6172C35.125 57.4219 36.875 55.2578 38.7891 52.8125L42.2812 48.3672L42.7188 48.3203C43.6953 48.2031 44.4453 48 46.9531 47.1719C48.3906 46.6953 49.6094 46.2891 49.6641 46.2734C49.7344 46.2422 49.7656 46.5078 49.7812 47.3203L49.8047 48.3984L50.4141 48.4219L51.0156 48.4453V46.7969C51.0156 45.8906 50.9844 45.0859 50.9375 45.0078C50.8984 44.9297 50.7656 44.8281 50.6484 44.7734C50.4531 44.6953 50.1094 44.7891 47.3828 45.7031C44.5859 46.6484 43.0859 47.0938 43 47.0078C42.9766 46.9922 43 46.8203 43.0391 46.6328C43.0859 46.4453 43.125 45.4922 43.125 44.5156V42.7422L43.5391 42.7031C44.8594 42.5547 50.4375 42.1797 50.8984 42.2031C52.3281 42.2969 53.5312 43.5078 53.6406 44.9766C53.6641 45.2656 53.5938 46.6719 53.4844 48.0938C53.375 49.5078 53.2812 50.7656 53.2812 50.8828V51.0938H52.1484H51.0156V50.3906V49.6875H50.3906H49.7656V53.3984C49.7656 55.7969 49.7969 57.2422 49.8516 57.5C49.9531 57.9844 50.2969 58.3984 50.7422 58.6016C51.0234 58.7344 51.3047 58.75 53.5938 58.75C56.0781 58.75 56.1484 58.7422 56.4844 58.5703C57.0312 58.2969 57.2891 57.9062 57.3281 57.3125C57.3906 56.3672 57 55.9375 55.6562 55.4922C54.9922 55.2734 54.7422 55.1562 54.5156 54.9297L54.2344 54.6484L54.5781 50.1953C54.7656 47.7422 54.9219 45.5156 54.9219 45.2344C54.9297 42.9219 52.9609 40.9375 50.6719 40.9375C50.1641 40.9375 44.4375 41.3516 43.5391 41.4531L43.125 41.4922V39.625V37.75L43.5469 37.3125C44.4297 36.4141 44.6094 35.0781 44.0156 33.8906C43.625 33.1172 43.0469 32.6562 41.9453 32.2578C41.3516 32.0469 41.2266 31.9609 40.6484 31.3828L40 30.7422V29.9922V29.2344L40.2969 29.1797C40.7188 29.1016 41.1094 28.8594 41.3281 28.5391C41.4922 28.3047 41.5312 28.1406 41.5547 27.5938C41.5781 26.9531 41.5859 26.9297 41.8203 26.8047C42.1953 26.6094 42.4219 26.3516 42.4219 26.1328C42.4219 26.0156 42.25 25.6016 42.0391 25.2109C41.7656 24.6875 41.6484 24.3672 41.6094 24.0469C41.4688 22.7188 40.4922 21.6016 39.2578 21.3438C38.7812 21.2422 38.0938 21.1875 37.7734 21.2266ZM38.3672 22.5C38.4062 22.5 38.2344 22.7812 37.9922 23.1172C37.5859 23.6719 37.5156 23.7344 37.3281 23.6953C37.0859 23.6484 36.6094 23.7891 36.3047 24C35.6484 24.4609 35.6094 25.7109 36.2344 26.2734C36.3906 26.4141 36.3906 26.4141 36.2188 26.8438C36.1328 27.0703 36.0391 27.2656 36.0156 27.2656C35.9609 27.2656 35.7344 26.7422 35.5 26.0625C35.3047 25.5156 35.2422 24.7344 35.3594 24.25C35.5156 23.5938 35.9609 23.0938 36.6562 22.7734C37.0781 22.5781 37.9609 22.4062 38.1875 22.4688C38.25 22.4844 38.3281 22.5 38.3672 22.5ZM40.1328 23.4141C40.2734 23.6562 40.3438 23.9141 40.375 24.2812C40.3984 24.6562 40.4766 24.9375 40.6562 25.2734C40.7891 25.5312 40.9062 25.7656 40.9219 25.7969C40.9375 25.8203 40.8359 25.9062 40.7109 25.9844C40.3906 26.1719 40.3672 26.25 40.3125 27.1484L40.2734 27.9297L39.6719 27.9531C39.1328 27.9766 39.0547 27.9922 38.9062 28.1797C38.7656 28.3672 38.75 28.4922 38.75 29.7891V31.1953L39.5391 32L40.3281 32.7969L40.2422 33.2109C40.0078 34.2969 39.0547 35.1562 37.5469 35.6172C36.8984 35.8203 36.8984 35.8203 36.7969 35.625C36.7266 35.4844 36.7656 35.3984 37.0703 35.0391C37.2734 34.8047 37.4219 34.5781 37.4062 34.5391C37.3984 34.5 37.1875 34.3125 36.9453 34.1172L36.5078 33.7578L34.5469 36.1406C32.7031 38.3828 32.4453 38.6562 30.0781 40.9375C27.5703 43.3516 27.5703 43.3594 26.2188 44.2109C25.4766 44.6875 24.8203 45.0781 24.7656 45.0938C24.7031 45.1094 24.5859 44.8672 24.4453 44.4688L24.2266 43.8203L24.4844 43.3438C24.7266 42.9141 24.8281 42.8203 25.7188 42.2422C26.6484 41.6328 26.8047 41.4922 28.9062 39.2969C30.2344 37.9062 31.9844 35.9688 33.3047 34.4141C34.5078 33 35.5625 31.7812 35.6562 31.7188C35.7734 31.6328 36.0938 31.5938 36.8203 31.5703L37.8203 31.5469L37.7969 30.9453L37.7734 30.3516L37.0938 30.3281C36.7109 30.3203 36.4062 30.2969 36.4062 30.2891C36.4141 30.0312 36.9766 28.2891 37.2969 27.5078C37.5391 26.9375 37.7344 26.3672 37.7344 26.25C37.7344 26.1016 37.6172 25.9062 37.3828 25.6406C36.8828 25.0859 36.9141 24.8125 37.4609 25.0469C37.9219 25.2344 38.0781 25.125 38.9375 23.9375C39.7891 22.7734 39.7578 22.7812 40.1328 23.4141ZM42.25 33.7188C42.6328 33.9453 42.9219 34.3438 43.0469 34.8438C43.2266 35.5234 42.9766 36.1875 42.3516 36.7109C42.1094 36.9141 41.9453 37.125 41.9141 37.2656L41.8594 37.5H39.8906H37.9219L37.7891 37.2734C37.7188 37.1484 37.6562 37.0156 37.6562 36.9766C37.6562 36.9375 37.8594 36.8438 38.1094 36.7656C38.8203 36.5391 39.75 36.0234 40.2422 35.5703C40.7812 35.0625 41.1172 34.5547 41.3359 33.9062C41.4922 33.4531 41.5156 33.4297 41.7109 33.4766C41.8203 33.5 42.0625 33.6172 42.25 33.7188ZM36.9062 38.2344L37.8828 39.8203L37.5703 40.7891C37.3203 41.5234 37.1953 41.7969 37.0391 41.9141C36.5547 42.2812 35.8984 42.9609 35.5781 43.4531C34.8906 44.4844 34.5156 46 34.6797 47.1094L34.75 47.6172L33.4141 49.7812C32.6719 50.9766 32.0469 51.9219 32.0234 51.8906C31.9922 51.8594 31.3828 50.5391 30.6719 48.9531L29.3828 46.0703L29.6719 45.6016C29.9453 45.1562 29.9609 45.0859 29.9609 44.5C29.9609 43.9922 29.9219 43.7969 29.7812 43.5156L29.6016 43.1641L31.7422 41.0547C33.2109 39.6094 34.1875 38.5703 34.8438 37.7578C35.375 37.1016 35.8359 36.5859 35.8672 36.6094C35.8984 36.625 36.3672 37.3594 36.9062 38.2344ZM41.875 40.1172V41.4844H40.2656C38.9062 41.4844 38.6641 41.4688 38.6953 41.375C38.7188 41.3125 38.8516 40.9062 38.9922 40.4766L39.2344 39.6953L38.9922 39.2656C38.8594 39.0234 38.75 38.8125 38.75 38.7891C38.75 38.7656 39.4531 38.75 40.3125 38.75H41.875V40.1172ZM25.0391 40.7812C25.2812 41.0391 25.2812 41.0391 24.8047 41.3594L24.4922 41.5625L24.3984 41.3516C24.1016 40.6641 24.5469 40.2656 25.0391 40.7812ZM41.8594 44.625L41.8359 46.5234L41.5938 47.0312C41.4297 47.375 40.2578 48.9297 38.0078 51.7969C36.1719 54.1406 34.4922 56.2344 34.2734 56.4609C32.9844 57.7891 30.9375 57.8203 29.6562 56.5391C29.4219 56.3125 29.1562 55.9688 29.0625 55.7734C28.8906 55.4375 27.5469 51.3281 27.5938 51.2969C27.6484 51.25 29.9609 50.4844 29.9844 50.5078C29.9922 50.5156 30.3203 51.2266 30.7031 52.0781C31.0938 52.9297 31.4766 53.6953 31.5625 53.7812C31.7734 53.9922 32.1562 53.9766 32.375 53.7422C32.5547 53.5625 35.7812 48.3828 35.9453 48.0156C36.0078 47.8828 36.0078 47.6406 35.9453 47.1719C35.7344 45.5703 36.3828 43.9844 37.6172 43.0625L38.0703 42.7344H39.9766H41.8828L41.8594 44.625ZM53.0938 53.1016C53.0703 53.5234 53.0234 54.1562 52.9922 54.5156L52.9453 55.1641L53.5234 55.7344C54.0859 56.2969 54.1172 56.3125 55 56.6016C55.4922 56.7656 55.9453 56.9297 56 56.9766C56.1328 57.0859 56.1172 57.3984 55.9688 57.4531C55.8984 57.4766 54.8125 57.5 53.5547 57.5C51.5703 57.5 51.2422 57.4844 51.1406 57.375C51.0312 57.2734 51.0156 56.9297 51.0156 54.8516C51.0156 53.5312 51.0391 52.4219 51.0703 52.3984C51.0938 52.3672 51.5781 52.3438 52.1328 52.3438H53.1484L53.0938 53.1016Z" fill="white"/>
</svg>
