<svg width="80" height="80" viewBox="0 0 80 80" fill="none" xmlns="http://www.w3.org/2000/svg">
<rect width="80" height="80" rx="40" fill="#3A81CF"/>
<g clip-path="url(#clip0_778_160)">
<path d="M43.3591 20.086C43.1325 20.1797 42.8357 20.4454 42.7107 20.6641C42.6404 20.7813 42.6091 23.2344 42.5779 29.9219L42.5388 39.0235L42.3591 39.5313C42.0935 40.2657 41.6091 41.0469 41.1013 41.5547C40.695 41.9532 28.2107 50.6719 27.5075 51.0469C26.9841 51.3282 26.7419 51.3516 24.4919 51.3985L22.2263 51.4454L21.7888 51.6641C21.1013 52 20.6716 52.4297 20.3357 53.1094C20.0466 53.6875 20.0388 53.7266 20.0466 54.5235C20.0466 55.4844 20.1872 56.1016 20.6013 56.9063C21.1404 58 22.0075 58.8594 23.0935 59.4063C24.2497 59.9844 23.82 59.9532 31.2029 59.9766C39.1247 60.0079 38.6169 60.0547 40.8591 59.1172C42.0232 58.625 42.3982 58.5547 43.7888 58.5547C45.2263 58.5547 45.6872 58.6563 47.0232 59.2579C48.5466 59.9375 48.7029 59.961 51.9529 59.961C54.6794 59.961 54.8279 59.9532 55.4138 59.7813C57.5857 59.1563 59.156 57.586 59.781 55.4141C59.945 54.8516 59.9607 54.6563 59.9529 52.9688C59.945 50.4219 59.6716 48.4922 58.9763 46.1172C58.6872 45.125 57.9685 43.2032 57.656 42.5782C57.5232 42.3125 57.5388 42.1485 58.7732 31.6563L60.031 21.0079L59.8591 20.6641C59.6716 20.2813 59.2419 20.0001 58.8279 20.0001C58.4216 20.0001 57.9841 20.2813 57.8122 20.6485C57.6872 20.9141 57.4138 23.0782 56.406 31.6563C55.7185 37.5313 55.156 42.4297 55.156 42.5469C55.156 42.6563 55.3591 43.211 55.6169 43.7735C56.8904 46.6329 57.531 49.4219 57.6325 52.5391C57.6794 54.2579 57.6247 54.711 57.2341 55.5079C56.7263 56.5391 55.6325 57.375 54.5388 57.5782C54.3122 57.625 53.1325 57.6563 51.9216 57.6563C49.4138 57.6563 49.0388 57.6016 47.9841 57.1172C46.5232 56.4532 45.2888 56.1719 43.7966 56.1719C42.2732 56.1719 41.1716 56.4141 39.6404 57.0782C38.2263 57.6875 38.6091 57.6641 31.3044 57.6407L24.8044 57.6172L24.281 57.3672C23.2185 56.8672 22.4685 55.8516 22.3747 54.7657C22.3279 54.2891 22.3357 54.2344 22.5388 54L22.7497 53.75H24.57C26.6794 53.75 27.4607 53.6485 28.3122 53.2579C28.6404 53.1016 31.5622 51.1329 35.4685 48.4375C41.3591 44.3672 42.1482 43.7969 42.7732 43.1641C43.2107 42.7188 43.6169 42.211 43.8591 41.8125C44.281 41.1094 44.7185 39.9219 44.8357 39.1407C44.8904 38.8125 44.9216 35.5157 44.9216 29.7813C44.9216 20.086 44.945 20.586 44.4529 20.2344C44.1716 20.0313 43.6482 19.961 43.3591 20.086Z" fill="white"/>
<path d="M49.5313 41.4687C49.1484 41.6562 48.9062 42.0547 48.9062 42.4766C48.9062 42.8672 48.9609 42.9922 49.3438 43.5C49.75 44.0234 49.8672 44.3516 49.875 44.9609C49.8828 45.6484 49.7734 45.9531 49.2891 46.6094C48.9531 47.0703 48.9062 47.1797 48.9062 47.5156C48.9062 47.7422 48.9609 48 49.0391 48.125C49.3281 48.6172 50.1875 48.836 50.6484 48.5235C50.9688 48.3203 51.4609 47.6953 51.7188 47.1875C52.0938 46.4375 52.2188 45.8984 52.2188 45C52.2188 44.3125 52.1797 44.0781 52 43.5625C51.75 42.8281 51.5156 42.4141 51.0781 41.9141C50.5703 41.3359 50.0703 41.1953 49.5313 41.4687Z" fill="white"/>
</g>
<defs>
<clipPath id="clip0_778_160">
<rect width="40" height="40" fill="white" transform="translate(20 20)"/>
</clipPath>
</defs>
</svg>
