<svg width="80" height="80" viewBox="0 0 80 80" fill="none" xmlns="http://www.w3.org/2000/svg">
<rect width="80" height="80" rx="40" fill="#3A81CF"/>
<g clip-path="url(#clip0_778_152)">
<path d="M57.4766 21.3047C57.4453 22.3984 57.4141 22.6953 57.2656 23.1094C56.8672 24.2344 55.8047 25.2031 54.6719 25.4688C54.4844 25.5078 49.25 26.1953 43.0391 26.9922C36.8203 27.7891 31.4766 28.4844 31.1641 28.5469C28.5 29.0547 26.125 30.3594 24.2578 32.3438C23.2578 33.3984 22.7109 34.1953 22.0234 35.5547C21.0781 37.4453 20.6484 39.1562 20.5703 41.3672C20.5 43.4297 20.6875 44.4453 21.8203 48.0469L22.3984 49.8828L22.1328 50.4688C21.3516 52.1484 20.7812 53.9297 20.4297 55.7031C20.2188 56.8047 20 58.7109 20 59.4922V60H21.25H22.5V59.5859C22.5 58.2578 22.8359 56.1094 23.2969 54.4922C23.6797 53.1719 23.9141 52.5547 24.5859 51.1641L25.0938 50.1016L24.3125 47.6094C23.1797 44 23.0469 43.4219 23.0469 41.7969C23.0469 37.6797 25.1406 34.0469 28.6797 32.0469C29.2578 31.7188 30.3594 31.3047 31.1719 31.1016C31.5391 31.0156 36.9531 30.2891 43.2031 29.5C49.4531 28.7031 54.8672 27.9844 55.2266 27.8984C57.4141 27.375 59.125 25.7188 59.7734 23.5C59.9062 23.0391 59.9453 22.6484 59.9766 21.4609L60.0156 20H58.7656H57.5156L57.4766 21.3047Z" fill="white"/>
<path d="M31.25 43.7344V44.9844L32.6406 45.0156C33.9531 45.0391 34.0391 45.0469 34.3047 45.2266C34.4531 45.336 34.6641 45.5469 34.7734 45.6953L34.9609 45.9766L34.9844 52.9844L35 60H36.25H37.5V57.1406V54.2734L37.6719 54.5C39.7188 57.1953 42.4766 58.9766 45.6953 59.6875C46.9297 59.9609 47.7969 60 52.0703 60H56.25V58.75V57.5H52.1719C49.9219 57.5 47.7734 57.4609 47.3828 57.4219C42.4062 56.8594 38.5 53.1719 37.6641 48.2422C37.625 47.9844 37.5469 47.3125 37.5 46.7422C37.4531 46.1797 37.3594 45.5313 37.2969 45.3047C37.0391 44.4297 36.4375 43.6563 35.6016 43.1172C34.8594 42.6406 34.5312 42.5703 32.7969 42.5235L31.25 42.4844V43.7344Z" fill="white"/>
<path d="M47.5 51.25V52.5H48.75H50V51.25V50H48.75H47.5V51.25Z" fill="white"/>
</g>
<defs>
<clipPath id="clip0_778_152">
<rect width="40" height="40" fill="white" transform="translate(20 20)"/>
</clipPath>
</defs>
</svg>
