<svg width="80" height="80" viewBox="0 0 80 80" fill="none" xmlns="http://www.w3.org/2000/svg">
<rect width="80" height="80" rx="40" fill="#3A81CF"/>
<path d="M35.5076 20.0704C35.4217 20.1094 35.2811 20.2188 35.1951 20.3126C35.0545 20.4688 35.0389 20.6251 34.9998 22.2579C34.9607 24.0001 34.9607 24.0313 34.742 24.4688C34.617 24.7266 34.3592 25.0626 34.1248 25.2657C33.7498 25.6094 33.6326 25.6563 31.4139 26.3672C27.5311 27.6251 27.3436 27.6954 26.2654 28.5079C25.0154 29.4532 24.1326 30.7501 23.617 32.3985L23.3982 33.086L23.3748 46.211C23.3592 55.5469 23.3826 59.3985 23.4451 59.5391C23.6404 60.0313 24.3904 60.1251 24.7732 59.7188L24.9607 59.5157L24.9998 46.461C25.0389 34.2422 25.0545 33.3672 25.1795 32.9376C25.6248 31.4922 26.4686 30.336 27.6561 29.5704C28.3201 29.1407 28.7186 28.9922 31.5623 28.086C32.8748 27.6719 34.1795 27.2032 34.4686 27.0547C35.4217 26.5547 36.242 25.5235 36.5232 24.4454C36.6717 23.8985 36.6873 20.7344 36.5467 20.4297C36.3904 20.0782 35.9061 19.9141 35.5076 20.0704Z" fill="white"/>
<path d="M43.7343 20.1329C43.375 20.3594 43.3437 20.5391 43.375 22.5079C43.3984 24.1719 43.414 24.3751 43.5781 24.8047C43.9297 25.7579 44.6797 26.6094 45.539 27.0626C45.8281 27.2032 47.125 27.6641 48.4375 28.086C49.75 28.5001 51.0468 28.9297 51.3281 29.0391C53.0078 29.7032 54.2578 31.1016 54.8203 32.9376C54.9453 33.3672 54.9609 34.2422 55 46.461L55.039 59.5157L55.2265 59.7188C55.6093 60.1251 56.3593 60.0313 56.5547 59.5391C56.6172 59.3985 56.6406 55.5469 56.625 46.211L56.6015 33.086L56.3828 32.3985C55.7265 30.2891 54.4062 28.6954 52.5312 27.7501C52 27.4844 51.3906 27.2657 48.3437 26.2891C46.3047 25.6329 46.25 25.6094 45.8359 25.2344C45.1172 24.5782 45.0468 24.3438 45 22.2501L44.9609 20.4688L44.7578 20.2657C44.4922 20.0079 44.0234 19.9454 43.7343 20.1329Z" fill="white"/>
<path d="M33.7344 30.1328C33.4375 30.3203 33.375 30.5312 33.3281 31.6406C33.3047 32.1797 33.2344 32.8125 33.1719 33.0469C32.9922 33.6797 32.5547 34.5156 32.1563 34.9688C31.7031 35.4844 31.6094 35.7188 31.7188 36.0625C31.8438 36.4297 32.1406 36.6406 32.5235 36.6406C32.8125 36.6406 32.8906 36.5938 33.2813 36.1875C34.4531 34.9844 35.0547 33.2656 34.9844 31.3047C34.961 30.5312 34.9453 30.4609 34.7578 30.2656C34.4922 30.0078 34.0235 29.9453 33.7344 30.1328Z" fill="white"/>
<path d="M45.5078 30.0703C45.4219 30.1094 45.2813 30.2187 45.1953 30.3125C45.0547 30.4687 45.0391 30.5937 45.0391 31.6719C45.0469 32.9219 45.125 33.3828 45.5 34.3125C45.7813 35.0078 46.1641 35.5937 46.6797 36.1484C47.1094 36.5937 47.1797 36.6406 47.4688 36.6406C47.8594 36.6406 48.1563 36.4297 48.2813 36.0625C48.3906 35.7187 48.2969 35.4844 47.8516 34.9766C47.4219 34.4844 47.0078 33.7109 46.8359 33.0859C46.7656 32.8281 46.6953 32.1797 46.6719 31.6406C46.6484 31.1016 46.5938 30.5625 46.5469 30.4453C46.4063 30.0859 45.9141 29.9062 45.5078 30.0703Z" fill="white"/>
<path d="M39.5391 33.4844C39.1251 33.7812 39.1407 33.2891 39.1407 45C39.1407 56.7109 39.1251 56.2187 39.5391 56.5156C39.7735 56.6797 40.2266 56.6797 40.461 56.5156C40.8751 56.2187 40.8594 56.7109 40.8594 45C40.8594 33.2891 40.8751 33.7812 40.461 33.4844C40.3594 33.4141 40.1563 33.3594 40.0001 33.3594C39.8438 33.3594 39.6407 33.4141 39.5391 33.4844Z" fill="white"/>
<path d="M28.7031 38.5C28.2812 38.836 28.2734 39.086 28.6328 40.1641C29.5859 42.9531 29.9609 45.2969 29.9609 48.4375C29.9609 51.1485 29.7813 52.5391 29.0625 55.3906C28.6641 56.9844 28.3594 58.5625 28.3594 59.0703C28.3594 59.4766 28.4922 59.7266 28.7891 59.8828C29.1328 60.0703 29.5391 59.9922 29.7969 59.6797C29.9063 59.5469 30 59.3594 30 59.2578C30 58.875 30.3359 57.1641 30.6641 55.8594C31.375 53.0391 31.5547 51.7188 31.6172 49.0625C31.6875 45.8828 31.4063 43.6328 30.5859 40.7735C30.1563 39.2891 29.8672 38.6094 29.6094 38.4766C29.3125 38.3203 28.9063 38.3281 28.7031 38.5Z" fill="white"/>
<path d="M50.3747 38.4766C50.1325 38.6094 49.8591 39.2735 49.4216 40.7422C48.6091 43.5391 48.3122 45.8751 48.3825 49.0626C48.445 51.7188 48.6247 53.0235 49.3357 55.8594C49.6638 57.1719 49.9997 58.8829 49.9997 59.2657C49.9997 59.5704 50.3825 59.9219 50.7575 59.9766C51.0622 60.0157 51.1169 59.9922 51.3747 59.7344L51.6638 59.4454L51.6091 58.8438C51.5466 58.0157 51.32 56.8985 50.906 55.2501C50.2263 52.5782 50.0388 51.1251 50.0388 48.4376C50.0388 45.3282 50.406 43.0079 51.3278 40.2735C51.4997 39.7657 51.6404 39.2579 51.6404 39.1563C51.6404 38.5313 50.9528 38.1641 50.3747 38.4766Z" fill="white"/>
</svg>
