<svg width="80" height="80" viewBox="0 0 80 80" fill="none" xmlns="http://www.w3.org/2000/svg">
<rect width="80" height="80" rx="40" fill="#3A81CF"/>
<path d="M41.7343 26.0624C41.1718 26.2109 41.2812 26.1484 37.1484 28.6249C33.2265 30.9687 32.7343 31.3281 32.2031 32.2031C31.3593 33.6093 31.2968 35.2968 32.039 36.789C32.3281 37.3828 32.5078 37.5937 33.7343 38.8437L35.1093 40.2421L32.6093 42.7421C29.9609 45.3984 29.3828 45.8749 28.1093 46.4843C26.1015 47.4374 24.1718 47.2499 22.6172 45.9453C21.5547 45.0468 21.2656 44.9453 20.664 45.2343C20.0781 45.5156 19.8437 46.1718 20.125 46.7656C20.3437 47.2187 21.3672 48.0234 22.3828 48.5312C24.8828 49.789 28.0234 49.5937 30.2812 48.039L30.625 47.8046L30.9609 48.0312C31.914 48.6874 33.2578 49.1796 34.5078 49.3203C36.25 49.5078 38.2343 49.0234 39.6562 48.039L40 47.8046L40.3359 48.0312C41.289 48.6874 42.6328 49.1796 43.8828 49.3203C45.625 49.5078 47.6093 49.0234 49.0312 48.039L49.375 47.8046L49.7343 48.0468C50.2968 48.4453 51.4609 48.9531 52.2265 49.1484C53.1953 49.3984 55.0468 49.4062 55.9531 49.1562C57.25 48.8046 58.2656 48.2812 59.2109 47.4843C60 46.8281 60.1797 46.3124 59.8281 45.6953C59.6484 45.3749 59.1718 45.0781 58.8437 45.0781C58.539 45.0781 58.1797 45.2734 57.6953 45.6953C57.1093 46.2109 56 46.7656 55.2343 46.9218C53.8828 47.2031 52.3359 46.9062 51.2031 46.1484C50.8828 45.9374 49.9765 45.1015 48.9531 44.0781L47.25 42.3593L47.9453 42.3984C50.1953 42.5312 52.1484 41.1328 52.7734 38.9453C52.9531 38.3437 52.9531 37.2343 52.7812 36.5703C52.2812 34.6171 50.5781 33.2265 48.5234 33.0781C46.5312 32.9296 44.6172 34.1796 43.8515 36.1328C43.6562 36.6328 43.6406 36.7734 43.6328 37.7109V38.7499L41.8203 36.9374C40.2422 35.3593 40.0234 35.1171 40.1406 35.039C40.2109 34.9843 41.2734 34.3437 42.5 33.6093C45.25 31.9609 45.5937 31.6484 45.9687 30.3984C46.2031 29.5937 46.0937 28.5859 45.6875 27.7812C45.4609 27.3437 44.8125 26.6796 44.3359 26.4062C43.5547 25.9609 42.5859 25.8281 41.7343 26.0624ZM43.3125 28.5468C43.7734 28.8984 43.8828 29.6796 43.5312 30.1484C43.4531 30.2578 42.0468 31.1484 40.4218 32.1249C38.7187 33.1484 37.3515 34.0156 37.2109 34.1796C36.9922 34.414 36.9531 34.5078 36.9531 34.8515C36.9531 35.0624 36.9922 35.3203 37.039 35.414C37.0859 35.5078 39.5 37.9687 42.4062 40.8749L47.6875 46.164L47.0312 46.4687C46.1328 46.8906 45.6562 46.9921 44.6484 46.9921C43.9765 46.9843 43.664 46.9453 43.2031 46.8046C42.414 46.5624 41.7031 46.1796 41.0937 45.664C40.2109 44.914 39.789 44.914 38.9062 45.664C38.2968 46.1796 37.5937 46.5624 36.7968 46.8124C36.3281 46.9531 36.0312 46.9921 35.3515 46.9921C34.3672 46.9921 33.875 46.8906 33.0468 46.5078L32.4687 46.2421L35.1015 43.6093C37.7265 40.9843 37.9687 40.6874 37.9687 40.1953C37.9687 39.8046 37.7031 39.4765 35.9687 37.7343C34.039 35.789 33.8906 35.5781 33.8828 34.7343C33.8672 34.0781 34.0859 33.4999 34.4843 33.0937C34.6953 32.8749 36.0312 32.0234 38.414 30.6015C40.3906 29.4062 42.1015 28.4062 42.2031 28.3593C42.5 28.2343 43.0156 28.3203 43.3125 28.5468ZM49.1718 35.5859C49.6172 35.7734 50.1875 36.3515 50.3984 36.8203C51.0468 38.3124 49.9062 40.0781 48.2968 40.0781C47.6093 40.0781 47.1328 39.8749 46.6406 39.3906C45.9765 38.7187 45.7578 37.8046 46.0547 36.9453C46.4922 35.7187 47.9609 35.0781 49.1718 35.5859Z" fill="white"/>
<path d="M20.6407 49.9296C20.0782 50.2109 19.8516 50.875 20.125 51.4531C20.3438 51.9062 21.3672 52.7109 22.3828 53.2187C24.8828 54.4765 28.0235 54.2812 30.2813 52.7265L30.625 52.4921L30.961 52.7187C31.9141 53.3749 33.2578 53.8671 34.5078 54.0078C36.25 54.1953 38.2344 53.7109 39.6563 52.7265L40 52.4921L40.336 52.7187C41.2891 53.3749 42.6328 53.8671 43.8828 54.0078C45.625 54.1953 47.6094 53.7109 49.0313 52.7265L49.375 52.4921L49.7344 52.7343C50.2969 53.1328 51.461 53.6406 52.2266 53.8359C53.1953 54.0859 55.0469 54.0937 55.9532 53.8437C57.25 53.4921 58.2657 52.9687 59.211 52.1718C60 51.5156 60.1797 51 59.8282 50.3828C59.6485 50.0625 59.1719 49.7656 58.8438 49.7656C58.5391 49.7656 58.1797 49.9609 57.6953 50.3828C57.1172 50.8906 56 51.4531 55.2735 51.6015C54.0391 51.8593 52.8047 51.7031 51.6797 51.1406C51.2969 50.9453 50.75 50.5937 50.4688 50.3515C49.586 49.5937 49.1485 49.5937 48.2735 50.3593C47.3438 51.164 45.8907 51.7187 44.6875 51.7187C43.4766 51.7187 42.0625 51.1796 41.0938 50.3515C40.211 49.5937 39.7735 49.5937 38.8985 50.3593C37.9688 51.164 36.5157 51.7187 35.3125 51.7187C34.1016 51.7187 32.6875 51.1796 31.7188 50.3515C30.836 49.5937 30.3985 49.5937 29.5235 50.3593C28.9141 50.8906 27.8125 51.4453 27.0703 51.6015C25.836 51.8593 24.6016 51.7031 23.4766 51.1406C23.0938 50.9453 22.5625 50.6015 22.3047 50.3828C21.5625 49.7343 21.2188 49.6484 20.6407 49.9296Z" fill="white"/>
</svg>
