<svg width="20" height="21" viewBox="0 0 20 21" fill="none" xmlns="http://www.w3.org/2000/svg">
<ellipse cx="10" cy="10.5175" rx="10" ry="10.0761" fill="#7C509A"/>
<path d="M13.127 5.7545C11.2212 5.38778 9.24215 5.38778 7.33639 5.7545C6.49345 5.93785 5.43063 6.96465 5.24738 7.77142C4.91754 9.34828 4.91754 10.9618 5.24738 12.5387C5.46728 13.3454 6.5301 14.3722 7.33639 14.5556C7.37304 14.5556 7.40968 14.5923 7.40968 14.6289V16.9392C7.40968 17.0492 7.55628 17.1226 7.62958 17.0126L8.72906 15.8758C8.72906 15.8758 9.60864 14.959 9.75523 14.8123C9.75523 14.8123 9.79189 14.7756 9.82854 14.7756C10.928 14.8123 12.0641 14.7023 13.1636 14.5189C14.0065 14.3356 15.0694 13.3088 15.2526 12.502C15.5825 10.9251 15.5825 9.31161 15.2526 7.73474C15.0327 6.96465 13.9699 5.93785 13.127 5.7545ZM13.1636 12.6487C12.9804 13.0154 12.7605 13.3088 12.394 13.4921C12.284 13.5288 12.1741 13.5655 12.0641 13.6021C11.9175 13.5655 11.8076 13.5288 11.6976 13.4921C10.5249 13.0154 9.42539 12.3553 8.54581 11.4019C8.06937 10.8518 7.66623 10.2284 7.33639 9.56831C7.18979 9.23827 7.04319 8.9449 6.93325 8.61485C6.8233 8.32148 7.00654 8.02811 7.18979 7.80809C7.37304 7.58806 7.59293 7.44137 7.84948 7.33136C8.03272 7.22135 8.21597 7.29469 8.36257 7.44137C8.65576 7.80809 8.94895 8.1748 9.16885 8.57818C9.31544 8.83488 9.27879 9.12825 9.02225 9.31161C8.94895 9.34828 8.9123 9.38495 8.839 9.45829C8.80236 9.49497 8.72906 9.53164 8.69241 9.60498C8.61911 9.71499 8.61911 9.82501 8.65576 9.93502C8.94895 10.7785 9.49869 11.4385 10.3416 11.8053C10.4882 11.8786 10.5982 11.9153 10.7814 11.9153C11.038 11.8786 11.1479 11.5852 11.3312 11.4385C11.5144 11.2919 11.7343 11.2919 11.9542 11.4019C12.1374 11.5119 12.3207 11.6586 12.5406 11.8053C12.7238 11.9519 12.9071 12.062 13.0903 12.2086C13.2003 12.282 13.2369 12.4653 13.1636 12.6487ZM11.6243 9.89835C11.551 9.89835 11.5877 9.89835 11.6243 9.89835C11.4777 9.89835 11.4411 9.82501 11.4044 9.71499C11.4044 9.64165 11.4044 9.53164 11.3678 9.45829C11.3312 9.31161 11.2579 9.16492 11.1113 9.05491C11.038 9.01824 10.9647 8.98157 10.8914 8.9449C10.7814 8.90822 10.7081 8.90822 10.5982 8.90822C10.4882 8.87155 10.4516 8.79821 10.4516 8.6882C10.4516 8.61485 10.5615 8.54151 10.6348 8.54151C11.2212 8.57818 11.661 8.90822 11.7343 9.60498C11.7343 9.64165 11.7343 9.71499 11.7343 9.75166C11.7343 9.82501 11.6976 9.89835 11.6243 9.89835ZM11.2579 8.28481C11.0746 8.21147 10.8914 8.13813 10.6715 8.10146C10.5982 8.10146 10.4882 8.06479 10.4149 8.06479C10.305 8.06479 10.2317 7.99144 10.2683 7.88143C10.2683 7.77142 10.3416 7.69807 10.4516 7.73474C10.8181 7.77142 11.1479 7.84476 11.4777 7.99144C12.1374 8.32148 12.5039 8.87155 12.6139 9.60498C12.6139 9.64165 12.6139 9.67832 12.6139 9.71499C12.6139 9.78834 12.6139 9.86168 12.6139 9.97169C12.6139 10.0084 12.6139 10.045 12.6139 10.0817C12.5772 10.2284 12.3207 10.2651 12.284 10.0817C12.284 10.045 12.2474 9.97169 12.2474 9.93502C12.2474 9.60498 12.1741 9.27494 12.0275 8.98157C11.8076 8.65153 11.551 8.4315 11.2579 8.28481ZM13.2369 10.4851C13.127 10.4851 13.0537 10.3751 13.0537 10.2651C13.0537 10.045 13.017 9.82501 12.9804 9.60498C12.8338 8.4315 11.8809 7.47805 10.7448 7.29469C10.5615 7.25802 10.3783 7.25802 10.2317 7.22135C10.1217 7.22135 9.97513 7.22135 9.93848 7.07466C9.90183 6.96465 10.0118 6.85463 10.1217 6.85463C10.1584 6.85463 10.195 6.85463 10.195 6.85463C11.6976 6.89131 10.2683 6.85463 10.195 6.85463C11.7343 6.89131 13.017 7.9181 13.2736 9.45829C13.3102 9.71499 13.3469 9.97169 13.3469 10.2651C13.4202 10.3751 13.3469 10.4851 13.2369 10.4851Z" fill="white"/>
</svg>
