<svg width="40" height="40" viewBox="0 0 40 40" fill="none" xmlns="http://www.w3.org/2000/svg">
<circle cx="20" cy="20" r="20" fill="#3A81CF"/>
<path d="M29.8055 25.1154C29.8055 25.0324 29.7225 25.0324 29.7225 24.9494C29.3904 24.2852 28.6432 23.455 27.6469 22.5417C27.1488 22.1266 26.8997 21.7945 26.7337 21.6285C26.4846 21.2964 26.4846 21.0473 26.5676 20.7152C26.6507 20.4662 26.9827 20.051 27.5639 19.3038C27.896 18.8887 28.062 18.6397 28.3111 18.3906C29.5564 16.7301 30.1376 15.6508 29.9716 15.1527L29.8886 15.0697C29.8055 14.9866 29.7225 14.9036 29.5564 14.9036C29.3904 14.8206 29.1413 14.8206 28.8923 14.9036H25.7374C25.6544 14.9036 25.6544 14.9036 25.4883 14.9036C25.4053 14.9036 25.3223 14.9036 25.3223 14.9036H25.2393H25.1562L25.0732 14.9866C24.9902 15.0697 24.9902 15.0697 24.9902 15.1527C24.6581 16.0659 24.243 16.8131 23.8279 17.6434C23.5788 18.0585 23.3297 18.4736 23.0807 18.8057C22.8316 19.1378 22.6655 19.3869 22.4995 19.5529C22.3335 19.7189 22.1674 19.802 22.0844 19.968C22.0014 20.051 21.8353 20.1341 21.8353 20.051C21.7523 20.051 21.6693 20.051 21.6693 19.968C21.5862 19.885 21.5032 19.802 21.4202 19.7189C21.3372 19.6359 21.3372 19.4699 21.2542 19.3038C21.2542 19.1378 21.2542 18.9717 21.2542 18.8887C21.2542 18.8057 21.2542 18.5566 21.2542 18.3906C21.2542 18.1415 21.2542 17.9755 21.2542 17.8924C21.2542 17.6434 21.2542 17.3113 21.2542 16.9792C21.2542 16.6471 21.2542 16.398 21.2542 16.232C21.2542 16.0659 21.2542 15.8169 21.2542 15.6508C21.2542 15.4018 21.2542 15.2357 21.2542 15.1527C21.2542 15.0697 21.1712 14.9036 21.1712 14.8206C21.0881 14.7376 21.0051 14.6546 20.9221 14.5715C20.839 14.4885 20.673 14.4885 20.59 14.4055C20.1749 14.3225 19.6767 14.2394 19.0956 14.2394C17.7672 14.2394 16.854 14.3225 16.5219 14.4885C16.3558 14.5715 16.1898 14.6546 16.1067 14.8206C15.9407 14.9866 15.9407 15.0697 16.0237 15.0697C16.4388 15.1527 16.7709 15.3187 16.937 15.5678L17.02 15.7339C17.103 15.8169 17.103 15.9829 17.186 16.232C17.2691 16.4811 17.2691 16.7301 17.2691 17.0622C17.2691 17.5604 17.2691 18.0585 17.2691 18.3906C17.2691 18.8057 17.186 19.0548 17.186 19.3038C17.186 19.5529 17.103 19.719 17.02 19.802C16.937 19.968 16.937 20.051 16.8539 20.051C16.8539 20.051 16.8539 20.1341 16.7709 20.1341C16.6879 20.1341 16.6049 20.2171 16.4388 20.2171C16.3558 20.2171 16.1898 20.1341 16.1067 20.051C15.9407 19.968 15.7747 19.802 15.6916 19.6359C15.5256 19.4699 15.3595 19.2208 15.1935 18.8887C15.0274 18.5566 14.7784 18.2245 14.6123 17.7264L14.4463 17.3943C14.3633 17.2283 14.1972 16.8962 14.0312 16.4811C13.8651 16.0659 13.6991 15.7339 13.533 15.3187C13.45 15.1527 13.367 15.0697 13.284 14.9866H13.2009C13.2009 14.9866 13.1179 14.9036 13.0349 14.9036C12.9519 14.9036 12.8689 14.8206 12.7858 14.8206H9.797C9.46491 14.8206 9.29886 14.9036 9.21584 14.9866L9.13281 15.0697C9.13281 15.0697 9.13281 15.1527 9.13281 15.2357C9.13281 15.3187 9.13282 15.4018 9.21584 15.5678C9.63096 16.5641 10.1291 17.5604 10.6272 18.5566C11.1254 19.4699 11.6235 20.3001 11.9556 20.8813C12.3707 21.4624 12.7028 22.0436 13.1179 22.5417C13.533 23.0399 13.7821 23.372 13.8651 23.538C14.0312 23.7041 14.1142 23.7871 14.1972 23.8701L14.4463 24.1192C14.6123 24.2852 14.8614 24.5343 15.1935 24.7833C15.5256 25.0324 15.9407 25.2815 16.3558 25.5306C16.7709 25.7796 17.2691 25.9457 17.7672 26.1117C18.3484 26.2778 18.8465 26.3608 19.3446 26.2778H20.59C20.839 26.2778 21.0051 26.1947 21.1712 26.0287L21.2542 25.9457C21.2542 25.8626 21.3372 25.8626 21.3372 25.7796C21.3372 25.6966 21.3372 25.6136 21.3372 25.4475C21.3372 25.1154 21.3372 24.8664 21.4202 24.6173C21.5032 24.3682 21.5032 24.2022 21.5863 24.0361C21.6693 23.8701 21.7523 23.7871 21.8353 23.7041C21.9183 23.621 22.0014 23.538 22.0014 23.538H22.0844C22.2504 23.455 22.4995 23.538 22.6656 23.7041C22.9146 23.8701 23.1637 24.1192 23.3297 24.3682C23.4958 24.6173 23.7449 24.8664 24.077 25.1985C24.409 25.5306 24.6581 25.7796 24.8242 25.8627L25.0732 26.0287C25.2393 26.1117 25.4053 26.1947 25.6544 26.2778C25.9035 26.3608 26.0695 26.3608 26.2355 26.3608L29.0583 26.2778C29.3074 26.2778 29.5565 26.1947 29.7225 26.1117C29.8885 26.0287 29.9716 25.9457 29.9716 25.7796C29.9716 25.6966 29.9716 25.5306 29.9716 25.4475C29.8055 25.2815 29.8055 25.1985 29.8055 25.1154Z" fill="white"/>
</svg>
