<svg width="30" height="30" fill="none" xmlns="http://www.w3.org/2000/svg"><circle cx="15" cy="15" r="14.5" fill="#fff" stroke="#3A81CF"/><path d="M21.125 17.946v1.92a1.278 1.278 0 01-1.395 1.279 12.66 12.66 0 01-5.521-1.964 12.477 12.477 0 01-3.84-3.84 12.661 12.661 0 01-1.963-5.546A1.28 1.28 0 019.679 8.4h1.92a1.28 1.28 0 011.279 1.1 8.12 8.12 0 00.448 1.798 1.28 1.28 0 01-.288 1.35l-.813.813a10.237 10.237 0 003.839 3.839l.813-.813a1.28 1.28 0 011.35-.288c.58.217 1.183.367 1.797.448a1.28 1.28 0 011.1 1.299z" fill="#3A81CF"/></svg>