<svg width="23" height="23" fill="none" xmlns="http://www.w3.org/2000/svg"><path d="M21.083 16.215v2.875a1.917 1.917 0 01-2.089 1.917 18.965 18.965 0 01-8.27-2.943 18.687 18.687 0 01-5.75-5.75 18.965 18.965 0 01-2.942-8.308 1.917 1.917 0 011.907-2.09h2.875a1.917 1.917 0 011.916 1.65c.122.92.347 1.823.671 2.693A1.917 1.917 0 018.97 8.28L7.753 9.497a15.334 15.334 0 005.75 5.75l1.217-1.217a1.916 1.916 0 012.022-.431c.87.324 1.773.55 2.693.67a1.917 1.917 0 011.648 1.946z" stroke="#3A81CF" stroke-width="2" stroke-linecap="round" stroke-linejoin="round"/></svg>