<svg width="90" height="40" fill="none" xmlns="http://www.w3.org/2000/svg"><rect x=".5" y=".5" width="89" height="39" rx="8.5" fill="#fff"/><path d="M40.533 20.256c0 2.776-2.204 4.822-4.908 4.822-2.705 0-4.908-2.046-4.908-4.822 0-2.795 2.203-4.821 4.908-4.821 2.704 0 4.908 2.026 4.908 4.821zm-2.149 0c0-1.735-1.277-2.921-2.76-2.921-1.482 0-2.759 1.186-2.759 2.921 0 1.718 1.277 2.922 2.76 2.922 1.482 0 2.76-1.207 2.76-2.922z" fill="#EA4335"/><path d="M51.121 20.256c0 2.776-2.203 4.822-4.908 4.822-2.704 0-4.908-2.046-4.908-4.822 0-2.793 2.204-4.821 4.908-4.821 2.705 0 4.908 2.026 4.908 4.821zm-2.148 0c0-1.735-1.277-2.921-2.76-2.921-1.482 0-2.76 1.186-2.76 2.921 0 1.718 1.278 2.922 2.76 2.922 1.483 0 2.76-1.207 2.76-2.922z" fill="#FBBC05"/><path d="M61.268 15.726v8.656c0 3.561-2.13 5.016-4.65 5.016-2.371 0-3.798-1.563-4.337-2.842l1.871-.767c.333.785 1.15 1.71 2.464 1.71 1.613 0 2.612-.98 2.612-2.825v-.694h-.075c-.481.585-1.407 1.096-2.577 1.096-2.446 0-4.687-2.1-4.687-4.802 0-2.722 2.241-4.84 4.687-4.84 1.167 0 2.094.511 2.577 1.079h.075v-.785h2.04v-.002zm-1.888 4.548c0-1.698-1.15-2.94-2.612-2.94-1.482 0-2.724 1.242-2.724 2.94 0 1.68 1.242 2.904 2.724 2.904 1.463 0 2.612-1.224 2.612-2.904z" fill="#4285F4"/><path d="M64.632 10.652v14.13h-2.096v-14.13h2.096z" fill="#34A853"/><path d="M72.799 21.843l1.667 1.096c-.538.785-1.835 2.137-4.076 2.137-2.78 0-4.855-2.117-4.855-4.822 0-2.867 2.093-4.821 4.614-4.821 2.54 0 3.781 1.99 4.187 3.067l.223.548-6.54 2.67c.5.967 1.279 1.46 2.37 1.46 1.095 0 1.854-.53 2.41-1.335zm-5.133-1.734l4.372-1.79c-.24-.602-.964-1.021-1.816-1.021-1.092 0-2.612.95-2.556 2.81z" fill="#EA4335"/><path d="M22.784 19.003v-2.046h6.995c.069.356.104.778.104 1.235 0 1.535-.426 3.432-1.798 4.785-1.335 1.369-3.04 2.1-5.299 2.1-4.186 0-7.707-3.361-7.707-7.488 0-4.126 3.52-7.486 7.707-7.486 2.317 0 3.967.895 5.206 2.063l-1.464 1.443c-.89-.822-2.094-1.46-3.744-1.46a5.41 5.41 0 00-5.448 5.44 5.41 5.41 0 005.448 5.442c1.983 0 3.113-.785 3.836-1.498.587-.578.973-1.404 1.125-2.533l-4.96.003z" fill="#4285F4"/><rect x=".5" y=".5" width="89" height="39" rx="8.5" stroke="#EFEEEA"/></svg>