<svg width="100" height="40" fill="none" xmlns="http://www.w3.org/2000/svg"><rect x=".5" y=".5" width="99" height="39" rx="8.5" fill="#fff"/><path d="M81.739 27.415c1.373 0 2.346-.246 3.07-.774v-2.396c-.743.51-1.64.83-2.899.83-2.117 0-2.994-1.623-2.994-4.189 0-2.698 1.068-4.075 3.013-4.075 1.145 0 2.27.396 2.861.773v-2.49c-.629-.34-1.716-.585-3.204-.585-3.796 0-5.76 2.698-5.76 6.471.019 4.133 1.945 6.434 5.913 6.434zM63.18 26.32v-2.396c-.916.623-2.48 1.17-3.91 1.17-2.174 0-2.995-1.02-3.128-3.095h7.172v-1.547c0-4.32-1.927-5.943-4.883-5.943-3.624 0-5.34 2.736-5.34 6.49 0 4.321 2.154 6.416 5.931 6.416 1.888 0 3.28-.51 4.158-1.095zM35.962 14.735v4.906h-3.967v-4.906h-2.976V27.17h2.976v-5.19h3.967v5.19h2.975V14.734h-2.975zM52.346 24.83H51.03V14.734h-8.66v1.057c0 3.037-.19 6.962-1.239 9.037h-.954V30h2.747v-2.83h6.657V30h2.746v-5.17h.02zm20.314 2.34h3.376l-4.769-6.699 4.196-5.736H72.47l-4.196 5.736v-5.736h-2.976V27.17h2.976v-6.113l4.387 6.113zM58.354 16.81c1.47 0 1.927 1.208 1.927 2.774v.245h-4.14c.077-1.98.802-3.018 2.213-3.018zm-10.3 8.02h-4.196c.82-1.868 1.05-5.265 1.05-7.415v-.378h3.147v7.793z" fill="#000"/><path d="M26.54 27.17h-3.033V12.32h-1.354c-2.48 0-3.777 1.227-3.777 3.057 0 2.076.896 3.038 2.747 4.264l1.525 1.02-4.386 6.509H15l3.948-5.812c-2.27-1.603-3.548-3.17-3.548-5.81 0-3.303 2.327-5.548 6.734-5.548h4.386v17.17h.02z" fill="#FC3F1D"/><rect x=".5" y=".5" width="99" height="39" rx="8.5" stroke="#EFEEEA"/></svg>