<svg width="25" height="25" fill="none" xmlns="http://www.w3.org/2000/svg"><path fill-rule="evenodd" clip-rule="evenodd" d="M12.83 3.198a.781.781 0 00-.66 0L.451 8.668a.781.781 0 00.04 1.432l11.718 4.687a.781.781 0 00.581 0l9.085-3.63v9.155a1.562 1.562 0 00-1.563 1.563V25H25v-3.125a1.563 1.563 0 00-1.563-1.563V10.53l1.072-.43a.781.781 0 00.04-1.433l-11.72-5.469zm-.33 10.02L2.747 9.32 12.5 4.77l9.753 4.551L12.5 13.22zm-5.975.891a.78.78 0 00-1.025.513l-.782 2.656a.781.781 0 00.46.945l7.031 2.813a.781.781 0 00.581 0l7.032-2.813a.781.781 0 00.459-.945l-.781-2.656a.78.78 0 00-1.025-.511L12.5 16.353l-5.975-2.24v-.004zm-.107 2.928l.344-1.168 5.463 2.048a.78.78 0 00.55 0l5.462-2.048.344 1.168L12.5 19.47l-6.082-2.432z" fill="#3A81CF"/></svg>