<svg width="244" height="561" fill="none" xmlns="http://www.w3.org/2000/svg"><path d="M111.851.974c-5.914 1.75-10.622 5.583-12.921 10.514-2.083 4.05-2.3 6.349-2.083 14.128.441 8.431.218 9.198-1.424 8.649-1.641-.44-1.973.108-1.973 3.615 0 6.349 1.865 11.28 5.583 15.22 2.957 3.067 3.506 4.6 4.381 12.047 1.973 18.178-2.299 23.326-27.816 32.85-20.26 7.447-23.435 13.797-21.136 42.053.55 7.665.44 15.113-.44 22.451-1.207 10.182-2.74 15.879-10.182 36.139-1.75 4.817-3.174 12.155-3.94 19.711-1.208 12.264-5.149 28.909-9.09 37.89-2.3 5.365-1.641 5.039-14.128 8.214-2.408.657-17.52 15.329-16.645 16.204 1.532 1.533 6.79.55 10.622-2.082 2.19-1.533 4.272-2.74 4.707-2.74 1.642 0-1.424 9.307-6.35 19.054-2.956 5.914-5.364 11.497-5.364 12.595 0 .984 1.315 2.957 2.848 4.382l2.74 2.625 2.626-2.517 2.74-2.631-.658 3.398c-.44 2.082-.218 3.615.657 4.164 1.86 1.201 5.366-2.517 9.415-10.405l3.724-7.115-.766 5.474c-1.642 12.372 1.092 14.454 4.707 3.506.984-3.066 4.05-10.622 6.681-16.645 2.74-6.023 5.583-13.688 6.458-16.977.875-3.283 3.615-9.747 6.023-14.237 10.514-19.385 20.918-48.185 22.886-63.515 1.75-12.922 2.849-14.128 3.724-3.724.984 11.497-1.642 36.465-5.806 55.193-8.202 37.014-9.078 43.477-9.192 61.324 0 16.754.875 28.359 4.273 62.965 1.75 17.303 1.75 17.738-.658 32.307-3.175 19.162-2.626 37.455 2.19 69.538 3.833 25.408 4.273 35.481 2.192 50.919-1.207 9.416-1.75 11.063-6.132 17.629-8.432 12.705-5.692 17.412 9.855 17.412 10.513 0 13.797-.984 15.112-4.273.876-2.408 1.316-10.622 2.191-40.08 0-3.066-.217-10.181-.766-15.878-.767-9.856-.55-11.498 4.273-33.182 4.816-21.793 5.039-23.544 5.039-40.08 0-14.346.326-18.396 2.191-23.544 3.066-8.98 5.148-20.146 6.463-34.057.549-6.681 2.082-16.204 3.283-21.244 1.207-5.148 3.066-17.96 4.05-28.583l1.859-19.385h8.1l1.859 19.271c.984 10.622 2.74 23.326 3.941 28.257 1.092 4.816 2.631 14.454 3.283 21.353 1.424 14.454 3.615 25.517 6.572 34.383 1.859 5.256 2.191 9.197 2.191 23.76 0 16.754.218 18.396 5.039 40.08 4.817 21.462 5.04 23.104 4.268 32.965-.55 5.697-.767 12.813-.767 15.879.875 31.208 1.316 38.987 2.3 40.846 1.315 2.517 5.474 3.506 15.003 3.506 15.221 0 18.613-5.365 10.296-16.536-4.816-6.355-4.816-6.241-6.681-19.053-1.973-13.471-1.424-25.294 2.3-50.376 4.816-32.198 5.365-50.485 2.19-69.538-2.408-14.455-2.408-14.895-.657-32.307 3.506-35.041 4.272-46.321 4.272-62.966-.108-17.852-1.092-24.418-9.197-61.324-4.165-18.727-6.79-43.695-5.806-55.192.875-10.405 1.973-9.198 3.724 3.724 1.973 15.22 12.263 43.912 22.342 62.531 2.74 5.039 5.691 11.937 6.572 15.22.875 3.284 3.724 10.954 6.458 16.977 2.631 6.024 5.697 13.58 6.681 16.646 3.615 10.953 6.349 8.871 4.708-3.507l-.767-5.474 3.724 7.116c4.05 7.882 7.556 11.606 9.415 10.405.875-.55 1.092-2.082.658-4.165l-.658-3.397 2.74 2.631 2.631 2.517 2.74-2.626c1.533-1.424 2.848-3.392 2.848-4.49 0-.984-2.408-6.572-5.474-12.595-5.148-10.073-7.556-17.195-6.24-18.51.217-.326 2.408.658 4.599 2.299 3.941 2.626 9.198 3.615 10.73 2.082.876-.875-14.345-15.547-16.753-16.205-.876-.217-3.941-.983-6.79-1.75-4.599-1.207-5.257-1.865-7.339-6.681-3.941-8.98-7.665-25.076-8.98-37.672-.767-7.556-2.191-14.895-3.941-19.711-7.448-20.26-8.981-25.951-10.182-36.139-.875-7.007-.984-15.221-.44-22.994.44-6.572.766-14.563.549-17.521-.658-12.046-6.79-19.053-20.695-23.652-11.389-3.723-23.761-10.404-26.501-14.128-3.066-4.273-3.724-8.98-2.74-19.162.658-7.007 1.207-8.763 3.507-10.73 4.049-3.507 5.805-7.774 6.131-14.238.218-4.816-.108-5.697-1.75-5.583-1.75.218-1.865-.657-1.207-8.214.658-7.115.326-9.306-1.533-13.47-2.517-5.692-7.556-9.964-13.905-11.715C126.197-.34 116.227-.34 111.851.974z" fill="#C1B7A2"/></svg>