<svg width="80" height="80" fill="none" xmlns="http://www.w3.org/2000/svg"><rect width="80" height="80" rx="40" fill="#3A81CF"/><g clip-path="url(#clip0_778_98)" fill="#fff"><path d="M27.523 23.54l-3.539 3.53L24 40.82l.023 13.75.172.32c.242.462.727.86 1.203 1 .29.087.743.126 1.493.126h1.078v1.078c0 .75.039 1.203.125 1.492.14.477.539.96 1 1.203l.32.172h25.172l.375-.234c.508-.313.867-.797.969-1.305.062-.297.086-5.164.07-16.664l-.023-16.25-.211-.399c-.47-.89-1.032-1.125-2.696-1.125h-1.117V22.75c0-1.172-.008-1.258-.203-1.64a2.301 2.301 0 00-.484-.641c-.602-.492-.032-.469-10.594-.469h-9.617l-3.532 3.54zm22.954-1.985c.148.18.148.547.148 16.445 0 16.234 0 16.266-.156 16.438a.833.833 0 01-.336.21c-.094.024-5.633.032-12.305.024l-12.14-.024-.188-.218-.188-.22V27.97h2.508c1.703 0 2.61-.032 2.82-.094.4-.117.946-.602 1.15-1.023.155-.32.163-.461.163-2.93v-2.594l9.188.016 9.187.023.149.188zm-19.852 2.742v1.96l-.195.188-.188.196H26.29l2.148-2.149c1.18-1.18 2.157-2.148 2.165-2.148.015 0 .023.883.023 1.953zm23.664 1.133a.706.706 0 01.313.36c.062.179.086 4.733.086 16.218 0 17.14.015 16.367-.376 16.578-.117.062-3.765.086-12.351.086H29.773l-.218-.188c-.22-.187-.22-.187-.242-1.328l-.024-1.14h10.453c6.875 0 10.555-.032 10.742-.078.508-.141 1.016-.547 1.25-1.008l.22-.414V39.969c0-8.008.023-14.578.054-14.602.023-.031.5-.055 1.054-.055.735 0 1.07.032 1.227.118z"/><path d="M28.25 31.5a.837.837 0 00-.25.43c-.04.21-.008.289.188.492l.234.234h19.164l.187-.195c.328-.32.243-.82-.172-1.04-.124-.07-2.593-.093-9.663-.093h-9.493l-.195.172zm-.086 3.437c-.242.282-.227.618.047.883.148.157.266.157 6.344.172 4.851.016 6.226 0 6.383-.078.421-.21.492-.734.156-1.07-.157-.157-.29-.157-6.438-.157h-6.281l-.21.25zm15.399-.085a.476.476 0 00-.204.421c0 .704.133.743 2.336.743h1.79l.242-.203c.312-.258.336-.649.046-.93l-.187-.196H45.68c-1.813 0-1.922.008-2.117.165zM28.39 38.078a.637.637 0 00-.343.828c.055.133.164.274.242.313.078.047.977.078 2.063.078h1.921l.188-.195c.25-.243.25-.586.008-.875l-.188-.22-1.828-.015c-1.406-.015-1.875 0-2.062.086zm6.766-.055c-.468.172-.633.782-.289 1.102l.18.172h12.601l.157-.203c.218-.274.203-.602-.024-.867l-.187-.22-6.164-.015c-3.383-.008-6.211.008-6.274.031zM28.25 41.5a.837.837 0 00-.25.43c-.04.21-.008.289.188.492l.234.234h2.5l.203-.242c.266-.312.258-.578-.023-.86l-.227-.226h-1.219c-1.14 0-1.218.008-1.406.172zm5.305.023c-.282.274-.274.75.008.97.203.163.273.163 4.437.163 4.46-.008 4.367 0 4.563-.367.148-.273.109-.492-.133-.734l-.227-.227h-8.461l-.187.195zm11.468-.117c-.375.149-.453.742-.14 1.055.187.187.21.195 1.445.195 1.234 0 1.258-.008 1.445-.195.329-.32.243-.82-.171-1.04-.204-.108-2.313-.116-2.579-.015zm-16.859 3.532c-.242.28-.227.617.047.882.148.157.266.157 9.71.18l9.563.016.243-.203c.312-.258.336-.649.046-.93l-.187-.196H28.375l-.21.25zm.226 3.14a.635.635 0 00-.343.828c.055.133.164.274.242.313.078.047 1.102.078 2.398.078h2.258l.164-.18c.196-.203.227-.64.063-.851-.195-.258-.5-.297-2.531-.297-1.5.008-2.07.031-2.25.11zm7.337.008c-.313.133-.446.375-.383.71.078.384.297.5.968.5.665 0 .82-.062.954-.39a.627.627 0 00-.36-.828c-.328-.14-.86-.133-1.18.008z"/></g><defs><clipPath id="clip0_778_98"><path fill="#fff" transform="translate(20 20)" d="M0 0h40v40H0z"/></clipPath></defs></svg>