<svg width="80" height="80" fill="none" xmlns="http://www.w3.org/2000/svg"><rect width="80" height="80" rx="40" fill="#3A81CF"/><path d="M21.21 20.398c-.624.18-1.21 1.016-1.21 1.712 0 .437.164.788.867 1.93.649 1.046 1.172 1.718 2.18 2.796 1.508 1.617 1.86 2.102 5.039 7.031 3.195 4.953 5.156 7.899 5.305 7.953.422.164.828-.078.828-.484 0-.164-.446-.906-1.586-2.633-1.992-3.031-5.438-8.36-5.492-8.5-.032-.086.914-.86 1.43-1.164.093-.062 1.46 1.078 2.171 1.813.32.336.43.398.672.398.352 0 .54-.195.54-.555 0-.351-.462-.835-2.267-2.367-.75-.64-1.437-1.226-1.515-1.305-.149-.14-.149-.148.172-.492.562-.609.68-.914.68-1.765 0-.672-.024-.781-.227-1.156-.266-.47-.672-.875-1.133-1.102-.172-.094-.742-.235-1.273-.32-1.61-.258-2.047-.422-2.977-1.149-.312-.242-.703-.5-.875-.578-.328-.156-.93-.18-1.328-.063zm1.571 1.641c1.07.813 1.43.945 3.93 1.399.727.132 1.18.632 1.18 1.312 0 .414-.094.64-.399.985l-.25.288-.265-.453c-.5-.828-1.063-1.304-1.907-1.585a3.044 3.044 0 00-2.148.109c-.242.11-.469.187-.5.164-.172-.11-1.25-1.992-1.25-2.18 0-.297.32-.593.633-.593.195 0 .43.132.976.554zm2.196 3.14c.445.235.734.54 1.101 1.18.242.422.57.836.985 1.243.335.328.601.617.585.633-.015.015-.296.226-.617.468l-.586.43-.156-.203c-.93-1.219-1.5-1.922-2.187-2.68-.454-.492-.82-.937-.82-.977.007-.265 1.226-.335 1.695-.093z" fill="#fff"/><path d="M32.445 32.625c-.242.242-.242.273.313 1.828.547 1.555.64 1.664 1.875 2.266.523.25 1.234.64 1.578.875.695.468 1.93 1.61 2.344 2.172.148.203.328.398.398.422.07.023.445.085.836.124.922.11 1.492.36 1.992.891s.719 1.11.711 1.867c-.008.938-.047 1-1.578 2.594-.766.797-1.445 1.445-1.5 1.445-.164 0-2.273-2.132-3.117-3.14-.79-.953-.984-1.094-1.344-.93-.226.102-.367.43-.297.664.032.086.36.524.727.969l.812.984c.14.172.14.219.016 1.032-.195 1.328-.156 2.765.148 5.539.149 1.328.258 2.43.25 2.445a9.147 9.147 0 01-.843-.063c-1.203-.117-2.04-.007-4.282.586-1.054.274-2.007.524-2.117.547-.187.047-.219.016-.5-.672-.336-.812-.703-1.242-1.273-1.492-.446-.203-1.188-.219-1.617-.031-.774.328-5.25 2.844-5.477 3.078-.836.86-.547 2.367.547 2.875l.398.188h8.836c8.586 0 8.86-.008 9.336-.157.953-.297 1.766-1.039 2.11-1.945.203-.54.195-.875-.032-1.086-.343-.328-.843-.14-.96.352a2.23 2.23 0 01-1.243 1.476l-.39.188h-7.696V57.46c0-.578.016-1.055.024-1.055.015 0 .593-.14 1.273-.32 1.578-.406 2.633-.445 3.914-.148.75.171.805.171.992.046a.659.659 0 00.25-.32c.024-.102-.101-1.5-.28-3.102-.321-2.89-.407-4.757-.25-5.421l.054-.243 1.172 1.047c.875.782 2.86 2.383 2.976 2.407.008 0-.086.804-.21 1.796-.126.985-.227 1.907-.227 2.04 0 .5.61.757.96.406.157-.157.204-.367.368-1.758.101-.875.21-1.617.234-1.664.024-.047.453.133 1.024.422 1.078.562 1.937.914 2.554 1.062.22.047.407.102.414.102l.102 2.633c.094 2.406.117 2.656.273 3.007.211.47.477.766.946 1.04l.351.21 3.75.024c2.727.016 3.844 0 4.086-.07.438-.118 1.055-.672 1.227-1.102.219-.531.187-1.21-.086-1.703-.227-.414-.477-.649-.969-.906-.242-.118-.601-.149-2.844-.203a98.125 98.125 0 01-2.586-.079c-.015-.015.047-.882.125-1.93.141-1.812.157-1.913.329-2.023.312-.21 1.07-1.039 1.28-1.406.11-.203.22-.383.227-.398.016-.008.243.21.516.5.89.96 1.719 1.406 2.57 1.398.867 0 1.664-.508 2.766-1.75 1.312-1.484 1.625-3.195.875-4.71-.531-1.08-1.055-1.407-1.5-.954-.242.242-.242.414 0 .75.25.344.61 1.016.562 1.055-.015.015-.273-.078-.57-.22-.453-.21-.648-.257-1.242-.28-.656-.032-.75-.016-1.422.25-.57.218-.836.28-1.234.28-.282 0-.508-.023-.508-.062 0-.164.5-.882.812-1.172.383-.351 1.063-.718 1.344-.718.274 0 .656-.164.734-.313.235-.445-.07-.86-.632-.86-.414 0-1.258.29-1.672.571-.711.485-1.469 1.406-1.68 2.055-.086.25-.101.266-.226.156-.266-.242-1.172-.594-1.961-.758-.68-.148-1.118-.18-2.54-.195-.945-.008-1.937-.055-2.195-.102-.398-.078-1.43-.39-1.914-.586-.101-.046-.117-.187-.086-.93.04-.96-.093-1.507-.515-2.234-.625-1.062-2.07-1.882-3.336-1.882-.203 0-.313-.086-.703-.547-.93-1.094-2.227-2.07-3.727-2.813-.508-.242-.969-.492-1.031-.539-.063-.054-.25-.492-.407-.969-.523-1.578-.687-1.851-1.124-1.851-.086 0-.25.094-.368.203zM45.32 45.906c.407.086 1.11.125 2.375.14 2.438.032 3.29.204 3.946.798.39.351.586.843.523 1.343-.062.508-.32 1.18-.625 1.586l-.25.344-.047-.39c-.094-.782-.539-1.399-1.258-1.75-.851-.43-1.89-.305-2.593.312a2.924 2.924 0 00-.57.758c-.212.422-.22.5-.212 1.484 0 1.196.133 1.11-1.023.664-.93-.351-2.14-1-3.203-1.703-.875-.586-1.93-1.398-1.977-1.523-.015-.04.563-.68 1.29-1.43L43 45.18l.875.298c.477.164 1.133.359 1.445.43zm12.18 1.04c.469.179 1.172.679 1.172.835 0 .555-1.445 2.266-2.227 2.657-.468.226-.695.21-1.25-.07-.437-.22-1.375-1.188-1.586-1.65a3.03 3.03 0 01-.226-.898l-.04-.515.884-.008c.812 0 .937-.024 1.476-.25.695-.29 1.227-.32 1.797-.102zm-7.938 2.109c.594.398.602.508.32 4.187-.109 1.375-.194 2.664-.194 2.86 0 .562.148.648 1.195.695l.875.039.023.836.024.844h-1.532c-1.671 0-1.843-.04-2.109-.446-.133-.195-.164-.617-.289-4.234-.14-3.914-.14-4.023 0-4.297.219-.414.578-.633 1.063-.633.257 0 .476.055.624.149zm-22.296 5.703c.109.078.273.281.367.453l.18.312-.47.047a2.798 2.798 0 00-.835.22c-.781.374-1.531 1.452-1.64 2.335l-.048.39h-1.586c-.867 0-1.64-.023-1.71-.046-.149-.063-.352-.43-.352-.649 0-.086.078-.242.172-.351.172-.188 4.742-2.742 5.14-2.867.25-.079.532-.024.782.156zM28 56.844c.469.125 1.32.117 1.984-.016l.25-.047v1.735h-4.219v-.18c0-.273.352-.93.633-1.195.5-.461.618-.485 1.352-.297zm27.695.078a.8.8 0 01.594 1.094c-.195.468-.312.5-1.89.5h-1.43v-1.641h1.242c.68 0 1.344.023 1.484.047z" fill="#fff"/></svg>