<svg width="80" height="80" fill="none" xmlns="http://www.w3.org/2000/svg"><rect width="80" height="80" rx="40" fill="#3A81CF"/><path d="M28.227 22.61c-1.493.367-2.758 1.632-3.11 3.101-.101.438-.117 2.266-.117 14.29 0 12.023.016 13.85.117 14.288.367 1.555 1.758 2.867 3.32 3.133.36.055 3.407.078 10.196.063l9.687-.024.5-.18a4.353 4.353 0 002.61-2.57c.172-.445.172-.531.195-4.766.023-4.75.031-4.664-.445-4.867a.88.88 0 00-.953.203l-.188.203L50 49.712l-.04 4.234-.187.414c-.242.532-.882 1.125-1.43 1.32-.39.134-.906.141-10.062.141h-9.648l-.438-.203c-.617-.289-1.023-.687-1.289-1.258l-.226-.492V26.133l.218-.469c.282-.61.665-.992 1.258-1.265l.477-.22h19.453l.406.188c.586.266 1.117.86 1.383 1.547.234.617.305.695.672.805.32.094.719-.063.906-.344.274-.422-.039-1.453-.687-2.297-.407-.515-1.164-1.07-1.852-1.336l-.516-.203-9.882-.015c-7.797-.008-9.97.007-10.29.085z" fill="#fff"/><path d="M52.898 28.125c-.46.102-.953.406-1.296.805-.297.336-9.57 16.312-10.118 17.422-.351.71-.445 1.203-.539 2.843-.086 1.47-.039 1.711.453 2.22.29.296.438.382.79.46.624.14.921.031 2.164-.797 1.414-.93 1.664-1.148 2.086-1.765.539-.805 9.968-17.188 10.093-17.54.149-.421.14-1.187-.023-1.656-.203-.57-.906-1.242-1.742-1.664-.727-.36-1.258-.453-1.868-.328zm1.29 1.914c.578.32.812.594.812.922 0 .219-.773 1.711-.938 1.813-.085.054-2.109-1.126-2.109-1.227 0-.156.86-1.54 1.031-1.656.282-.203.664-.149 1.203.148zm-2.016 3.633c.562.32 1.031.602 1.031.625 0 .133-8.086 14.008-8.32 14.281-.274.313-.758.672-1.867 1.375l-.453.29.054-1.079c.024-.594.102-1.281.164-1.523.078-.344 1.102-2.18 4.188-7.524 2.25-3.89 4.101-7.062 4.133-7.054.023.015.507.289 1.07.609zm-19.18-4.414c-.258.11-.492.461-.492.742 0 .29.234.633.508.75.398.165 13.586.165 13.984 0 .274-.117.508-.46.508-.75 0-.289-.234-.632-.508-.75-.39-.164-13.625-.156-14 .008zm-2.5 5c-.258.11-.492.461-.492.742 0 .29.234.633.508.75.398.165 14.523.165 14.922 0 .273-.117.508-.46.508-.75 0-.289-.235-.632-.508-.75-.39-.164-14.563-.156-14.938.008zm0 5c-.258.11-.492.461-.492.742 0 .29.234.633.508.75.39.165 11.633.165 12.023 0 .336-.14.516-.398.516-.75 0-.351-.18-.609-.516-.75-.383-.164-11.664-.156-12.039.008zm0 5c-.258.11-.492.461-.492.742 0 .29.234.633.508.75.39.165 8.742.165 9.133 0 .336-.14.515-.398.515-.75 0-.351-.18-.609-.515-.75-.383-.164-8.782-.156-9.149.008zm0 5c-.258.11-.492.461-.492.742 0 .29.234.633.508.75.39.165 7.805.165 8.195 0 .336-.14.516-.398.516-.75 0-.351-.18-.609-.516-.75-.383-.156-7.844-.156-8.21.008z" fill="#fff"/></svg>