<svg width="80" height="80" fill="none" xmlns="http://www.w3.org/2000/svg"><rect width="80" height="80" rx="40" fill="#3A81CF"/><path d="M50.43 23.438a4.77 4.77 0 00-2.899 1.914l-.289.43-.203-.134a15.42 15.42 0 00-.812-.5 7.894 7.894 0 00-6.25-.812c-1.579.46-2.446 1.023-4.227 2.758-.734.718-4.563 4.445-8.5 8.281-3.945 3.836-7.188 7.055-7.21 7.148-.024.094-.04 1.75-.024 3.688.023 3.43.03 3.523.195 3.828.094.172.281.422.43.555.257.242 8.492 5.61 9.086 5.922.437.226 1.28.226 1.718-.008.172-.086 2.453-1.946 5.078-4.125 3.274-2.719 4.97-4.078 5.43-4.344 2.336-1.36 5.406-1.844 8.633-1.352 2.148.32 4.055-.07 5.781-1.18.805-.523 1.29-.952 1.844-1.655 1.43-1.797 2.055-4.227 1.672-6.477-.438-2.523-1.813-4.508-3.985-5.734-1.086-.625-1.03-.524-.64-1.102 1.648-2.469.469-5.922-2.367-6.922-.641-.219-1.86-.312-2.461-.18zm1.718 1.367a3.273 3.273 0 011.594.937c.875.922 1.149 2.156.75 3.36-.133.406-.578 1.132-.687 1.132-.047 0-.758-.453-1.055-.664-.008-.008.102-.218.25-.46.523-.876.43-1.782-.266-2.47-.664-.663-1.523-.788-2.367-.335-.344.195-.765.633-.86.906-.015.055-.241-.047-.593-.281l-.555-.367.125-.25c.196-.375.899-1.032 1.328-1.243.782-.375 1.563-.46 2.336-.265zm-8.554.703c1.367.32 1.32.297 6.36 3.75l1.929 1.328-.555.055a8.793 8.793 0 00-3.836 1.382c-.351.235-2.945 2.79-8.703 8.57l-8.203 8.235-4.398-3.078a579.627 579.627 0 01-4.43-3.11c-.047-.046 15.75-15.413 16.312-15.867.727-.585 1.875-1.117 2.797-1.296.586-.118 2.172-.094 2.727.03zm8.21 2.039c.313.281.258.765-.124 1.015-.188.118-.211.118-.586-.125-.485-.312-.532-.57-.14-.898.273-.227.593-.227.85.008zm1.946 4.64c2.328.649 4.07 2.415 4.703 4.766.25.945.25 2.563 0 3.516-.703 2.617-2.773 4.492-5.437 4.922-.657.109-1.47.078-3.055-.118-1.266-.156-3.133-.125-4.297.07-1.617.282-3.242.868-4.539 1.641-.39.235-2.406 1.844-5.195 4.164l-4.563 3.782-.023-2.477-.016-2.469 8.14-8.203c4.485-4.515 8.36-8.36 8.618-8.539.852-.61 1.727-.976 2.797-1.18.765-.148 2.11-.085 2.867.126zm-27.523 15.22L30 50.038v5.109l-4.156-2.695c-2.29-1.484-4.242-2.781-4.336-2.89-.18-.196-.18-.204-.18-2.891v-2.695l.57.406c.305.219 2.258 1.578 4.329 3.023z" fill="#fff"/><path d="M36.633 30.07c-.188.125-.844.727-1.453 1.344-1.18 1.203-1.352 1.484-1.242 2.063.109.562.304.718 2.796 2.21 2.555 1.532 2.774 1.626 3.36 1.43.18-.062.687-.508 1.562-1.398 1.086-1.086 1.313-1.36 1.383-1.64.11-.384.016-.821-.227-1.134-.117-.148-4.062-2.578-4.898-3.015-.328-.164-.898-.11-1.281.14zm2.914 2.367c1.172.696 2.148 1.274 2.172 1.29.015.015-.438.5-1.016 1.078l-1.055 1.054-2.109-1.257a73.61 73.61 0 01-2.188-1.328c-.046-.047.29-.438.938-1.087.555-.562 1.04-1.015 1.07-1.015.032 0 1.016.57 2.188 1.265zm11.343.961c-1.234.266-2.843 1.313-2.843 1.844 0 .219.203.586.351.649.305.117.578.039.946-.266 1.672-1.375 3.898-1.344 5.39.094.875.836 1.242 1.68 1.242 2.875 0 1.11-.312 1.89-1.046 2.687a3.82 3.82 0 01-1.547 1.04c-.453.179-.664.21-1.43.218-.969.016-1.219.086-1.297.383-.156.64.157.922 1.086.969 1.711.086 3.477-.711 4.477-2.04 1.484-1.96 1.484-4.554 0-6.515-.953-1.258-2.625-2.063-4.242-2.047-.336 0-.82.055-1.086.11zm-4.296 3.219c-.086.016-.383.258-.657.531-.43.438-.5.547-.5.79 0 .218.055.328.22.468.359.32.617.258 1.179-.289.539-.515.664-.797.492-1.133-.11-.234-.469-.406-.734-.367zm.875 5.719c-.367.039-.492.094-.649.273-.242.282-.203.625.102.883.164.149.289.18.719.18 1.07-.008 1.5-.211 1.5-.711a.786.786 0 00-.18-.43c-.156-.172-.258-.218-.61-.234a6.867 6.867 0 00-.882.039zM22.86 47.898c-.235.274-.258.508-.087.758.204.282 4.985 3.219 5.243 3.219.257-.008.437-.117.562-.367.14-.258.117-.461-.078-.688-.102-.11-1.25-.867-2.563-1.68-2.625-1.632-2.718-1.671-3.078-1.242z" fill="#fff"/></svg>