<svg width="80" height="80" fill="none" xmlns="http://www.w3.org/2000/svg"><rect width="80" height="80" rx="40" fill="#3A81CF"/><path d="M54.79 21.71a3.383 3.383 0 00-1.759 1.188c-.117.149-1.476 2.43-3.031 5.07-1.555 2.641-2.86 4.837-2.898 4.876-.04.047-.07-.54-.07-1.485v-1.554l-4.024-4.024-4.024-4.023h-2.148c-2.102 0-2.148 0-2.313.172-.234.234-.234.625 0 .82.164.125.344.14 1.891.14h1.703l.024 3.297c.023 3.72.015 3.665.633 4.157l.304.242 3.39.023 3.391.024v6.297l-2.398 4.078-2.398 4.07-7.672.016c-7.422.023-7.68.031-7.836.172-.211.195-.219.617-.008.828.156.156.258.156 7.46.156 4.017 0 7.306.023 7.306.055 0 .039-.282.53-.626 1.11-.68 1.148-.757 1.46-.5 2.007l.126.258-.563.953c-.313.523-.61 1.062-.672 1.21-.32.766.078 1.626.945 2.032.485.227.977.242 1.414.023.399-.187.54-.375 1.243-1.57.531-.898.547-.922.82-.922.148 0 .414-.078.578-.18.266-.148.469-.453 1.524-2.234l1.218-2.062.024 5.03c.008 2.767 0 5.08-.024 5.126-.047.14-24.414.148-24.554.008-.07-.07-.094-3.914-.094-16.813 0-16.43 0-16.734.156-16.976a.714.714 0 01.445-.328c.196-.055 2.079-.086 5.477-.086 5.07 0 5.172 0 5.328-.157.195-.195.203-.554.008-.789l-.148-.187h-5.461c-6.07 0-5.704-.031-6.336.547a1.83 1.83 0 00-.485.71c-.156.43-.156.462-.14 17.407l.023 16.976.227.32c.125.18.359.391.547.485.328.156.421.156 12.734.156 12.227 0 12.398 0 12.703-.156a1.87 1.87 0 00.523-.445l.22-.281.038-6.336.04-6.336.648-1.102c.351-.601.64-1.187.64-1.297 0-.515-.609-.742-.968-.367-.102.102-1.227 1.969-2.508 4.156-1.281 2.18-2.367 3.961-2.414 3.961-.188 0-2.196-1.242-2.188-1.351.008-.094 7.274-12.508 7.469-12.766.102-.133 2.352 1.203 2.29 1.367-.024.063-.345.625-.712 1.25-.781 1.328-.828 1.485-.555 1.766.227.226.485.258.735.086.086-.063.492-.68.89-1.367.696-1.188.75-1.258.938-1.22.305.056.781-.093 1.023-.32.118-.109 1.485-2.374 3.047-5.03 1.563-2.657 2.86-4.829 2.89-4.837.024 0 .142.188.259.422.273.555.336 1.172.164 1.68-.07.219-1.008 1.898-2.094 3.727-1.078 1.835-2 3.43-2.047 3.562-.164.445.328.906.758.71.133-.062.805-1.132 2.242-3.57 1.125-1.913 2.117-3.663 2.195-3.874.422-1.118.188-2.508-.593-3.414l-.274-.329.157-.39c.421-1.086.187-2.39-.594-3.235-.344-.375-1.055-.859-1.64-1.117-.5-.226-1.548-.32-2.04-.195zm1.827 1.415c.336.172.727.43.867.57.516.492.743 1.25.57 1.899-.07.258-6.296 10.968-6.476 11.14-.047.04-3.773-2.101-3.945-2.273-.031-.031 1.344-2.445 3.054-5.367 3.25-5.54 3.555-5.992 4.157-6.18.148-.047.476-.086.718-.094.376-.008.54.04 1.055.305zm-14.39 3.516l2.812 2.812H42.25c-2.68 0-2.797-.008-2.875-.148-.094-.18-.11-5.477-.016-5.477.032 0 1.32 1.266 2.868 2.813zm-1.102 24.148c.031.031-.14.398-.383.828-.617 1.047-.789 1.274-1.008 1.274-.226 0-.593-.282-.593-.453 0-.118.554-1.141.992-1.836l.187-.297.367.21a5.8 5.8 0 01.438.274z" fill="#fff"/><path d="M25.547 33.75c-.211.21-.203.633.008.828.156.14.406.149 7.976.149h7.813l.187-.22c.227-.265.235-.437.024-.71l-.157-.203h-7.851c-7.742 0-7.844 0-8 .156zm.016 3.828c-.227.211-.227.625-.008.828.156.14.422.149 7.875.172 5.476.016 7.765-.008 7.914-.07.406-.164.453-.797.07-1-.102-.063-2.594-.086-7.914-.086-7.71 0-7.766 0-7.938.156zm.031 3.836a.543.543 0 00-.024.836l.18.172h7.781c7.485 0 7.79-.008 7.961-.149.25-.203.25-.671 0-.875-.172-.14-.476-.148-7.937-.148-7.727 0-7.75 0-7.961.164zm4.867 7.867c-.406.274-2.711 2.282-2.758 2.407-.148.382.125.812.516.812.234 0 .32-.063 1.672-1.227.57-.484 1.054-.882 1.086-.882.03 0 .484.398 1.007.89 1.063.992 1.164 1.063 1.586 1.063.313 0 .477-.086 1.063-.578L35 51.46l.68.523c.664.516.898.594 1.195.438.211-.11.32-.484.203-.711-.125-.25-1.586-1.39-1.883-1.461-.367-.102-.539-.031-1.086.422-.28.234-.53.422-.562.422-.031 0-.477-.399-1-.883-.516-.492-1.023-.93-1.117-.977-.25-.132-.735-.109-.969.047z" fill="#fff"/></svg>