<svg width="80" height="80" fill="none" xmlns="http://www.w3.org/2000/svg"><rect width="80" height="80" rx="40" fill="#3A81CF"/><path d="M38.516 24.063c-3.782.39-7.164 1.992-9.813 4.64-3.828 3.829-5.445 9.22-4.367 14.54.352 1.734 1.195 3.828 2.117 5.265l.367.57-1.422 2.868c-.78 1.57-1.421 2.945-1.414 3.054.008.547.579 1.055 1.094.985.149-.016 1.516-.664 3.04-1.438l2.757-1.406.602.39c1.421.93 3.656 1.829 5.421 2.165 5.274 1.023 10.61-.61 14.399-4.399 4.766-4.765 6.031-11.875 3.21-18.039-.726-1.578-1.898-3.242-3.21-4.555-2.445-2.437-5.531-4.007-8.938-4.523-.945-.148-2.968-.21-3.843-.117zm3.289 2.07c2.734.36 5.195 1.453 7.32 3.266 2.39 2.031 4.086 5.008 4.672 8.219.203 1.101.203 3.664 0 4.765-.953 5.25-4.711 9.485-9.766 11.008-1.492.453-2.218.555-4.11.547-1.515 0-1.773-.024-2.663-.211-1.836-.39-3.516-1.086-4.969-2.063-.914-.617-1.203-.742-1.492-.68-.117.024-.953.43-1.867.9l-1.657.85.532-1.109c.297-.617.68-1.406.86-1.757.179-.368.32-.758.32-.899 0-.195-.157-.5-.594-1.156-1.696-2.57-2.461-5.266-2.352-8.281.047-1.399.203-2.344.57-3.563 1.61-5.336 6.149-9.14 11.75-9.867.82-.11 2.555-.094 3.446.031z" fill="#fff"/><path d="M37.664 33.5c-.5.266-.554.493-.554 2.141v1.469h-1.47c-1.648 0-1.874.055-2.14.555-.125.234-.14.476-.14 2.32 0 2.992-.102 2.86 2.156 2.89l1.594.024v1.46c0 1.65.054 1.876.554 2.142.235.125.477.14 2.336.14 1.86 0 2.102-.015 2.336-.14.5-.266.555-.493.555-2.141v-1.461l1.594-.023c2.257-.032 2.156.101 2.156-2.891 0-1.844-.016-2.086-.14-2.32-.266-.5-.493-.555-2.141-.555h-1.47v-1.47c0-1.648-.054-1.875-.554-2.14-.234-.125-.476-.141-2.336-.141-1.86 0-2.101.016-2.336.14zm3.196 3.36c0 2.25.03 2.281 2.28 2.281h1.47v1.797h-1.5c-2.235 0-2.25.016-2.25 2.266v1.406h-1.72v-1.47c0-1.648-.054-1.867-.554-2.148-.242-.133-.398-.14-1.726-.11l-1.47.032v-1.772h1.454c2.258 0 2.25.007 2.281-2.212l.024-1.539h1.711v1.469z" fill="#fff"/></svg>