<svg width="80" height="80" fill="none" xmlns="http://www.w3.org/2000/svg"><rect width="80" height="80" rx="40" fill="#3A81CF"/><path d="M37.07 20.242c-.523.32-2.633 2.47-3.57 3.633-1.563 1.945-2.469 3.477-2.54 4.32-.046.547.173 1.516.563 2.438.5 1.203 1.836 3.266 3.04 4.71l.578.696.039 4.93c.03 4.312.054 5.11.195 6.336.867 7.578 2.437 13.148 3.562 12.633.43-.196.485-1.735.204-5.602-.204-2.727-.18-4.805.07-6.914.164-1.36.383-2.82.437-2.875.047-.047.524.117 1.797.633 1.946.773 2.93 1.312 2.93 1.601 0 .235-.719.758-2.39 1.758-1.454.867-1.852 1.149-2.032 1.422-.125.195-.125.211.031.367.782.781 5.524-.672 8.219-2.523.781-.531.898-.672.828-1.04-.156-.827-2.14-2.866-4.898-5.023l-.516-.406-.047-2.664-.047-2.664.485-.563c1.906-2.203 3.383-4.562 3.812-6.109.383-1.398-.054-2.953-1.36-4.82-1.343-1.906-3.616-3.938-4.858-4.328-.407-.133-.438-.133-.57-.008-.126.125-.118.156.046.469.094.18.648.937 1.227 1.687 2.28 2.922 2.984 4.266 2.914 5.586-.024.453-.078.672-.344 1.219-.578 1.195-1.883 2.836-2.477 3.11-.656.312-5.07.288-5.672-.024-.117-.055-.476-.414-.796-.782-1.399-1.64-1.97-2.609-1.961-3.367.008-.883.625-2.265 2.203-4.953a87.32 87.32 0 001.11-1.953c.304-.578.413-1.086.257-1.148-.047-.016-.258.085-.469.218z" fill="#fff"/><path d="M38.851 24.875c-1.203.39-1.976 1.414-2 2.625-.007.656.125 1.11.477 1.64.555.821 1.625 1.321 2.594 1.212.953-.11 1.86-.758 2.258-1.602.171-.367.203-.539.203-1.172 0-.64-.032-.804-.211-1.187-.266-.57-.813-1.117-1.375-1.375-.531-.242-1.438-.313-1.946-.14z" fill="#fff"/></svg>