<svg width="80" height="80" fill="none" xmlns="http://www.w3.org/2000/svg"><rect width="80" height="80" rx="40" fill="#3A81CF"/><path d="M23.242 28.86c-.523.226-.82.827-.71 1.413.07.367.46.797.812.899.195.062 3.133.078 9.328.062 8.984-.023 9.039-.023 9.25-.187.414-.305.539-.555.539-1.047 0-.492-.125-.742-.539-1.047-.211-.164-.258-.164-9.328-.18-7.461-.015-9.164 0-9.352.086zm32.485 6.21c-.133.086-2.594 3.024-5.461 6.524-2.867 3.508-5.234 6.375-5.266 6.375-.031 0-1.242-1.422-2.687-3.164-1.446-1.735-2.727-3.227-2.836-3.313-.875-.695-2.227.25-1.906 1.328.132.438 6.523 8.117 6.914 8.305.343.164.695.156 1.039-.008.203-.094 1.71-1.883 6.039-7.172 3.172-3.875 5.82-7.156 5.898-7.304.516-1-.765-2.157-1.734-1.57zm-32.485.04c-.523.226-.82.827-.71 1.413.07.367.46.797.812.899.195.062 3.133.078 9.328.062 8.984-.023 9.039-.023 9.25-.187.414-.305.539-.555.539-1.047 0-.492-.125-.742-.539-1.047-.211-.164-.258-.164-9.328-.18-7.461-.016-9.164 0-9.352.086zm0 6.25c-.523.226-.82.827-.71 1.413.07.367.46.797.812.899.195.062 1.82.078 4.953.062 4.57-.023 4.664-.023 4.875-.187.414-.305.539-.555.539-1.047 0-.492-.125-.742-.539-1.047-.211-.164-.305-.164-4.953-.18-3.82-.015-4.79 0-4.977.086z" fill="#fff"/></svg>