<svg width="80" height="80" fill="none" xmlns="http://www.w3.org/2000/svg"><rect width="80" height="80" rx="40" fill="#3A81CF"/><g clip-path="url(#clip0_615_1681)" fill="#fff"><path d="M34.343 47.935v-3.44h.917a.827.827 0 00.826-.834.827.827 0 00-.826-.833h-9.245a.832.832 0 00-.826.833c0 .458.372.833.826.833h.925v3.441C23.363 49.368 21 52.76 21 56.542v2.625c0 .458.363.833.826.833h17.63a.832.832 0 00.827-.833v-2.625c0-3.782-2.363-7.165-5.94-8.607zm22.813-27.452c-1.466-.9-3.474-.538-5.805 1.046-1.07.727-2.159 1.682-3.236 2.837l-.002.003c-1.398 1.5-2.694 3.234-3.851 5.154C40.34 36.03 39.305 42.27 41.6 44.692l-1.66 2.754a.837.837 0 00.276 1.145.824.824 0 001.135-.28l1.657-2.748c.316.092.649.141 1 .141 2.798 0 6.606-2.874 9.957-7.715l.022-.033a.836.836 0 00-.175-1.093v-.001a.814.814 0 00-.714-.165h-.002l-.001.001-5.57 1.37 1.466-2.433 7.065-1.738a.831.831 0 00.607-1.007.826.826 0 00-1-.612l-5.458 1.343 1.466-2.433 6.03-1.483.002-.001a.823.823 0 00.599-.59c1.234-4.282.817-7.428-1.146-8.631zm-1.69 1.201l-2.093 3.472-.618-2.555c1.047-.636 1.979-.944 2.71-.917zm-4.162 1.95l.855 3.536-1.46 2.423-1.073-4.408a19.19 19.19 0 011.678-1.55zm-5.63 6.755a30.52 30.52 0 012.615-3.707l1.199 4.92-6.973 11.571c-1.124-1.967-.254-7.123 3.159-12.785zm5.561 8.482c-2.818 3.47-5.623 5.201-7.3 5.153l2.376-3.941 4.924-1.212zm5.603-10.67l-3.953.973 3.988-6.617c.618 1.093.625 3.14-.035 5.644z"/></g><defs><clipPath id="clip0_615_1681"><path fill="#fff" transform="translate(20 20)" d="M0 0h40v40H0z"/></clipPath></defs></svg>