<svg width="80" height="80" fill="none" xmlns="http://www.w3.org/2000/svg"><rect width="80" height="80" rx="40" fill="#3A81CF"/><path d="M51.068 43.106c-5.893-.345-8.695.62-11.223 1.456-2.528.837-3.82 1.71-7.84 1.764-7.749.018-12.005-3.73-12.005-3.73 3.11 3.93 5.438 5.185 8.131 6.058 2.692.873 6.13.91 8.804.218 2.674-.69 5.64-2.364 11.26-3.02 5.62-.654 11.805.474 11.805.474s-3.038-2.874-8.932-3.22zm.109-3.365a4.475 4.475 0 100-8.949 4.475 4.475 0 000 8.95z" fill="#fff"/><path d="M28.762 37.508l.002.004.054-.028.008-.003c.002-.001.003-.003.005-.003l6.997-3.58 2.344 3.987-9.269 6.031c.935.139 1.946.227 3.047.227H32c2.76-.038 3.95-.481 5.596-1.095.485-.18.986-.368 1.564-.56l.118-.038c1.738-.575 3.657-1.209 6.54-1.472l-6.19-8.458-1.118-1.608-.01-.015h-.002A2.067 2.067 0 0036.794 30a2.05 2.05 0 00-.9.214l-.005-.006-8.613 4.512.011.021a1.572 1.572 0 00-.589 2.082 1.571 1.571 0 002.064.685z" fill="#fff"/></svg>