<svg width="80" height="80" fill="none" xmlns="http://www.w3.org/2000/svg"><rect width="80" height="80" rx="40" fill="#3A81CF"/><path d="M37.773 21.227c-1.632.187-2.75.843-3.304 1.945-.211.422-.297.68-.438 1.289a.316.316 0 01-.25.258c-.11.031-.289.14-.39.242l-.188.187v4.602l-.219.414c-.297.57-.695.836-1.406.945-.312.055-.586.063-.617.04-.031-.032.031-.227.14-.43.188-.367.188-.39.227-3.188l.04-2.82.226-.328a1.907 1.907 0 011.164-.75l.289-.055v-1.25l-.367.055c-1.032.156-1.86.75-2.305 1.664l-.258.515-.039 2.743c-.039 2.508-.055 2.758-.187 3.008-.086.148-.266.53-.407.851-.297.695-.257.969.172 1.148.578.243 2.414.094 3.125-.257.532-.258 1.149-.907 1.422-1.485.203-.437.211-.515.234-1.953l.032-1.5.234.445c.125.243.352.602.5.79.149.187.266.39.266.453 0 .054-.094.484-.203.945-.172.695-.25.867-.438 1.023-.125.102-1.219 1.352-2.437 2.782-1.22 1.437-3.086 3.523-4.157 4.633L26.29 40.21l-.39-.336c-.5-.438-.797-.578-1.243-.578-.93 0-1.61.664-1.61 1.578 0 .227.095.688.212 1.063l.219.656-.258.453c-.133.25-.25.555-.25.68 0 .336.836 2.78.992 2.898.328.242.586.133 2.5-1.086 1.023-.648 1.937-1.25 2.023-1.336.149-.133.172-.133.22-.023.108.289.03.586-.306 1.133-.187.32-.351.64-.351.703 0 .062.32.828.71 1.703.391.875.696 1.601.68 1.61-.156.116-2.203.75-2.25.702-.03-.039-.226-.593-.421-1.226a55.53 55.53 0 00-.438-1.344l-.07-.188-.57.18c-.454.14-.563.203-.547.313.015.078.617 1.976 1.336 4.226 1.382 4.328 1.507 4.617 2.21 5.36 1.649 1.726 4.415 1.843 6.211.265.227-.195 1.977-2.36 3.891-4.804l3.492-4.446.438-.047c.976-.117 1.726-.32 4.234-1.148 1.438-.477 2.656-.883 2.711-.899.07-.03.102.235.117 1.047l.024 1.078.61.024.6.023v-1.648c0-.906-.03-1.711-.078-1.79-.039-.077-.171-.179-.289-.234-.195-.078-.539.016-3.265.93-2.797.945-4.297 1.39-4.383 1.305-.023-.016 0-.188.04-.375.046-.188.085-1.14.085-2.117v-1.774l.414-.039c1.32-.148 6.898-.523 7.36-.5 1.43.094 2.632 1.305 2.742 2.774.023.289-.047 1.695-.157 3.117a157.234 157.234 0 00-.203 2.789v.21h-2.266v-1.403h-1.25v3.71c0 2.399.03 3.844.086 4.102.101.484.445.898.89 1.102.281.132.563.148 2.852.148 2.484 0 2.554-.008 2.89-.18.547-.273.805-.664.844-1.258.063-.945-.328-1.374-1.672-1.82-.664-.219-.914-.336-1.14-.562l-.282-.282.344-4.453c.188-2.453.344-4.68.344-4.96.008-2.313-1.961-4.297-4.25-4.297-.508 0-6.234.414-7.133.515l-.414.04V37.75l.422-.438c.883-.898 1.062-2.234.469-3.421-.391-.774-.97-1.235-2.07-1.633-.594-.211-.72-.297-1.298-.875l-.648-.64v-1.509l.297-.054c.422-.078.812-.32 1.031-.64.164-.235.203-.4.227-.946.023-.64.03-.664.265-.79.375-.195.602-.452.602-.671 0-.117-.172-.531-.383-.922-.273-.523-.39-.844-.43-1.164-.14-1.328-1.117-2.445-2.351-2.703-.477-.102-1.164-.157-1.485-.117zm.594 1.273c.04 0-.133.281-.375.617-.406.555-.476.617-.664.578-.242-.047-.719.094-1.023.305-.657.46-.696 1.71-.07 2.273.156.141.156.141-.016.57-.086.227-.18.423-.203.423-.055 0-.282-.524-.516-1.203-.195-.547-.258-1.329-.14-1.813.156-.656.6-1.156 1.296-1.477.422-.195 1.305-.367 1.532-.304.062.015.14.031.18.031zm1.766.914c.14.242.21.5.242.867.023.375.102.657.281.992.133.258.25.493.266.524.016.023-.086.11-.211.187-.32.188-.344.266-.398 1.164l-.04.782-.601.023c-.54.024-.617.04-.766.227-.14.187-.156.312-.156 1.61v1.405l.79.805.788.797-.086.414c-.234 1.086-1.187 1.945-2.695 2.406-.649.203-.649.203-.75.008-.07-.14-.031-.227.273-.586.203-.234.352-.46.336-.5-.008-.039-.218-.227-.46-.422l-.438-.36-1.961 2.384c-1.844 2.242-2.102 2.515-4.469 4.797-2.508 2.414-2.508 2.421-3.86 3.273-.741.477-1.398.867-1.452.883-.063.015-.18-.227-.32-.625l-.22-.649.258-.476c.243-.43.344-.524 1.235-1.102.93-.61 1.086-.75 3.187-2.945a124.497 124.497 0 004.399-4.883c1.203-1.414 2.258-2.633 2.351-2.695.117-.086.438-.125 1.164-.149l1-.023-.023-.602-.024-.593-.68-.024a6.034 6.034 0 01-.687-.039c.008-.258.57-2 .89-2.781.243-.57.438-1.14.438-1.258 0-.148-.117-.344-.351-.61-.5-.554-.469-.828.078-.593.46.187.617.078 1.477-1.11.851-1.164.82-1.156 1.195-.523zM42.25 33.72c.383.226.672.625.797 1.125.18.68-.07 1.343-.695 1.867-.243.203-.407.414-.438.555l-.055.234h-3.938l-.132-.227c-.07-.125-.133-.257-.133-.296 0-.04.203-.133.453-.211.711-.227 1.641-.743 2.133-1.196.54-.508.875-1.015 1.094-1.664.156-.453.18-.476.375-.43.11.024.352.141.539.243zm-5.344 4.515l.977 1.586-.313.97c-.25.733-.375 1.007-.53 1.124-.485.367-1.142 1.047-1.462 1.54-.687 1.03-1.062 2.546-.898 3.655l.07.508-1.336 2.164c-.742 1.196-1.367 2.14-1.39 2.11-.032-.032-.641-1.352-1.352-2.938l-1.29-2.883.29-.468c.273-.446.289-.516.289-1.102 0-.508-.04-.703-.18-.984l-.18-.352 2.141-2.11c1.469-1.445 2.445-2.484 3.102-3.296.531-.656.992-1.172 1.023-1.149.031.016.5.75 1.04 1.625zm4.969 1.883v1.367h-1.61c-1.359 0-1.6-.015-1.57-.109.024-.063.157-.469.297-.898l.242-.782-.242-.43c-.133-.242-.242-.453-.242-.476 0-.023.703-.039 1.563-.039h1.562v1.367zm-16.836.664c.242.258.242.258-.234.578l-.313.203-.094-.21c-.296-.688.149-1.086.641-.57zm16.82 3.844l-.023 1.898-.242.508c-.164.344-1.336 1.899-3.586 4.766-1.836 2.344-3.516 4.437-3.735 4.664-1.289 1.328-3.336 1.36-4.617.078-.234-.227-.5-.57-.593-.766-.172-.336-1.516-4.445-1.47-4.476.055-.047 2.368-.813 2.391-.79.008.009.336.72.72 1.571.39.852.773 1.617.858 1.703.211.211.594.196.813-.039.18-.18 3.406-5.36 3.57-5.726.063-.133.063-.375 0-.844-.21-1.602.438-3.188 1.672-4.11l.453-.328h3.813l-.024 1.891zm11.235 8.477a55.07 55.07 0 01-.102 1.414l-.047.648.578.57c.563.563.594.578 1.477.868.492.164.945.328 1 .375.133.109.117.421-.031.476-.07.024-1.157.047-2.414.047-1.985 0-2.313-.016-2.414-.125-.11-.102-.125-.445-.125-2.523 0-1.32.023-2.43.054-2.454.024-.03.508-.054 1.063-.054h1.015l-.054.758z" fill="#fff"/></svg>