<svg width="80" height="80" fill="none" xmlns="http://www.w3.org/2000/svg"><rect width="80" height="80" rx="40" fill="#3A81CF"/><path d="M35.508 20.07a1.208 1.208 0 00-.313.243c-.14.156-.156.312-.195 1.945-.04 1.742-.04 1.773-.258 2.21a2.844 2.844 0 01-.617.798c-.375.343-.492.39-2.711 1.101-3.883 1.258-4.07 1.328-5.149 2.14-1.25.946-2.132 2.243-2.648 3.891l-.219.688-.023 13.125c-.016 9.336.008 13.188.07 13.328.195.492.945.586 1.328.18l.188-.203L25 46.46c.039-12.219.055-13.094.18-13.523.445-1.446 1.289-2.602 2.476-3.368.664-.43 1.063-.578 3.906-1.484 1.313-.414 2.617-.883 2.907-1.031.953-.5 1.773-1.532 2.054-2.61.149-.547.164-3.71.024-4.015-.157-.352-.64-.516-1.04-.36zm8.226.063c-.359.226-.39.406-.359 2.375.023 1.664.039 1.867.203 2.297.352.953 1.102 1.804 1.961 2.258.29.14 1.586.601 2.898 1.023 1.313.414 2.61.844 2.891.953 1.68.664 2.93 2.063 3.492 3.899.125.43.14 1.304.18 13.523l.039 13.055.188.203c.382.406 1.132.312 1.328-.18.062-.14.086-3.992.07-13.328l-.023-13.125-.22-.688c-.655-2.109-1.976-3.703-3.85-4.648-.532-.266-1.141-.484-4.188-1.46-2.04-.657-2.094-.68-2.508-1.056-.719-.656-.79-.89-.836-2.984l-.04-1.781-.202-.203c-.266-.258-.735-.32-1.024-.133z" fill="#fff"/><path d="M33.734 30.133c-.297.187-.359.398-.406 1.508-.023.539-.094 1.172-.156 1.406-.18.633-.617 1.469-1.016 1.922-.453.515-.547.75-.437 1.093a.813.813 0 00.804.579c.29 0 .368-.047.758-.453 1.172-1.204 1.774-2.922 1.703-4.883-.023-.774-.039-.844-.226-1.04-.266-.257-.735-.32-1.024-.132zm11.774-.063a1.21 1.21 0 00-.313.242c-.14.157-.156.282-.156 1.36.008 1.25.086 1.71.461 2.64a5.863 5.863 0 001.18 1.836c.43.446.5.493.789.493.39 0 .687-.211.812-.578.11-.344.016-.579-.43-1.086a5.35 5.35 0 01-1.015-1.891c-.07-.258-.14-.906-.164-1.445-.024-.54-.078-1.078-.125-1.196-.14-.36-.633-.539-1.04-.375zm-5.968 3.414c-.415.297-.4-.195-.4 11.516 0 11.71-.015 11.219.4 11.516.233.164.687.164.921 0 .414-.297.398.195.398-11.516 0-11.71.016-11.219-.398-11.516a.938.938 0 00-.46-.125.938.938 0 00-.462.125zM28.703 38.5c-.422.336-.43.586-.07 1.664.953 2.79 1.328 5.133 1.328 8.273 0 2.712-.18 4.102-.898 6.954-.399 1.593-.704 3.172-.704 3.68 0 .406.133.656.43.812a.79.79 0 001.008-.203c.11-.133.203-.32.203-.422 0-.383.336-2.094.664-3.399.711-2.82.89-4.14.953-6.797.07-3.18-.21-5.43-1.031-8.288-.43-1.485-.719-2.165-.977-2.297-.297-.157-.703-.149-.906.023zm21.672-.023c-.242.132-.516.797-.953 2.265-.813 2.797-1.11 5.133-1.04 8.32.063 2.657.243 3.962.954 6.797.328 1.313.664 3.024.664 3.407 0 .304.383.656.758.71.304.04.359.016.617-.242l.289-.289-.055-.601c-.062-.828-.289-1.946-.703-3.594-.68-2.672-.867-4.125-.867-6.812 0-3.11.367-5.43 1.289-8.165.172-.507.312-1.015.312-1.117 0-.625-.687-.992-1.265-.68z" fill="#fff"/></svg>