<svg width="80" height="80" fill="none" xmlns="http://www.w3.org/2000/svg"><rect width="80" height="80" rx="40" fill="#3A81CF"/><path d="M41.734 26.062c-.562.149-.453.086-4.586 2.563-3.922 2.344-4.414 2.703-4.945 3.578-.844 1.406-.906 3.094-.164 4.586.29.594.469.805 1.695 2.055l1.375 1.398-2.5 2.5c-2.648 2.656-3.226 3.133-4.5 3.742-2.008.953-3.937.766-5.492-.539-1.062-.898-1.351-1-1.953-.71-.586.28-.82.937-.539 1.53.219.454 1.242 1.258 2.258 1.766 2.5 1.258 5.64 1.063 7.898-.492l.344-.234.336.226c.953.656 2.297 1.149 3.547 1.29 1.742.187 3.726-.298 5.148-1.282l.344-.234.336.226c.953.656 2.297 1.149 3.547 1.29 1.742.187 3.726-.298 5.148-1.282l.344-.234.36.242c.562.398 1.726.906 2.492 1.101.968.25 2.82.258 3.726.008 1.297-.351 2.313-.875 3.258-1.672.789-.656.969-1.172.617-1.789-.18-.32-.656-.617-.984-.617-.305 0-.664.195-1.149.617-.586.516-1.695 1.07-2.46 1.227-1.352.281-2.9-.016-4.032-.774-.32-.21-1.227-1.047-2.25-2.07L47.25 42.36l.695.04c2.25.132 4.203-1.266 4.828-3.454.18-.601.18-1.71.008-2.375-.5-1.953-2.203-3.343-4.258-3.492-1.992-.148-3.906 1.102-4.672 3.055-.195.5-.21.64-.218 1.578v1.039l-1.813-1.813c-1.578-1.578-1.797-1.82-1.68-1.898.07-.055 1.133-.695 2.36-1.43 2.75-1.648 3.094-1.96 3.469-3.21.234-.805.125-1.813-.282-2.618-.226-.437-.874-1.101-1.351-1.375-.781-.445-1.75-.578-2.602-.344zm1.578 2.485c.461.351.57 1.133.22 1.601-.079.11-1.485 1-3.11 1.977-1.703 1.023-3.07 1.89-3.211 2.055-.219.234-.258.328-.258.672 0 .21.04.468.086.562.047.094 2.461 2.555 5.367 5.46l5.282 5.29-.657.305c-.898.422-1.375.523-2.383.523-.672-.008-.984-.047-1.445-.187a5.941 5.941 0 01-2.11-1.141c-.882-.75-1.304-.75-2.187 0a6.014 6.014 0 01-2.11 1.148c-.468.141-.765.18-1.444.18-.985 0-1.477-.101-2.305-.484l-.578-.266 2.633-2.633c2.625-2.625 2.867-2.922 2.867-3.414 0-.39-.266-.718-2-2.46-1.93-1.946-2.078-2.157-2.086-3-.016-.657.203-1.235.601-1.641.211-.22 1.547-1.07 3.93-2.492 1.977-1.196 3.688-2.196 3.79-2.243.296-.125.812-.039 1.108.188zm5.86 7.039c.445.187 1.016.766 1.226 1.234.649 1.492-.492 3.258-2.101 3.258-.688 0-1.164-.203-1.656-.687-.664-.672-.883-1.586-.586-2.446.437-1.226 1.906-1.867 3.117-1.36z" fill="#fff"/><path d="M20.64 49.93c-.562.28-.788.945-.515 1.523.219.453 1.242 1.258 2.258 1.766 2.5 1.258 5.64 1.062 7.898-.492l.344-.235.336.227c.953.656 2.297 1.148 3.547 1.289 1.742.187 3.726-.297 5.148-1.282l.344-.234.336.227c.953.656 2.297 1.148 3.547 1.289 1.742.187 3.726-.297 5.148-1.282l.344-.234.36.242c.562.399 1.726.907 2.492 1.102.968.25 2.82.258 3.726.008 1.297-.352 2.313-.875 3.258-1.672.789-.656.969-1.172.617-1.79-.18-.32-.656-.616-.984-.616-.305 0-.664.195-1.149.617-.578.508-1.695 1.07-2.422 1.218a5.443 5.443 0 01-3.593-.46c-.383-.196-.93-.547-1.211-.79-.883-.757-1.32-.757-2.196.008-.93.805-2.382 1.36-3.586 1.36-1.21 0-2.624-.54-3.593-1.367-.883-.758-1.32-.758-2.196.007-.93.805-2.382 1.36-3.586 1.36-1.21 0-2.624-.54-3.593-1.367-.883-.758-1.32-.758-2.196.007-.609.532-1.71 1.086-2.453 1.242a5.443 5.443 0 01-3.593-.46 7.416 7.416 0 01-1.172-.758c-.742-.649-1.086-.735-1.664-.453z" fill="#fff"/></svg>