<svg width="80" height="80" fill="none" xmlns="http://www.w3.org/2000/svg"><rect width="80" height="80" rx="40" fill="#3A81CF"/><g clip-path="url(#clip0_778_152)" fill="#fff"><path d="M57.477 21.305c-.032 1.093-.063 1.39-.211 1.804-.399 1.125-1.461 2.094-2.594 2.36-.188.039-5.422.726-11.633 1.523-6.219.797-11.562 1.492-11.875 1.555a12.654 12.654 0 00-6.906 3.797c-1 1.054-1.547 1.851-2.235 3.21-.945 1.891-1.375 3.602-1.453 5.813-.07 2.063.117 3.078 1.25 6.68l.578 1.836-.265.586a23.159 23.159 0 00-1.703 5.234c-.211 1.102-.43 3.008-.43 3.79V60h2.5v-.414c0-1.328.336-3.477.797-5.094.383-1.32.617-1.937 1.289-3.328l.508-1.062-.782-2.493c-1.132-3.609-1.265-4.187-1.265-5.812 0-4.117 2.094-7.75 5.633-9.75.578-.328 1.68-.742 2.492-.945.367-.086 5.781-.813 12.031-1.602 6.25-.797 11.664-1.516 12.024-1.602 2.187-.523 3.898-2.18 4.546-4.398.133-.46.172-.852.204-2.04l.039-1.46h-2.5l-.04 1.305z"/><path d="M31.25 43.734v1.25l1.39.032c1.313.023 1.4.03 1.665.21.148.11.36.32.468.47l.188.28.023 7.008L35 60h2.5v-5.727l.172.227c2.047 2.695 4.805 4.477 8.023 5.188 1.235.273 2.102.312 6.375.312h4.18v-2.5h-4.078c-2.25 0-4.399-.04-4.79-.078-4.976-.563-8.882-4.25-9.718-9.18-.039-.258-.117-.93-.164-1.5-.047-.562-.14-1.21-.203-1.437-.258-.875-.86-1.649-1.695-2.188-.743-.476-1.07-.547-2.805-.593l-1.547-.04v1.25z"/><path d="M47.5 51.25v1.25H50V50h-2.5v1.25z"/></g><defs><clipPath id="clip0_778_152"><path fill="#fff" transform="translate(20 20)" d="M0 0h40v40H0z"/></clipPath></defs></svg>