<svg width="80" height="80" fill="none" xmlns="http://www.w3.org/2000/svg"><rect width="80" height="80" rx="40" fill="#3A81CF"/><g clip-path="url(#clip0_778_160)" fill="#fff"><path d="M43.36 20.086c-.227.094-.524.36-.65.578-.07.117-.1 2.57-.132 9.258l-.04 9.101-.179.508c-.266.735-.75 1.516-1.258 2.024-.406.398-12.89 9.117-13.593 9.492-.524.281-.766.305-3.016.352l-2.266.046-.437.22c-.688.335-1.117.765-1.453 1.444-.29.578-.297.618-.29 1.414 0 .961.141 1.579.555 2.383a5.516 5.516 0 002.492 2.5c1.157.578.727.547 8.11.57 7.922.032 7.414.079 9.656-.859 1.164-.492 1.54-.562 2.93-.562 1.437 0 1.898.101 3.234.703 1.524.68 1.68.703 4.93.703 2.726 0 2.875-.008 3.46-.18 2.173-.625 3.743-2.195 4.368-4.367.164-.562.18-.758.172-2.445-.008-2.547-.281-4.477-.977-6.852-.289-.992-1.008-2.914-1.32-3.539-.133-.266-.117-.43 1.117-10.922l1.258-10.648-.172-.344c-.187-.383-.617-.664-1.031-.664-.406 0-.844.281-1.016.648-.125.266-.398 2.43-1.406 11.008-.688 5.875-1.25 10.774-1.25 10.89 0 .11.203.665.46 1.227 1.274 2.86 1.915 5.649 2.017 8.766.046 1.719-.008 2.172-.399 2.969-.508 1.031-1.602 1.867-2.695 2.07-.227.047-1.407.078-2.617.078-2.508 0-2.883-.054-3.938-.539-1.46-.664-2.695-.945-4.187-.945-1.524 0-2.625.242-4.157.906-1.414.61-1.03.586-8.336.563l-6.5-.024-.523-.25c-1.063-.5-1.813-1.515-1.906-2.601-.047-.477-.04-.532.164-.766l.21-.25h1.821c2.11 0 2.89-.102 3.742-.492.328-.156 3.25-2.125 7.156-4.82 5.891-4.07 6.68-4.641 7.305-5.274.438-.445.844-.953 1.086-1.352.422-.703.86-1.89.977-2.671.054-.328.086-3.625.086-9.36 0-9.695.023-9.195-.47-9.547-.28-.203-.804-.273-1.093-.148z"/><path d="M49.531 41.469a1.129 1.129 0 00-.625 1.008c0 .39.055.515.438 1.023.406.523.523.852.531 1.46.008.688-.102.993-.586 1.65-.336.46-.383.57-.383.906 0 .226.055.484.133.609.29.492 1.148.711 1.61.398.32-.203.812-.828 1.07-1.336.375-.75.5-1.289.5-2.187 0-.688-.04-.922-.219-1.438-.25-.734-.484-1.148-.922-1.648-.508-.578-1.008-.719-1.547-.445z"/></g><defs><clipPath id="clip0_778_160"><path fill="#fff" transform="translate(20 20)" d="M0 0h40v40H0z"/></clipPath></defs></svg>