<svg width="40" height="40" fill="none" xmlns="http://www.w3.org/2000/svg"><circle cx="20" cy="20" r="20" fill="#3A81CF"/><path d="M29.805 25.115c0-.083-.082-.083-.082-.166-.333-.664-1.08-1.494-2.076-2.407-.498-.415-.747-.748-.913-.914-.25-.332-.25-.58-.166-.913.083-.249.415-.664.996-1.411.332-.415.498-.664.747-.913 1.245-1.66 1.827-2.74 1.66-3.238l-.082-.083c-.084-.083-.166-.166-.333-.166-.166-.083-.415-.083-.664 0h-3.736l-.083.083c-.083.083-.083.083-.083.166-.332.913-.747 1.66-1.162 2.49-.25.415-.498.83-.747 1.163-.25.332-.415.58-.581.747-.166.166-.333.249-.416.415-.083.083-.249.166-.249.083-.083 0-.166 0-.166-.083a292.51 292.51 0 01-.249-.25c-.083-.082-.083-.248-.166-.414v-4.151c0-.083-.083-.25-.083-.332a292.51 292.51 0 01-.249-.25c-.083-.082-.249-.082-.332-.165a7.448 7.448 0 00-1.494-.167c-1.329 0-2.242.083-2.574.25-.166.082-.332.166-.415.332-.166.166-.166.249-.083.249.415.083.747.249.913.498l.083.166c.083.083.083.249.166.498.083.25.083.498.083.83v1.329c0 .415-.083.664-.083.913s-.083.415-.166.498c-.083.166-.083.249-.166.249 0 0 0 .083-.083.083s-.166.083-.332.083c-.083 0-.25-.083-.332-.166a1 1 0 01-.415-.415c-.166-.166-.332-.415-.498-.747-.167-.332-.416-.665-.582-1.163l-.166-.332c-.083-.166-.249-.498-.415-.913-.166-.415-.332-.747-.498-1.162a1.132 1.132 0 00-.249-.332h-.083s-.083-.083-.166-.083-.166-.083-.25-.083H9.798c-.332 0-.498.083-.581.166l-.083.083v.166c0 .083 0 .166.083.332.415.996.913 1.992 1.411 2.989.498.913.996 1.743 1.329 2.324.415.581.747 1.163 1.162 1.66.415.499.664.831.747.997l.332.332.25.25c.165.165.414.414.747.663.332.25.747.498 1.162.748.415.249.913.415 1.411.58.581.167 1.08.25 1.578.167h1.245a.754.754 0 00.581-.25l.083-.082c0-.083.083-.083.083-.166v-.332c0-.333 0-.582.083-.83.083-.25.083-.416.166-.582.083-.166.166-.249.25-.332l.165-.166h.083c.166-.083.416 0 .582.166.249.166.498.415.664.664.166.25.415.498.747.83.332.333.581.582.747.665l.25.166c.165.083.331.166.58.249.25.083.416.083.581.083l2.823-.083c.25 0 .498-.083.665-.166.166-.083.249-.166.249-.332v-.332c-.167-.166-.167-.25-.167-.333z" fill="#fff"/></svg>